<?xml version="1.0" encoding="UTF-8"?>
<svg xmlns="http://www.w3.org/2000/svg" xmlns:xlink="http://www.w3.org/1999/xlink" width="1080" height="1920" viewBox="0 0 1080 1920">
<defs>
<g>
<g id="glyph-0-0">
<path d="M 0.207031 -0.269531 C 0.464844 -0.277344 0.640625 -0.324219 0.742188 -0.414062 C 0.84375 -0.503906 0.894531 -0.671875 0.894531 -0.917969 L 0.894531 -4.875 C 0.894531 -5.152344 0.667969 -5.3125 0.207031 -5.351562 L 0.207031 -5.621094 L 2.578125 -5.621094 L 4.035156 -2.332031 L 5.351562 -5.621094 L 7.652344 -5.621094 L 7.652344 -5.351562 C 7.398438 -5.339844 7.234375 -5.277344 7.160156 -5.164062 C 7.105469 -5.074219 7.078125 -4.898438 7.078125 -4.632812 L 7.078125 -1.34375 C 7.078125 -0.933594 7.089844 -0.691406 7.109375 -0.621094 C 7.171875 -0.394531 7.351562 -0.277344 7.652344 -0.269531 L 7.652344 0 L 4.792969 0 L 4.792969 -0.269531 C 5.097656 -0.277344 5.289062 -0.347656 5.359375 -0.484375 C 5.394531 -0.550781 5.414062 -0.757812 5.414062 -1.097656 L 5.414062 -4.511719 L 5.390625 -4.511719 L 3.546875 0 L 3.21875 0 L 1.421875 -4.207031 L 1.390625 -4.207031 L 1.390625 -0.917969 C 1.390625 -0.671875 1.445312 -0.5 1.558594 -0.40625 C 1.652344 -0.324219 1.832031 -0.277344 2.089844 -0.269531 L 2.089844 0 L 0.207031 0 Z "/>
</g>
<g id="glyph-0-1">
<path d="M 5.074219 -1.222656 C 4.867188 -0.867188 4.6875 -0.617188 4.535156 -0.464844 C 4.085938 -0.0078125 3.496094 0.222656 2.761719 0.222656 C 1.972656 0.222656 1.351562 -0.09375 0.902344 -0.726562 C 0.503906 -1.289062 0.304688 -1.984375 0.304688 -2.8125 C 0.304688 -3.550781 0.527344 -4.21875 0.972656 -4.816406 C 1.457031 -5.46875 2.058594 -5.796875 2.773438 -5.796875 C 3.222656 -5.796875 3.632812 -5.671875 4 -5.425781 C 4.363281 -5.179688 4.640625 -4.847656 4.828125 -4.433594 C 4.964844 -4.136719 5.035156 -3.640625 5.050781 -2.949219 L 1.957031 -2.949219 L 1.957031 -2.882812 C 1.957031 -2.375 2.066406 -1.898438 2.28125 -1.457031 C 2.546875 -0.90625 2.910156 -0.632812 3.371094 -0.632812 C 3.933594 -0.632812 4.421875 -0.890625 4.839844 -1.410156 Z M 3.605469 -3.433594 L 3.605469 -3.949219 C 3.605469 -4.480469 3.5625 -4.839844 3.472656 -5.023438 C 3.359375 -5.273438 3.15625 -5.402344 2.871094 -5.402344 C 2.316406 -5.402344 2.011719 -4.746094 1.957031 -3.433594 Z "/>
</g>
<g id="glyph-0-2">
<path d="M 6.554688 0 L 3.652344 0 L 3.652344 -0.269531 L 3.886719 -0.304688 C 4.066406 -0.332031 4.152344 -0.394531 4.152344 -0.488281 C 4.152344 -0.621094 3.996094 -0.890625 3.675781 -1.296875 L 2.648438 -2.601562 L 2.589844 -2.601562 L 2.589844 -0.597656 C 2.589844 -0.378906 2.753906 -0.269531 3.078125 -0.269531 L 3.078125 0 L 0.339844 0 L 0.339844 -0.269531 C 0.625 -0.269531 0.804688 -0.335938 0.871094 -0.464844 C 0.910156 -0.542969 0.929688 -0.675781 0.929688 -0.851562 L 0.929688 -4.769531 C 0.929688 -5.078125 0.839844 -5.261719 0.664062 -5.3125 C 0.582031 -5.335938 0.476562 -5.347656 0.339844 -5.351562 L 0.339844 -5.621094 L 3.230469 -5.621094 L 3.230469 -5.351562 C 3.105469 -5.34375 2.945312 -5.324219 2.75 -5.292969 C 2.644531 -5.246094 2.589844 -5.121094 2.589844 -4.921875 L 2.589844 -2.847656 L 3.617188 -3.835938 C 4.191406 -4.390625 4.476562 -4.800781 4.476562 -5.074219 C 4.476562 -5.242188 4.277344 -5.332031 3.886719 -5.351562 L 3.886719 -5.621094 L 6.207031 -5.621094 L 6.207031 -5.351562 C 5.964844 -5.351562 5.664062 -5.195312 5.304688 -4.875 L 3.875 -3.605469 L 5.949219 -0.792969 C 6.117188 -0.566406 6.226562 -0.429688 6.273438 -0.382812 C 6.347656 -0.308594 6.441406 -0.269531 6.554688 -0.269531 Z "/>
</g>
<g id="glyph-0-3">
<path d="M 1.480469 -0.269531 C 1.742188 -0.269531 1.921875 -0.300781 2.023438 -0.363281 C 2.160156 -0.453125 2.226562 -0.613281 2.226562 -0.851562 L 2.226562 -4.875 C 2.226562 -5.085938 2.101562 -5.191406 1.855469 -5.191406 C 1.347656 -5.191406 0.90625 -4.695312 0.539062 -3.707031 L 0.28125 -3.707031 L 0.339844 -5.621094 L 5.644531 -5.621094 L 5.707031 -3.707031 L 5.449219 -3.707031 C 5.078125 -4.695312 4.640625 -5.191406 4.128906 -5.191406 C 3.878906 -5.191406 3.753906 -5.085938 3.753906 -4.875 L 3.753906 -0.851562 C 3.753906 -0.609375 3.824219 -0.449219 3.960938 -0.363281 C 4.066406 -0.300781 4.25 -0.269531 4.511719 -0.269531 L 4.511719 0 L 1.480469 0 Z "/>
</g>
<g id="glyph-0-4">
<path d="M 6.453125 0 L 3.730469 0 L 3.730469 -0.269531 L 3.875 -0.269531 C 4.097656 -0.269531 4.207031 -0.40625 4.207031 -0.6875 L 4.207031 -4.757812 C 4.207031 -5.03125 4.078125 -5.167969 3.8125 -5.167969 L 2.984375 -5.167969 C 2.722656 -5.167969 2.589844 -5.03125 2.589844 -4.757812 L 2.589844 -0.6875 C 2.589844 -0.410156 2.707031 -0.269531 2.9375 -0.269531 L 3.066406 -0.269531 L 3.066406 0 L 0.339844 0 L 0.339844 -0.269531 C 0.523438 -0.273438 0.65625 -0.292969 0.734375 -0.335938 C 0.867188 -0.402344 0.929688 -0.570312 0.929688 -0.839844 L 0.929688 -4.78125 C 0.929688 -5.074219 0.847656 -5.25 0.679688 -5.304688 C 0.597656 -5.332031 0.484375 -5.347656 0.339844 -5.351562 L 0.339844 -5.621094 L 6.453125 -5.621094 L 6.453125 -5.351562 C 6.222656 -5.34375 6.066406 -5.304688 5.984375 -5.230469 C 5.90625 -5.15625 5.867188 -5.007812 5.867188 -4.78125 L 5.867188 -0.839844 C 5.867188 -0.546875 5.949219 -0.371094 6.117188 -0.316406 C 6.195312 -0.289062 6.308594 -0.273438 6.453125 -0.269531 Z "/>
</g>
</g>
</defs>
<g fill="rgb(100%, 81.960784%, 40%)" fill-opacity="1">
<use xlink:href="#glyph-0-0" x="30" y="29.166992"/>
<use xlink:href="#glyph-0-1" x="38" y="29.166992"/>
<use xlink:href="#glyph-0-2" x="43" y="29.166992"/>
<use xlink:href="#glyph-0-3" x="50" y="29.166992"/>
<use xlink:href="#glyph-0-1" x="56" y="29.166992"/>
<use xlink:href="#glyph-0-4" x="61" y="29.166992"/>
</g>
</svg>
