<?xml version="1.0" encoding="UTF-8"?>
<svg xmlns="http://www.w3.org/2000/svg" xmlns:xlink="http://www.w3.org/1999/xlink" width="1080" height="1920" viewBox="0 0 1080 1920">
<defs>
<g>
<g id="glyph-0-0">
<path d="M -0.015625 0 L 2.660156 -6.960938 L 3.652344 -6.960938 L 6.5 0 L 5.449219 0 L 4.636719 -2.109375 L 1.726562 -2.109375 L 0.964844 0 Z M 1.992188 -2.859375 L 4.351562 -2.859375 L 3.628906 -4.785156 C 3.40625 -5.371094 3.242188 -5.851562 3.132812 -6.230469 C 3.042969 -5.78125 2.917969 -5.339844 2.757812 -4.898438 Z "/>
</g>
<g id="glyph-0-1">
<path d="M 0.90625 0 L 0.90625 -6.960938 L 1.828125 -6.960938 L 1.828125 0 Z "/>
</g>
<g id="glyph-0-2">
<path d="M 0.878906 -4.070312 L 0.878906 -5.042969 L 1.851562 -5.042969 L 1.851562 -4.070312 Z M 0.878906 0 L 0.878906 -0.972656 L 1.851562 -0.972656 L 1.851562 0 Z "/>
</g>
<g id="glyph-0-3">
<rect x="0" y="0" width="0" height="0" mask="url(#mask-0)"/>
</g>
<g id="glyph-0-4">
<path d="M -0.015625 0 L 2.660156 -6.960938 L 3.652344 -6.960938 L 6.5 0 L 5.449219 0 L 4.636719 -2.109375 L 1.726562 -2.109375 L 0.964844 0 Z M 1.992188 -2.859375 L 4.351562 -2.859375 L 3.628906 -4.785156 C 3.40625 -5.371094 3.242188 -5.851562 3.132812 -6.230469 C 3.042969 -5.78125 2.917969 -5.339844 2.757812 -4.898438 Z "/>
</g>
<g id="glyph-0-5">
<path d="M 0.640625 -5.042969 L 1.496094 -5.042969 L 1.496094 -1.195312 L 3.863281 -5.042969 L 4.785156 -5.042969 L 4.785156 0 L 3.929688 0 L 3.929688 -3.820312 L 1.5625 0 L 0.640625 0 Z M 3.609375 -6.949219 L 4.191406 -6.949219 C 4.144531 -6.554688 4 -6.25 3.757812 -6.039062 C 3.515625 -5.828125 3.195312 -5.71875 2.792969 -5.71875 C 2.386719 -5.71875 2.0625 -5.824219 1.820312 -6.035156 C 1.578125 -6.246094 1.433594 -6.550781 1.386719 -6.949219 L 1.96875 -6.949219 C 2.015625 -6.734375 2.101562 -6.574219 2.234375 -6.46875 C 2.367188 -6.363281 2.542969 -6.308594 2.761719 -6.308594 C 3.019531 -6.308594 3.214844 -6.359375 3.34375 -6.464844 C 3.476562 -6.566406 3.5625 -6.730469 3.609375 -6.949219 Z "/>
</g>
<g id="glyph-0-6">
<path d="M 1.316406 -5.042969 L 4.828125 -5.042969 L 4.828125 -0.703125 L 5.375 -0.703125 L 5.375 1.429688 L 4.671875 1.429688 L 4.671875 0 L 0.703125 0 L 0.703125 1.429688 L 0 1.429688 L 0 -0.703125 L 0.449219 -0.703125 C 1.050781 -1.519531 1.339844 -2.964844 1.316406 -5.042969 Z M 2.027344 -4.335938 C 1.964844 -2.699219 1.710938 -1.488281 1.265625 -0.703125 L 3.976562 -0.703125 L 3.976562 -4.335938 Z "/>
</g>
<g id="glyph-0-7">
<path d="M 5.441406 -5.042969 L 6.296875 -5.042969 L 6.296875 0 L 5.441406 0 Z M 0.660156 -5.042969 L 1.515625 -5.042969 L 1.515625 -3.070312 L 2.597656 -3.070312 C 3.304688 -3.070312 3.847656 -2.933594 4.226562 -2.660156 C 4.609375 -2.386719 4.800781 -2.007812 4.800781 -1.527344 C 4.800781 -1.105469 4.640625 -0.746094 4.324219 -0.449219 C 4.003906 -0.148438 3.496094 0 2.796875 0 L 0.660156 0 Z M 1.515625 -0.703125 L 2.410156 -0.703125 C 2.953125 -0.703125 3.339844 -0.769531 3.570312 -0.902344 C 3.800781 -1.035156 3.917969 -1.242188 3.917969 -1.523438 C 3.917969 -1.742188 3.832031 -1.9375 3.660156 -2.109375 C 3.488281 -2.277344 3.109375 -2.363281 2.527344 -2.363281 L 1.515625 -2.363281 Z "/>
</g>
<g id="glyph-0-8">
<path d="M 0.644531 -5.042969 L 1.5 -5.042969 L 1.5 -2.945312 L 3.867188 -2.945312 L 3.867188 -5.042969 L 4.722656 -5.042969 L 4.722656 0 L 3.867188 0 L 3.867188 -2.234375 L 1.5 -2.234375 L 1.5 0 L 0.644531 0 Z "/>
</g>
<g id="glyph-0-9">
<path d="M 0.640625 -5.042969 L 1.496094 -5.042969 L 1.496094 -1.195312 L 3.863281 -5.042969 L 4.785156 -5.042969 L 4.785156 0 L 3.929688 0 L 3.929688 -3.820312 L 1.5625 0 L 0.640625 0 Z "/>
</g>
<g id="glyph-0-10">
<path d="M 0.328125 -5.042969 L 1.183594 -5.042969 L 1.183594 -4.085938 C 1.183594 -3.675781 1.207031 -3.378906 1.253906 -3.191406 C 1.304688 -3.007812 1.421875 -2.847656 1.609375 -2.707031 C 1.796875 -2.570312 2.03125 -2.5 2.3125 -2.5 C 2.636719 -2.5 3.050781 -2.585938 3.566406 -2.757812 L 3.566406 -5.042969 L 4.417969 -5.042969 L 4.417969 0 L 3.566406 0 L 3.566406 -2.03125 C 3.039062 -1.867188 2.550781 -1.785156 2.09375 -1.785156 C 1.710938 -1.785156 1.371094 -1.882812 1.078125 -2.078125 C 0.785156 -2.273438 0.589844 -2.511719 0.484375 -2.792969 C 0.378906 -3.074219 0.328125 -3.382812 0.328125 -3.722656 Z "/>
</g>
<g id="glyph-0-11">
<path d="M 4.09375 -1.625 L 4.976562 -1.515625 C 4.835938 -1 4.578125 -0.597656 4.203125 -0.3125 C 3.824219 -0.0273438 3.34375 0.113281 2.757812 0.113281 C 2.019531 0.113281 1.4375 -0.113281 1.003906 -0.566406 C 0.570312 -1.019531 0.355469 -1.660156 0.355469 -2.476562 C 0.355469 -3.324219 0.574219 -3.984375 1.011719 -4.453125 C 1.449219 -4.921875 2.015625 -5.15625 2.710938 -5.15625 C 3.386719 -5.15625 3.9375 -4.925781 4.363281 -4.46875 C 4.789062 -4.007812 5.003906 -3.363281 5.003906 -2.53125 C 5.003906 -2.480469 5.003906 -2.402344 5 -2.300781 L 1.238281 -2.300781 C 1.269531 -1.75 1.425781 -1.324219 1.710938 -1.03125 C 1.992188 -0.734375 2.34375 -0.589844 2.761719 -0.589844 C 3.074219 -0.589844 3.34375 -0.671875 3.566406 -0.835938 C 3.789062 -1 3.960938 -1.261719 4.09375 -1.625 Z M 1.285156 -3.003906 L 4.101562 -3.003906 C 4.0625 -3.429688 3.957031 -3.746094 3.777344 -3.960938 C 3.507812 -4.289062 3.152344 -4.453125 2.71875 -4.453125 C 2.328125 -4.453125 1.996094 -4.320312 1.730469 -4.058594 C 1.464844 -3.796875 1.316406 -3.445312 1.285156 -3.003906 Z "/>
</g>
<g id="glyph-0-12">
<path d="M 0.324219 -2.519531 C 0.324219 -3.453125 0.582031 -4.144531 1.101562 -4.59375 C 1.535156 -4.96875 2.0625 -5.15625 2.6875 -5.15625 C 3.378906 -5.15625 3.945312 -4.929688 4.386719 -4.472656 C 4.828125 -4.019531 5.046875 -3.394531 5.046875 -2.59375 C 5.046875 -1.945312 4.949219 -1.433594 4.753906 -1.0625 C 4.558594 -0.691406 4.277344 -0.398438 3.90625 -0.195312 C 3.535156 0.0117188 3.125 0.113281 2.6875 0.113281 C 1.980469 0.113281 1.410156 -0.113281 0.976562 -0.566406 C 0.539062 -1.019531 0.324219 -1.667969 0.324219 -2.519531 Z M 1.199219 -2.519531 C 1.199219 -1.875 1.34375 -1.390625 1.625 -1.070312 C 1.90625 -0.75 2.257812 -0.589844 2.6875 -0.589844 C 3.109375 -0.589844 3.464844 -0.75 3.746094 -1.074219 C 4.027344 -1.394531 4.167969 -1.886719 4.167969 -2.550781 C 4.167969 -3.171875 4.027344 -3.644531 3.742188 -3.964844 C 3.460938 -4.289062 3.109375 -4.449219 2.6875 -4.449219 C 2.261719 -4.449219 1.90625 -4.289062 1.625 -3.96875 C 1.34375 -3.648438 1.199219 -3.167969 1.199219 -2.519531 Z "/>
</g>
<g id="glyph-0-13">
<path d="M 5.273438 1.429688 L 4.570312 1.429688 L 4.570312 0 L 3.867188 0 L 3.867188 -2.234375 L 1.5 -2.234375 L 1.5 0 L 0.644531 0 L 0.644531 -5.042969 L 1.5 -5.042969 L 1.5 -2.945312 L 3.867188 -2.945312 L 3.867188 -5.042969 L 4.722656 -5.042969 L 4.722656 -0.703125 L 5.273438 -0.703125 Z "/>
</g>
<g id="glyph-0-14">
<path d="M 0.636719 -5.042969 L 1.492188 -5.042969 L 1.492188 -2.863281 C 1.761719 -2.863281 1.953125 -2.914062 2.0625 -3.019531 C 2.171875 -3.125 2.332031 -3.425781 2.542969 -3.929688 C 2.710938 -4.328125 2.847656 -4.59375 2.953125 -4.71875 C 3.058594 -4.84375 3.175781 -4.929688 3.3125 -4.976562 C 3.449219 -5.019531 3.667969 -5.042969 3.96875 -5.042969 L 4.140625 -5.042969 L 4.140625 -4.335938 L 3.902344 -4.339844 C 3.675781 -4.339844 3.535156 -4.304688 3.46875 -4.238281 C 3.402344 -4.167969 3.300781 -3.960938 3.167969 -3.617188 C 3.039062 -3.289062 2.917969 -3.058594 2.808594 -2.933594 C 2.703125 -2.808594 2.535156 -2.691406 2.3125 -2.585938 C 2.679688 -2.488281 3.039062 -2.148438 3.394531 -1.5625 L 4.328125 0 L 3.390625 0 L 2.476562 -1.5625 C 2.289062 -1.875 2.128906 -2.082031 1.988281 -2.179688 C 1.847656 -2.28125 1.683594 -2.332031 1.492188 -2.332031 L 1.492188 0 L 0.636719 0 Z "/>
</g>
<g id="glyph-0-15">
<path d="M 0.640625 1.933594 L 0.640625 -5.042969 L 1.417969 -5.042969 L 1.417969 -4.386719 C 1.601562 -4.644531 1.808594 -4.835938 2.042969 -4.964844 C 2.273438 -5.09375 2.550781 -5.15625 2.882812 -5.15625 C 3.3125 -5.15625 3.691406 -5.042969 4.019531 -4.824219 C 4.351562 -4.601562 4.597656 -4.289062 4.765625 -3.886719 C 4.933594 -3.484375 5.019531 -3.039062 5.019531 -2.558594 C 5.019531 -2.042969 4.925781 -1.578125 4.742188 -1.164062 C 4.554688 -0.753906 4.285156 -0.4375 3.933594 -0.214844 C 3.582031 0.00390625 3.210938 0.113281 2.820312 0.113281 C 2.535156 0.113281 2.28125 0.0546875 2.054688 -0.0664062 C 1.828125 -0.1875 1.640625 -0.339844 1.496094 -0.523438 L 1.496094 1.933594 Z M 1.414062 -2.492188 C 1.414062 -1.84375 1.546875 -1.363281 1.808594 -1.054688 C 2.070312 -0.742188 2.390625 -0.589844 2.761719 -0.589844 C 3.140625 -0.589844 3.46875 -0.75 3.738281 -1.070312 C 4.007812 -1.390625 4.144531 -1.890625 4.144531 -2.5625 C 4.144531 -3.207031 4.011719 -3.6875 3.75 -4.007812 C 3.484375 -4.328125 3.167969 -4.484375 2.800781 -4.484375 C 2.4375 -4.484375 2.113281 -4.316406 1.835938 -3.976562 C 1.554688 -3.636719 1.414062 -3.140625 1.414062 -2.492188 Z "/>
</g>
<g id="glyph-0-16">
<path d="M 3.929688 -1.847656 L 4.769531 -1.738281 C 4.679688 -1.160156 4.445312 -0.703125 4.066406 -0.378906 C 3.6875 -0.0507812 3.222656 0.113281 2.671875 0.113281 C 1.984375 0.113281 1.429688 -0.113281 1.007812 -0.5625 C 0.589844 -1.011719 0.378906 -1.660156 0.378906 -2.5 C 0.378906 -3.046875 0.46875 -3.523438 0.652344 -3.929688 C 0.832031 -4.339844 1.105469 -4.644531 1.472656 -4.847656 C 1.84375 -5.054688 2.242188 -5.15625 2.675781 -5.15625 C 3.222656 -5.15625 3.671875 -5.015625 4.019531 -4.742188 C 4.367188 -4.464844 4.59375 -4.070312 4.691406 -3.558594 L 3.859375 -3.433594 C 3.78125 -3.769531 3.640625 -4.027344 3.441406 -4.195312 C 3.238281 -4.367188 2.996094 -4.453125 2.710938 -4.453125 C 2.28125 -4.453125 1.929688 -4.296875 1.660156 -3.988281 C 1.390625 -3.679688 1.257812 -3.195312 1.257812 -2.527344 C 1.257812 -1.847656 1.386719 -1.355469 1.648438 -1.050781 C 1.90625 -0.742188 2.246094 -0.589844 2.664062 -0.589844 C 3 -0.589844 3.277344 -0.691406 3.503906 -0.898438 C 3.726562 -1.101562 3.871094 -1.417969 3.929688 -1.847656 Z "/>
</g>
<g id="glyph-0-17">
<path d="M 0.179688 -5.042969 L 4.277344 -5.042969 L 4.277344 -4.335938 L 2.652344 -4.335938 L 2.652344 0 L 1.804688 0 L 1.804688 -4.335938 L 0.179688 -4.335938 Z "/>
</g>
<g id="glyph-0-18">
<path d="M 3.929688 -0.621094 C 3.613281 -0.351562 3.308594 -0.164062 3.015625 -0.0507812 C 2.722656 0.0585938 2.410156 0.113281 2.074219 0.113281 C 1.519531 0.113281 1.09375 -0.0195312 0.796875 -0.292969 C 0.5 -0.5625 0.351562 -0.910156 0.351562 -1.328125 C 0.351562 -1.574219 0.40625 -1.800781 0.519531 -2.003906 C 0.632812 -2.210938 0.78125 -2.375 0.960938 -2.496094 C 1.144531 -2.621094 1.347656 -2.714844 1.574219 -2.777344 C 1.742188 -2.820312 1.996094 -2.863281 2.335938 -2.90625 C 3.027344 -2.988281 3.535156 -3.085938 3.859375 -3.199219 C 3.863281 -3.316406 3.863281 -3.390625 3.863281 -3.421875 C 3.863281 -3.769531 3.785156 -4.015625 3.621094 -4.160156 C 3.402344 -4.351562 3.078125 -4.449219 2.648438 -4.449219 C 2.246094 -4.449219 1.949219 -4.378906 1.757812 -4.238281 C 1.566406 -4.097656 1.425781 -3.847656 1.335938 -3.488281 L 0.5 -3.601562 C 0.574219 -3.960938 0.699219 -4.25 0.875 -4.46875 C 1.046875 -4.6875 1.300781 -4.859375 1.628906 -4.976562 C 1.957031 -5.097656 2.339844 -5.15625 2.773438 -5.15625 C 3.203125 -5.15625 3.550781 -5.105469 3.820312 -5.003906 C 4.089844 -4.902344 4.289062 -4.773438 4.414062 -4.621094 C 4.542969 -4.46875 4.628906 -4.273438 4.679688 -4.039062 C 4.710938 -3.894531 4.722656 -3.632812 4.722656 -3.253906 L 4.722656 -2.113281 C 4.722656 -1.320312 4.742188 -0.816406 4.777344 -0.605469 C 4.8125 -0.394531 4.886719 -0.191406 4.996094 0 L 4.101562 0 C 4.011719 -0.175781 3.957031 -0.382812 3.929688 -0.621094 Z M 3.859375 -2.53125 C 3.550781 -2.402344 3.085938 -2.296875 2.464844 -2.207031 C 2.113281 -2.15625 1.863281 -2.101562 1.71875 -2.035156 C 1.574219 -1.972656 1.460938 -1.878906 1.382812 -1.757812 C 1.304688 -1.636719 1.261719 -1.5 1.261719 -1.351562 C 1.261719 -1.125 1.347656 -0.933594 1.523438 -0.785156 C 1.695312 -0.632812 1.945312 -0.554688 2.277344 -0.554688 C 2.609375 -0.554688 2.902344 -0.628906 3.15625 -0.769531 C 3.414062 -0.914062 3.601562 -1.113281 3.722656 -1.363281 C 3.8125 -1.554688 3.859375 -1.839844 3.859375 -2.21875 Z "/>
</g>
<g id="glyph-0-19">
<path d="M 1.058594 -5.042969 L 5.027344 -5.042969 L 5.027344 0 L 4.175781 0 L 4.175781 -4.335938 L 1.914062 -4.335938 L 1.914062 -1.824219 C 1.914062 -1.238281 1.894531 -0.851562 1.855469 -0.664062 C 1.816406 -0.476562 1.714844 -0.316406 1.542969 -0.175781 C 1.371094 -0.0351562 1.125 0.0351562 0.800781 0.0351562 C 0.601562 0.0351562 0.375 0.0195312 0.113281 -0.00390625 L 0.113281 -0.71875 L 0.488281 -0.71875 C 0.664062 -0.71875 0.792969 -0.734375 0.867188 -0.769531 C 0.945312 -0.808594 0.996094 -0.867188 1.019531 -0.945312 C 1.046875 -1.023438 1.058594 -1.28125 1.058594 -1.71875 Z "/>
</g>
<g id="glyph-0-20">
<path d="M 4.335938 -7.125 L 5.089844 -7.117188 C 5.054688 -6.777344 4.980469 -6.542969 4.863281 -6.410156 C 4.746094 -6.277344 4.597656 -6.191406 4.417969 -6.152344 C 4.234375 -6.113281 3.878906 -6.09375 3.347656 -6.09375 C 2.640625 -6.09375 2.160156 -6.027344 1.902344 -5.890625 C 1.648438 -5.753906 1.464844 -5.539062 1.351562 -5.238281 C 1.238281 -4.941406 1.175781 -4.554688 1.164062 -4.082031 C 1.378906 -4.402344 1.628906 -4.640625 1.917969 -4.800781 C 2.207031 -4.960938 2.53125 -5.042969 2.890625 -5.042969 C 3.550781 -5.042969 4.101562 -4.816406 4.535156 -4.359375 C 4.96875 -3.90625 5.183594 -3.292969 5.183594 -2.515625 C 5.183594 -1.925781 5.074219 -1.445312 4.855469 -1.066406 C 4.636719 -0.691406 4.378906 -0.398438 4.082031 -0.195312 C 3.78125 0.0117188 3.375 0.113281 2.859375 0.113281 C 2.261719 0.113281 1.792969 -0.0234375 1.460938 -0.296875 C 1.128906 -0.570312 0.875 -0.921875 0.699219 -1.347656 C 0.519531 -1.773438 0.433594 -2.519531 0.433594 -3.578125 C 0.433594 -4.910156 0.65625 -5.808594 1.109375 -6.269531 C 1.558594 -6.734375 2.253906 -6.964844 3.191406 -6.964844 C 3.773438 -6.964844 4.101562 -6.972656 4.183594 -6.992188 C 4.261719 -7.011719 4.3125 -7.054688 4.335938 -7.125 Z M 4.292969 -2.539062 C 4.292969 -3.066406 4.167969 -3.496094 3.917969 -3.832031 C 3.671875 -4.167969 3.320312 -4.335938 2.867188 -4.335938 C 2.394531 -4.335938 2.03125 -4.15625 1.777344 -3.800781 C 1.519531 -3.449219 1.390625 -2.976562 1.390625 -2.382812 C 1.390625 -1.796875 1.53125 -1.351562 1.816406 -1.039062 C 2.097656 -0.730469 2.449219 -0.574219 2.863281 -0.574219 C 3.285156 -0.574219 3.632812 -0.753906 3.894531 -1.113281 C 4.160156 -1.472656 4.292969 -1.949219 4.292969 -2.539062 Z "/>
</g>
</g>
<image id="source-8" x="0" y="0" width="0" height="0"/>
<mask id="mask-0">
<use xlink:href="#source-8"/>
</mask>
</defs>
<g fill="rgb(29.019608%, 67.058824%, 85.882353%)" fill-opacity="1">
<use xlink:href="#glyph-0-0" x="30" y="28.801758"/>
<use xlink:href="#glyph-0-1" x="36" y="28.801758"/>
<use xlink:href="#glyph-0-2" x="39" y="28.801758"/>
<use xlink:href="#glyph-0-3" x="42" y="28.801758"/>
</g>
<g fill="rgb(29.019608%, 67.058824%, 85.882353%)" fill-opacity="1">
<use xlink:href="#glyph-0-4" x="45" y="28.801758"/>
<use xlink:href="#glyph-0-5" x="51" y="28.801758"/>
<use xlink:href="#glyph-0-6" x="56" y="28.801758"/>
<use xlink:href="#glyph-0-7" x="62" y="28.801758"/>
<use xlink:href="#glyph-0-8" x="69" y="28.801758"/>
<use xlink:href="#glyph-0-3" x="74" y="28.801758"/>
<use xlink:href="#glyph-0-9" x="77" y="28.801758"/>
<use xlink:href="#glyph-0-10" x="82" y="28.801758"/>
<use xlink:href="#glyph-0-9" x="87" y="28.801758"/>
<use xlink:href="#glyph-0-8" x="92" y="28.801758"/>
<use xlink:href="#glyph-0-6" x="97" y="28.801758"/>
<use xlink:href="#glyph-0-11" x="103" y="28.801758"/>
<use xlink:href="#glyph-0-3" x="108" y="28.801758"/>
<use xlink:href="#glyph-0-10" x="111" y="28.801758"/>
<use xlink:href="#glyph-0-12" x="116" y="28.801758"/>
<use xlink:href="#glyph-0-13" x="121" y="28.801758"/>
<use xlink:href="#glyph-0-3" x="126" y="28.801758"/>
<use xlink:href="#glyph-0-14" x="129" y="28.801758"/>
<use xlink:href="#glyph-0-15" x="133" y="28.801758"/>
<use xlink:href="#glyph-0-9" x="138" y="28.801758"/>
<use xlink:href="#glyph-0-16" x="143" y="28.801758"/>
<use xlink:href="#glyph-0-17" x="148" y="28.801758"/>
<use xlink:href="#glyph-0-18" x="152" y="28.801758"/>
<use xlink:href="#glyph-0-19" x="157" y="28.801758"/>
<use xlink:href="#glyph-0-19" x="163" y="28.801758"/>
<use xlink:href="#glyph-0-3" x="169" y="28.801758"/>
<use xlink:href="#glyph-0-20" x="172" y="28.801758"/>
<use xlink:href="#glyph-0-18" x="177" y="28.801758"/>
<use xlink:href="#glyph-0-15" x="182" y="28.801758"/>
</g>
</svg>
