<?xml version="1.0" encoding="UTF-8"?>
<svg xmlns="http://www.w3.org/2000/svg" xmlns:xlink="http://www.w3.org/1999/xlink" width="1080" height="1920" viewBox="0 0 1080 1920">
<defs>
<g>
<g id="glyph-0-0">
<path d="M 2.164062 -4.695312 L 0.261719 -4.695312 L 0.261719 -5.519531 L 5.015625 -5.519531 L 5.015625 -4.695312 L 3.113281 -4.695312 L 3.113281 0 L 2.164062 0 Z "/>
</g>
<g id="glyph-0-1">
<path d="M 4.550781 -2.769531 C 4.550781 -3.074219 4.515625 -3.355469 4.449219 -3.609375 C 4.378906 -3.867188 4.277344 -4.085938 4.140625 -4.273438 C 4 -4.457031 3.832031 -4.601562 3.632812 -4.707031 C 3.429688 -4.8125 3.199219 -4.867188 2.933594 -4.867188 C 2.667969 -4.867188 2.4375 -4.8125 2.238281 -4.707031 C 2.039062 -4.601562 1.871094 -4.457031 1.730469 -4.273438 C 1.59375 -4.085938 1.492188 -3.867188 1.421875 -3.609375 C 1.355469 -3.355469 1.320312 -3.074219 1.320312 -2.769531 C 1.320312 -2.460938 1.355469 -2.175781 1.421875 -1.914062 C 1.492188 -1.65625 1.59375 -1.433594 1.730469 -1.246094 C 1.867188 -1.0625 2.039062 -0.917969 2.238281 -0.8125 C 2.4375 -0.707031 2.667969 -0.65625 2.933594 -0.65625 C 3.199219 -0.65625 3.429688 -0.707031 3.632812 -0.8125 C 3.832031 -0.917969 4 -1.0625 4.140625 -1.246094 C 4.277344 -1.433594 4.378906 -1.65625 4.449219 -1.914062 C 4.515625 -2.175781 4.550781 -2.457031 4.550781 -2.769531 Z M 5.5 -2.769531 C 5.5 -2.316406 5.441406 -1.90625 5.324219 -1.542969 C 5.207031 -1.179688 5.039062 -0.871094 4.820312 -0.617188 C 4.597656 -0.363281 4.332031 -0.167969 4.011719 -0.0351562 C 3.695312 0.101562 3.335938 0.171875 2.933594 0.171875 C 2.53125 0.171875 2.171875 0.101562 1.855469 -0.0351562 C 1.539062 -0.167969 1.269531 -0.363281 1.050781 -0.617188 C 0.832031 -0.871094 0.664062 -1.179688 0.546875 -1.542969 C 0.429688 -1.90625 0.371094 -2.3125 0.371094 -2.769531 C 0.371094 -3.214844 0.429688 -3.617188 0.546875 -3.980469 C 0.664062 -4.339844 0.832031 -4.648438 1.050781 -4.902344 C 1.269531 -5.15625 1.539062 -5.351562 1.855469 -5.488281 C 2.171875 -5.621094 2.53125 -5.691406 2.933594 -5.691406 C 3.335938 -5.691406 3.695312 -5.621094 4.011719 -5.488281 C 4.328125 -5.351562 4.597656 -5.15625 4.820312 -4.902344 C 5.039062 -4.648438 5.207031 -4.339844 5.324219 -3.980469 C 5.441406 -3.617188 5.5 -3.214844 5.5 -2.769531 Z "/>
</g>
<g id="glyph-0-2">
<path d="M 0.695312 -5.519531 L 1.644531 -5.519531 L 1.644531 -2.851562 L 4.433594 -5.519531 L 5.675781 -5.519531 L 3.082031 -3.082031 L 5.714844 0 L 4.496094 0 L 2.339844 -2.503906 L 1.644531 -1.921875 L 1.644531 0 L 0.695312 0 Z "/>
</g>
<g id="glyph-0-3">
<path d="M 5.394531 -1.761719 C 5.359375 -1.523438 5.277344 -1.285156 5.148438 -1.054688 C 5.023438 -0.824219 4.855469 -0.621094 4.648438 -0.4375 C 4.441406 -0.253906 4.199219 -0.109375 3.917969 0.00390625 C 3.640625 0.113281 3.328125 0.171875 2.988281 0.171875 C 2.617188 0.171875 2.277344 0.109375 1.960938 -0.0117188 C 1.648438 -0.132812 1.375 -0.320312 1.148438 -0.5625 C 0.917969 -0.808594 0.738281 -1.117188 0.609375 -1.488281 C 0.476562 -1.859375 0.414062 -2.296875 0.414062 -2.796875 C 0.414062 -3.136719 0.449219 -3.441406 0.523438 -3.714844 C 0.597656 -3.988281 0.695312 -4.230469 0.820312 -4.445312 C 0.945312 -4.660156 1.09375 -4.847656 1.257812 -5.003906 C 1.421875 -5.160156 1.597656 -5.289062 1.78125 -5.386719 C 1.964844 -5.488281 2.152344 -5.566406 2.34375 -5.617188 C 2.535156 -5.664062 2.722656 -5.691406 2.902344 -5.691406 C 3.28125 -5.691406 3.625 -5.632812 3.9375 -5.519531 C 4.25 -5.40625 4.519531 -5.234375 4.746094 -5.003906 C 4.96875 -4.769531 5.144531 -4.480469 5.269531 -4.132812 C 5.394531 -3.78125 5.457031 -3.371094 5.457031 -2.902344 L 5.457031 -2.425781 L 1.421875 -2.425781 C 1.425781 -2.160156 1.464844 -1.917969 1.535156 -1.699219 C 1.609375 -1.480469 1.710938 -1.292969 1.84375 -1.140625 C 1.980469 -0.984375 2.140625 -0.863281 2.332031 -0.78125 C 2.523438 -0.695312 2.738281 -0.65625 2.980469 -0.65625 C 3.222656 -0.65625 3.429688 -0.6875 3.597656 -0.757812 C 3.765625 -0.828125 3.90625 -0.914062 4.019531 -1.019531 C 4.132812 -1.125 4.226562 -1.246094 4.296875 -1.375 C 4.367188 -1.507812 4.425781 -1.636719 4.472656 -1.761719 Z M 4.503906 -3.183594 C 4.496094 -3.453125 4.457031 -3.691406 4.382812 -3.902344 C 4.308594 -4.113281 4.207031 -4.289062 4.074219 -4.429688 C 3.941406 -4.574219 3.78125 -4.679688 3.597656 -4.753906 C 3.410156 -4.828125 3.207031 -4.867188 2.980469 -4.867188 C 2.761719 -4.867188 2.5625 -4.824219 2.382812 -4.738281 C 2.199219 -4.65625 2.039062 -4.539062 1.902344 -4.390625 C 1.765625 -4.238281 1.65625 -4.0625 1.570312 -3.859375 C 1.488281 -3.652344 1.441406 -3.429688 1.421875 -3.183594 Z "/>
</g>
<g id="glyph-0-4">
<path d="M 0.695312 -5.519531 L 1.644531 -5.519531 L 1.644531 -3.292969 L 4.222656 -3.292969 L 4.222656 -5.519531 L 5.175781 -5.519531 L 5.175781 0 L 4.222656 0 L 4.222656 -2.46875 L 1.644531 -2.46875 L 1.644531 0 L 0.695312 0 Z "/>
</g>
<g id="glyph-0-5">
<rect x="0" y="0" width="0" height="0" mask="url(#mask-0)"/>
</g>
<g id="glyph-0-6">
<path d="M 0.695312 -5.519531 L 3.046875 -5.519531 C 3.71875 -5.519531 4.222656 -5.394531 4.558594 -5.144531 C 4.894531 -4.894531 5.0625 -4.527344 5.0625 -4.050781 C 5.0625 -3.796875 5 -3.582031 4.875 -3.40625 C 4.75 -3.230469 4.589844 -3.078125 4.386719 -2.941406 C 4.679688 -2.832031 4.910156 -2.675781 5.082031 -2.46875 C 5.253906 -2.261719 5.339844 -1.996094 5.339844 -1.671875 C 5.339844 -1.414062 5.296875 -1.179688 5.210938 -0.972656 C 5.125 -0.765625 4.996094 -0.59375 4.820312 -0.449219 C 4.644531 -0.304688 4.421875 -0.191406 4.152344 -0.117188 C 3.882812 -0.0390625 3.5625 0 3.195312 0 L 0.695312 0 Z M 1.644531 -0.757812 L 3.085938 -0.757812 C 3.335938 -0.757812 3.546875 -0.777344 3.714844 -0.816406 C 3.878906 -0.855469 4.011719 -0.914062 4.113281 -0.988281 C 4.210938 -1.066406 4.28125 -1.15625 4.324219 -1.261719 C 4.367188 -1.367188 4.386719 -1.488281 4.386719 -1.625 C 4.386719 -1.757812 4.367188 -1.878906 4.324219 -1.988281 C 4.28125 -2.09375 4.210938 -2.1875 4.113281 -2.261719 C 4.011719 -2.335938 3.878906 -2.390625 3.714844 -2.429688 C 3.546875 -2.46875 3.339844 -2.488281 3.085938 -2.488281 L 1.644531 -2.488281 Z M 1.644531 -3.183594 L 3.078125 -3.183594 C 3.398438 -3.183594 3.648438 -3.25 3.835938 -3.375 C 4.019531 -3.503906 4.113281 -3.699219 4.113281 -3.96875 C 4.113281 -4.121094 4.085938 -4.246094 4.035156 -4.347656 C 3.984375 -4.449219 3.914062 -4.53125 3.828125 -4.59375 C 3.742188 -4.65625 3.648438 -4.699219 3.539062 -4.722656 C 3.429688 -4.75 3.320312 -4.761719 3.207031 -4.761719 L 1.644531 -4.761719 Z "/>
</g>
<g id="glyph-0-7">
<path d="M 0.644531 -5.519531 L 1.59375 -5.519531 L 1.59375 -4.761719 L 1.613281 -4.761719 C 1.675781 -4.890625 1.753906 -5.011719 1.847656 -5.125 C 1.941406 -5.238281 2.054688 -5.335938 2.1875 -5.417969 C 2.320312 -5.503906 2.472656 -5.570312 2.648438 -5.617188 C 2.820312 -5.664062 3.019531 -5.691406 3.242188 -5.691406 C 3.539062 -5.691406 3.820312 -5.632812 4.09375 -5.519531 C 4.363281 -5.40625 4.605469 -5.238281 4.8125 -5.011719 C 5.023438 -4.785156 5.191406 -4.5 5.3125 -4.15625 C 5.4375 -3.816406 5.5 -3.417969 5.5 -2.964844 C 5.5 -2.398438 5.441406 -1.914062 5.328125 -1.519531 C 5.210938 -1.121094 5.046875 -0.796875 4.835938 -0.546875 C 4.625 -0.296875 4.371094 -0.113281 4.070312 0 C 3.773438 0.113281 3.441406 0.171875 3.070312 0.171875 C 2.890625 0.171875 2.71875 0.144531 2.5625 0.0976562 C 2.402344 0.0507812 2.261719 -0.0117188 2.136719 -0.0898438 C 2.011719 -0.167969 1.902344 -0.253906 1.8125 -0.347656 C 1.722656 -0.441406 1.65625 -0.535156 1.613281 -0.625 L 1.59375 -0.625 L 1.59375 2.175781 L 0.644531 2.175781 Z M 1.570312 -2.730469 C 1.570312 -2.433594 1.601562 -2.15625 1.660156 -1.90625 C 1.71875 -1.652344 1.808594 -1.433594 1.929688 -1.246094 C 2.050781 -1.0625 2.207031 -0.917969 2.390625 -0.8125 C 2.574219 -0.707031 2.789062 -0.65625 3.039062 -0.65625 C 3.300781 -0.65625 3.527344 -0.707031 3.71875 -0.8125 C 3.910156 -0.917969 4.066406 -1.0625 4.191406 -1.246094 C 4.3125 -1.433594 4.40625 -1.652344 4.464844 -1.90625 C 4.523438 -2.15625 4.550781 -2.433594 4.550781 -2.730469 C 4.550781 -3.042969 4.523438 -3.332031 4.464844 -3.59375 C 4.40625 -3.855469 4.3125 -4.078125 4.191406 -4.269531 C 4.066406 -4.457031 3.910156 -4.601562 3.71875 -4.707031 C 3.527344 -4.8125 3.300781 -4.867188 3.039062 -4.867188 C 2.789062 -4.867188 2.574219 -4.8125 2.390625 -4.707031 C 2.207031 -4.601562 2.050781 -4.457031 1.929688 -4.269531 C 1.808594 -4.078125 1.71875 -3.855469 1.660156 -3.59375 C 1.601562 -3.332031 1.570312 -3.042969 1.570312 -2.730469 Z "/>
</g>
<g id="glyph-0-8">
<path d="M 1.742188 -5.433594 L 1.742188 -7.101562 L 0.5625 -5.433594 Z M 1.753906 -4.125 L 1.753906 -5.023438 L 0.132812 -5.023438 L 0.132812 -5.480469 L 1.824219 -7.824219 L 2.214844 -7.824219 L 2.214844 -5.433594 L 2.757812 -5.433594 L 2.757812 -5.023438 L 2.214844 -5.023438 L 2.214844 -4.125 Z "/>
</g>
<g id="glyph-0-9">
<path d="M 2.464844 -7.226562 C 2.628906 -6.921875 2.710938 -6.503906 2.710938 -5.972656 C 2.710938 -5.472656 2.636719 -5.058594 2.488281 -4.730469 C 2.273438 -4.261719 1.917969 -4.023438 1.425781 -4.023438 C 0.984375 -4.023438 0.65625 -4.21875 0.4375 -4.601562 C 0.253906 -4.921875 0.164062 -5.351562 0.164062 -5.894531 C 0.164062 -6.316406 0.21875 -6.675781 0.328125 -6.972656 C 0.53125 -7.535156 0.898438 -7.8125 1.425781 -7.8125 C 1.90625 -7.8125 2.25 -7.617188 2.464844 -7.226562 Z M 2.210938 -5.957031 C 2.210938 -6.378906 2.160156 -6.722656 2.054688 -6.992188 C 1.953125 -7.261719 1.753906 -7.394531 1.457031 -7.394531 C 1.183594 -7.394531 0.984375 -7.269531 0.859375 -7.011719 C 0.734375 -6.757812 0.671875 -6.378906 0.671875 -5.875 C 0.671875 -5.5 0.710938 -5.199219 0.789062 -4.96875 C 0.914062 -4.621094 1.125 -4.449219 1.421875 -4.449219 C 1.664062 -4.449219 1.855469 -4.554688 1.996094 -4.765625 C 2.140625 -4.980469 2.210938 -5.378906 2.210938 -5.957031 Z "/>
</g>
<g id="glyph-0-10">
<path d="M 0.699219 -5.015625 C 0.714844 -4.757812 0.8125 -4.582031 0.996094 -4.484375 C 1.089844 -4.433594 1.199219 -4.40625 1.3125 -4.40625 C 1.535156 -4.40625 1.726562 -4.5 1.882812 -4.683594 C 2.039062 -4.867188 2.152344 -5.242188 2.214844 -5.808594 C 2.113281 -5.644531 1.984375 -5.527344 1.832031 -5.464844 C 1.679688 -5.398438 1.515625 -5.367188 1.339844 -5.367188 C 0.984375 -5.367188 0.707031 -5.476562 0.496094 -5.699219 C 0.289062 -5.921875 0.1875 -6.203125 0.1875 -6.550781 C 0.1875 -6.886719 0.289062 -7.183594 0.492188 -7.4375 C 0.695312 -7.691406 1 -7.820312 1.398438 -7.820312 C 1.9375 -7.820312 2.308594 -7.578125 2.511719 -7.09375 C 2.625 -6.824219 2.679688 -6.492188 2.679688 -6.09375 C 2.679688 -5.640625 2.613281 -5.238281 2.480469 -4.890625 C 2.253906 -4.308594 1.871094 -4.019531 1.335938 -4.019531 C 0.972656 -4.019531 0.699219 -4.113281 0.511719 -4.304688 C 0.324219 -4.492188 0.230469 -4.730469 0.230469 -5.015625 Z M 2.132812 -6.585938 C 2.132812 -6.859375 2.066406 -7.0625 1.929688 -7.195312 C 1.792969 -7.328125 1.621094 -7.394531 1.40625 -7.394531 C 1.179688 -7.394531 1 -7.320312 0.867188 -7.167969 C 0.734375 -7.015625 0.671875 -6.808594 0.671875 -6.554688 C 0.671875 -6.316406 0.726562 -6.125 0.84375 -5.984375 C 0.960938 -5.84375 1.148438 -5.773438 1.402344 -5.773438 C 1.585938 -5.773438 1.753906 -5.832031 1.90625 -5.953125 C 2.058594 -6.074219 2.132812 -6.285156 2.132812 -6.585938 Z "/>
</g>
<g id="glyph-0-11">
<path d="M 2.648438 -6.851562 L 2.191406 -6.851562 C 2.164062 -6.996094 2.121094 -7.109375 2.0625 -7.191406 C 1.949219 -7.34375 1.777344 -7.421875 1.550781 -7.421875 C 1.292969 -7.421875 1.089844 -7.300781 0.933594 -7.0625 C 0.78125 -6.824219 0.699219 -6.480469 0.679688 -6.035156 C 0.785156 -6.191406 0.921875 -6.308594 1.082031 -6.386719 C 1.230469 -6.453125 1.394531 -6.488281 1.578125 -6.488281 C 1.886719 -6.488281 2.15625 -6.390625 2.386719 -6.191406 C 2.617188 -5.996094 2.730469 -5.699219 2.730469 -5.308594 C 2.730469 -4.972656 2.621094 -4.675781 2.40625 -4.417969 C 2.1875 -4.160156 1.875 -4.03125 1.46875 -4.03125 C 1.125 -4.03125 0.828125 -4.160156 0.578125 -4.421875 C 0.328125 -4.683594 0.199219 -5.125 0.199219 -5.746094 C 0.199219 -6.203125 0.257812 -6.59375 0.367188 -6.910156 C 0.582031 -7.523438 0.976562 -7.828125 1.546875 -7.828125 C 1.957031 -7.828125 2.246094 -7.722656 2.40625 -7.507812 C 2.566406 -7.296875 2.648438 -7.078125 2.648438 -6.851562 Z M 2.242188 -5.265625 C 2.242188 -5.457031 2.1875 -5.636719 2.078125 -5.808594 C 1.972656 -5.980469 1.773438 -6.066406 1.488281 -6.066406 C 1.289062 -6.066406 1.113281 -6 0.964844 -5.867188 C 0.8125 -5.734375 0.738281 -5.535156 0.738281 -5.265625 C 0.738281 -5.035156 0.804688 -4.839844 0.941406 -4.679688 C 1.078125 -4.523438 1.269531 -4.441406 1.511719 -4.441406 C 1.753906 -4.441406 1.9375 -4.523438 2.058594 -4.6875 C 2.179688 -4.851562 2.242188 -5.042969 2.242188 -5.265625 Z "/>
</g>
<g id="glyph-1-0">
<path d="M 9.472656 -3.8125 L 7.246094 -6.039062 L 7.246094 -4.195312 L 1.207031 -4.195312 L 1.207031 -3.433594 L 7.246094 -3.433594 L 7.246094 -1.585938 Z "/>
</g>
<g id="glyph-2-0">
<path d="M 6.3125 -0.886719 L 3.621094 -0.886719 C 2.671875 -0.886719 2.132812 -1.046875 1.710938 -1.4375 C 1.394531 -1.730469 1.222656 -2.089844 1.183594 -2.554688 L 6.3125 -2.554688 L 6.3125 -3.261719 L 1.183594 -3.261719 C 1.234375 -3.746094 1.394531 -4.054688 1.730469 -4.359375 C 2.195312 -4.78125 2.691406 -4.929688 3.589844 -4.929688 L 6.3125 -4.929688 L 6.3125 -5.636719 L 3.429688 -5.636719 C 2.460938 -5.636719 1.804688 -5.40625 1.222656 -4.855469 C 0.71875 -4.359375 0.433594 -3.664062 0.433594 -2.902344 C 0.433594 -1.742188 1.035156 -0.78125 2.015625 -0.378906 C 2.386719 -0.230469 2.796875 -0.179688 3.484375 -0.179688 L 6.3125 -0.179688 Z "/>
</g>
<g id="glyph-2-1">
<rect x="0" y="0" width="0" height="0" mask="url(#mask-1)"/>
</g>
<g id="glyph-3-0">
<path d="M 4.894531 -1.972656 C 4.671875 -2.492188 4.460938 -2.835938 4.261719 -3 C 4.0625 -3.167969 3.789062 -3.253906 3.4375 -3.253906 L 3.242188 -3.253906 C 3.464844 -3.089844 3.726562 -2.664062 4.019531 -1.972656 L 4.644531 -0.515625 L 5.515625 -0.515625 Z M 4.359375 -3.5625 C 4.515625 -3.476562 4.675781 -3.320312 4.839844 -3.09375 C 5.003906 -2.867188 5.179688 -2.535156 5.359375 -2.101562 L 6.253906 0 L 4.328125 0 L 3.496094 -1.972656 C 3.277344 -2.488281 3.070312 -2.832031 2.867188 -3 C 2.664062 -3.167969 2.386719 -3.253906 2.035156 -3.253906 L 1.949219 -3.253906 L 1.949219 0 L 0.191406 0 L 0.191406 -7.695312 L 3.164062 -7.695312 C 3.910156 -7.695312 4.46875 -7.511719 4.835938 -7.144531 C 5.203125 -6.777344 5.386719 -6.222656 5.386719 -5.480469 C 5.386719 -4.765625 5.214844 -4.238281 4.871094 -3.902344 C 4.730469 -3.761719 4.558594 -3.648438 4.359375 -3.5625 Z M 1.949219 -7.179688 L 1.949219 -3.769531 L 3.371094 -3.769531 C 3.441406 -3.769531 3.511719 -3.769531 3.578125 -3.777344 L 3.578125 -7.167969 C 3.511719 -7.175781 3.441406 -7.179688 3.371094 -7.179688 Z M 4.035156 -7.0625 L 4.035156 -3.890625 C 4.222656 -3.964844 4.382812 -4.074219 4.511719 -4.214844 C 4.773438 -4.511719 4.902344 -4.933594 4.902344 -5.480469 C 4.902344 -6.027344 4.773438 -6.445312 4.515625 -6.738281 C 4.390625 -6.878906 4.230469 -6.984375 4.035156 -7.0625 Z M 0.628906 -7.179688 L 0.628906 -0.515625 L 1.515625 -0.515625 L 1.515625 -7.179688 Z "/>
</g>
</g>
<image id="source-17" x="0" y="0" width="0" height="0"/>
<mask id="mask-0">
<use xlink:href="#source-17"/>
</mask>
<image id="source-219" x="0" y="0" width="0" height="0"/>
<mask id="mask-1">
<use xlink:href="#source-219"/>
</mask>
</defs>
<g fill="rgb(53.333333%, 53.333333%, 53.333333%)" fill-opacity="1">
<use xlink:href="#glyph-0-0" x="30" y="30.205078"/>
<use xlink:href="#glyph-0-1" x="35" y="30.205078"/>
<use xlink:href="#glyph-0-2" x="41" y="30.205078"/>
<use xlink:href="#glyph-0-3" x="47" y="30.205078"/>
<use xlink:href="#glyph-0-4" x="53" y="30.205078"/>
<use xlink:href="#glyph-0-5" x="59" y="30.205078"/>
</g>
<g fill="rgb(53.333333%, 53.333333%, 53.333333%)" fill-opacity="1">
<use xlink:href="#glyph-1-0" x="62" y="30.205078"/>
</g>
<g fill="rgb(53.333333%, 53.333333%, 53.333333%)" fill-opacity="1">
<use xlink:href="#glyph-0-5" x="73" y="30.205078"/>
<use xlink:href="#glyph-0-6" x="76" y="30.205078"/>
<use xlink:href="#glyph-0-3" x="82" y="30.205078"/>
<use xlink:href="#glyph-0-2" x="88" y="30.205078"/>
<use xlink:href="#glyph-0-0" x="94" y="30.205078"/>
<use xlink:href="#glyph-0-1" x="99" y="30.205078"/>
<use xlink:href="#glyph-0-7" x="105" y="30.205078"/>
<use xlink:href="#glyph-0-5" x="111" y="30.205078"/>
</g>
<g fill="rgb(53.333333%, 53.333333%, 53.333333%)" fill-opacity="1">
<use xlink:href="#glyph-2-0" x="114" y="30.205078"/>
<use xlink:href="#glyph-2-1" x="121" y="30.205078"/>
</g>
<g fill="rgb(53.333333%, 53.333333%, 53.333333%)" fill-opacity="1">
<use xlink:href="#glyph-3-0" x="125" y="30.205078"/>
</g>
<g fill="rgb(53.333333%, 53.333333%, 53.333333%)" fill-opacity="1">
<use xlink:href="#glyph-0-8" x="131" y="30.205078"/>
<use xlink:href="#glyph-0-9" x="134" y="30.205078"/>
<use xlink:href="#glyph-0-10" x="137" y="30.205078"/>
<use xlink:href="#glyph-0-11" x="140" y="30.205078"/>
</g>
</svg>
