<?xml version="1.0" encoding="UTF-8"?>
<svg xmlns="http://www.w3.org/2000/svg" xmlns:xlink="http://www.w3.org/1999/xlink" width="1080" height="1920" viewBox="0 0 1080 1920">
<defs>
<g>
<g id="glyph-0-0">
<path d="M 0.078125 -0.121094 C 0.316406 -0.152344 0.472656 -0.210938 0.542969 -0.296875 C 0.617188 -0.382812 0.65625 -0.585938 0.65625 -0.902344 L 0.65625 -5.070312 C 0.65625 -5.230469 0.632812 -5.351562 0.59375 -5.429688 C 0.550781 -5.503906 0.449219 -5.542969 0.285156 -5.542969 C 0.253906 -5.542969 0.222656 -5.539062 0.191406 -5.535156 C 0.164062 -5.53125 0.128906 -5.527344 0.0898438 -5.519531 L 0.0898438 -5.675781 C 0.21875 -5.714844 0.375 -5.761719 0.5625 -5.8125 C 0.75 -5.867188 0.878906 -5.90625 0.949219 -5.929688 L 1.367188 -6.058594 L 1.375 -6.027344 L 1.375 -3.363281 C 1.558594 -3.570312 1.71875 -3.726562 1.863281 -3.824219 C 2.117188 -3.996094 2.390625 -4.085938 2.6875 -4.085938 C 3.15625 -4.085938 3.476562 -3.886719 3.644531 -3.496094 C 3.738281 -3.285156 3.785156 -3.011719 3.785156 -2.675781 L 3.785156 -0.902344 C 3.785156 -0.597656 3.820312 -0.394531 3.890625 -0.304688 C 3.960938 -0.210938 4.109375 -0.152344 4.328125 -0.121094 L 4.328125 0 L 2.449219 0 L 2.449219 -0.121094 C 2.699219 -0.15625 2.863281 -0.214844 2.933594 -0.300781 C 3.007812 -0.382812 3.042969 -0.585938 3.042969 -0.902344 L 3.042969 -2.660156 C 3.042969 -2.941406 2.996094 -3.167969 2.902344 -3.34375 C 2.808594 -3.515625 2.628906 -3.601562 2.371094 -3.601562 C 2.144531 -3.601562 1.925781 -3.523438 1.714844 -3.359375 C 1.503906 -3.199219 1.398438 -3.09375 1.398438 -3.042969 L 1.398438 -0.902344 C 1.398438 -0.578125 1.433594 -0.375 1.511719 -0.296875 C 1.585938 -0.214844 1.746094 -0.15625 1.992188 -0.121094 L 1.992188 0 L 0.078125 0 Z "/>
</g>
<g id="glyph-0-1">
<path d="M 0.730469 -5.605469 C 0.730469 -5.730469 0.773438 -5.835938 0.859375 -5.925781 C 0.945312 -6.015625 1.054688 -6.058594 1.179688 -6.058594 C 1.304688 -6.058594 1.410156 -6.015625 1.5 -5.925781 C 1.589844 -5.839844 1.632812 -5.730469 1.632812 -5.605469 C 1.632812 -5.480469 1.589844 -5.371094 1.5 -5.285156 C 1.410156 -5.195312 1.304688 -5.152344 1.179688 -5.152344 C 1.054688 -5.152344 0.945312 -5.195312 0.859375 -5.285156 C 0.773438 -5.375 0.730469 -5.480469 0.730469 -5.605469 Z M 0.171875 -0.121094 C 0.484375 -0.148438 0.679688 -0.203125 0.757812 -0.28125 C 0.839844 -0.355469 0.882812 -0.5625 0.882812 -0.902344 L 0.882812 -2.972656 C 0.882812 -3.160156 0.867188 -3.292969 0.84375 -3.363281 C 0.800781 -3.480469 0.707031 -3.542969 0.570312 -3.542969 C 0.539062 -3.542969 0.503906 -3.539062 0.476562 -3.535156 C 0.445312 -3.527344 0.355469 -3.503906 0.210938 -3.464844 L 0.210938 -3.597656 L 0.398438 -3.660156 C 0.90625 -3.824219 1.257812 -3.949219 1.457031 -4.03125 C 1.539062 -4.066406 1.589844 -4.085938 1.613281 -4.085938 C 1.621094 -4.066406 1.625 -4.042969 1.625 -4.019531 L 1.625 -0.902344 C 1.625 -0.574219 1.664062 -0.367188 1.742188 -0.28125 C 1.820312 -0.199219 2.003906 -0.144531 2.28125 -0.121094 L 2.28125 0 L 0.171875 0 Z "/>
</g>
<g id="glyph-0-2">
<path d="M 1.910156 -4.03125 L 1.910156 -3.898438 C 1.757812 -3.878906 1.652344 -3.855469 1.589844 -3.828125 C 1.527344 -3.800781 1.496094 -3.734375 1.496094 -3.636719 C 1.496094 -3.589844 1.503906 -3.546875 1.515625 -3.503906 C 1.53125 -3.460938 1.550781 -3.402344 1.585938 -3.320312 L 2.488281 -1.078125 L 3.269531 -3.066406 C 3.304688 -3.160156 3.339844 -3.261719 3.375 -3.363281 C 3.40625 -3.46875 3.425781 -3.546875 3.425781 -3.601562 C 3.425781 -3.714844 3.371094 -3.796875 3.265625 -3.847656 C 3.199219 -3.871094 3.113281 -3.890625 3.003906 -3.898438 L 3.003906 -4.03125 L 4.238281 -4.03125 L 4.238281 -3.898438 C 4.09375 -3.886719 3.992188 -3.839844 3.929688 -3.757812 C 3.867188 -3.675781 3.777344 -3.484375 3.660156 -3.1875 L 2.40625 -0.0625 C 2.382812 -0.0078125 2.363281 0.03125 2.347656 0.0507812 C 2.332031 0.0703125 2.3125 0.0820312 2.289062 0.0820312 C 2.257812 0.0820312 2.234375 0.0664062 2.214844 0.03125 C 2.195312 0 2.171875 -0.0429688 2.148438 -0.0898438 L 0.820312 -3.269531 C 0.714844 -3.527344 0.597656 -3.699219 0.476562 -3.792969 C 0.40625 -3.84375 0.300781 -3.878906 0.160156 -3.898438 L 0.160156 -4.03125 Z "/>
</g>
<g id="glyph-0-3">
<path d="M 2.035156 -4.070312 C 2.445312 -4.070312 2.800781 -3.929688 3.109375 -3.648438 C 3.414062 -3.367188 3.566406 -2.964844 3.566406 -2.449219 L 0.8125 -2.449219 C 0.839844 -1.777344 0.992188 -1.289062 1.265625 -0.980469 C 1.542969 -0.675781 1.867188 -0.519531 2.242188 -0.519531 C 2.546875 -0.519531 2.804688 -0.601562 3.011719 -0.757812 C 3.21875 -0.917969 3.414062 -1.144531 3.589844 -1.4375 L 3.742188 -1.382812 C 3.625 -1.015625 3.402344 -0.675781 3.074219 -0.363281 C 2.75 -0.0507812 2.351562 0.105469 1.878906 0.105469 C 1.335938 0.105469 0.914062 -0.101562 0.617188 -0.511719 C 0.320312 -0.921875 0.171875 -1.394531 0.171875 -1.929688 C 0.171875 -2.511719 0.347656 -3.015625 0.691406 -3.4375 C 1.035156 -3.859375 1.484375 -4.070312 2.035156 -4.070312 Z M 1.785156 -3.753906 C 1.453125 -3.753906 1.203125 -3.609375 1.027344 -3.316406 C 0.9375 -3.160156 0.871094 -2.964844 0.828125 -2.726562 L 2.660156 -2.726562 C 2.628906 -3.015625 2.574219 -3.230469 2.496094 -3.371094 C 2.355469 -3.625 2.117188 -3.753906 1.785156 -3.753906 Z "/>
</g>
</g>
</defs>
<g fill="rgb(100%, 100%, 100%)" fill-opacity="1">
<use xlink:href="#glyph-0-0" x="30" y="26.666992"/>
<use xlink:href="#glyph-0-1" x="34" y="26.666992"/>
<use xlink:href="#glyph-0-2" x="36" y="26.666992"/>
<use xlink:href="#glyph-0-3" x="40" y="26.666992"/>
</g>
</svg>
