<?xml version="1.0" encoding="UTF-8"?>
<svg xmlns="http://www.w3.org/2000/svg" xmlns:xlink="http://www.w3.org/1999/xlink" width="1080" height="1920" viewBox="0 0 1080 1920">
<defs>
<g>
<g id="glyph-0-0">
<path d="M 5.945312 -9.773438 L 6.980469 -9.757812 C 6.933594 -9.292969 6.828125 -8.972656 6.667969 -8.789062 C 6.511719 -8.605469 6.308594 -8.488281 6.058594 -8.4375 C 5.808594 -8.386719 5.320312 -8.359375 4.589844 -8.359375 C 3.621094 -8.359375 2.960938 -8.265625 2.609375 -8.078125 C 2.257812 -7.890625 2.007812 -7.59375 1.851562 -7.183594 C 1.699219 -6.773438 1.613281 -6.246094 1.59375 -5.597656 C 1.890625 -6.035156 2.234375 -6.367188 2.628906 -6.585938 C 3.023438 -6.804688 3.46875 -6.914062 3.964844 -6.914062 C 4.871094 -6.914062 5.621094 -6.601562 6.21875 -5.980469 C 6.8125 -5.355469 7.109375 -4.515625 7.109375 -3.449219 C 7.109375 -2.644531 6.960938 -1.980469 6.660156 -1.464844 C 6.359375 -0.949219 6.003906 -0.550781 5.59375 -0.265625 C 5.183594 0.015625 4.625 0.15625 3.917969 0.15625 C 3.097656 0.15625 2.460938 -0.03125 2.003906 -0.40625 C 1.550781 -0.78125 1.199219 -1.261719 0.957031 -1.847656 C 0.714844 -2.433594 0.59375 -3.453125 0.59375 -4.910156 C 0.59375 -6.738281 0.902344 -7.964844 1.519531 -8.601562 C 2.136719 -9.234375 3.089844 -9.550781 4.375 -9.550781 C 5.171875 -9.550781 5.628906 -9.5625 5.734375 -9.589844 C 5.84375 -9.617188 5.914062 -9.675781 5.945312 -9.773438 Z M 5.886719 -3.484375 C 5.886719 -4.203125 5.714844 -4.792969 5.375 -5.253906 C 5.035156 -5.714844 4.554688 -5.945312 3.933594 -5.945312 C 3.285156 -5.945312 2.785156 -5.699219 2.433594 -5.214844 C 2.082031 -4.730469 1.90625 -4.078125 1.90625 -3.269531 C 1.90625 -2.464844 2.101562 -1.851562 2.488281 -1.425781 C 2.878906 -1 3.355469 -0.789062 3.925781 -0.789062 C 4.507812 -0.789062 4.980469 -1.035156 5.339844 -1.527344 C 5.703125 -2.019531 5.886719 -2.671875 5.886719 -3.484375 Z "/>
</g>
<g id="glyph-0-1">
<path d="M 0.441406 -3.457031 C 0.441406 -4.738281 0.796875 -5.6875 1.511719 -6.300781 C 2.105469 -6.8125 2.828125 -7.070312 3.683594 -7.070312 C 4.636719 -7.070312 5.414062 -6.757812 6.015625 -6.136719 C 6.617188 -5.511719 6.921875 -4.652344 6.921875 -3.554688 C 6.921875 -2.664062 6.785156 -1.964844 6.519531 -1.453125 C 6.253906 -0.945312 5.863281 -0.550781 5.355469 -0.265625 C 4.84375 0.015625 4.289062 0.15625 3.683594 0.15625 C 2.714844 0.15625 1.933594 -0.152344 1.335938 -0.773438 C 0.742188 -1.394531 0.441406 -2.289062 0.441406 -3.457031 Z M 1.648438 -3.457031 C 1.648438 -2.570312 1.839844 -1.910156 2.226562 -1.46875 C 2.613281 -1.027344 3.097656 -0.808594 3.683594 -0.808594 C 4.265625 -0.808594 4.75 -1.027344 5.136719 -1.472656 C 5.523438 -1.914062 5.714844 -2.589844 5.714844 -3.496094 C 5.714844 -4.351562 5.523438 -5 5.132812 -5.4375 C 4.746094 -5.878906 4.261719 -6.101562 3.683594 -6.101562 C 3.097656 -6.101562 2.613281 -5.882812 2.226562 -5.441406 C 1.839844 -5.003906 1.648438 -4.34375 1.648438 -3.457031 Z "/>
</g>
<g id="glyph-0-2">
<path d="M 0.917969 -6.914062 L 2.089844 -6.914062 L 2.089844 -0.96875 L 4.757812 -0.96875 L 4.757812 -6.914062 L 5.929688 -6.914062 L 5.929688 -0.96875 L 8.605469 -0.96875 L 8.605469 -6.914062 L 9.773438 -6.914062 L 9.773438 0 L 0.917969 0 Z "/>
</g>
<g id="glyph-0-3">
<path d="M 0.246094 -6.914062 L 5.867188 -6.914062 L 5.867188 -5.945312 L 3.640625 -5.945312 L 3.640625 0 L 2.472656 0 L 2.472656 -5.945312 L 0.246094 -5.945312 Z "/>
</g>
<g id="glyph-0-4">
<path d="M 0.828125 2.664062 L 0.695312 1.5625 C 0.953125 1.632812 1.175781 1.667969 1.367188 1.667969 C 1.628906 1.667969 1.835938 1.625 1.992188 1.535156 C 2.148438 1.449219 2.277344 1.328125 2.375 1.171875 C 2.449219 1.054688 2.570312 0.765625 2.734375 0.300781 C 2.757812 0.234375 2.789062 0.140625 2.839844 0.0117188 L 0.214844 -6.914062 L 1.476562 -6.914062 L 2.917969 -2.910156 C 3.105469 -2.402344 3.269531 -1.867188 3.417969 -1.308594 C 3.550781 -1.847656 3.714844 -2.371094 3.898438 -2.882812 L 5.378906 -6.914062 L 6.550781 -6.914062 L 3.917969 0.117188 C 3.636719 0.875 3.417969 1.398438 3.261719 1.6875 C 3.054688 2.074219 2.816406 2.355469 2.546875 2.535156 C 2.277344 2.714844 1.957031 2.804688 1.582031 2.804688 C 1.355469 2.804688 1.105469 2.757812 0.828125 2.664062 Z "/>
</g>
<g id="glyph-0-5">
<path d="M 0.871094 -6.914062 L 2.042969 -6.914062 L 2.042969 -3.925781 C 2.417969 -3.925781 2.679688 -3.996094 2.828125 -4.140625 C 2.976562 -4.285156 3.199219 -4.699219 3.488281 -5.390625 C 3.71875 -5.9375 3.90625 -6.296875 4.050781 -6.472656 C 4.191406 -6.644531 4.359375 -6.761719 4.542969 -6.824219 C 4.730469 -6.882812 5.03125 -6.914062 5.441406 -6.914062 L 5.675781 -6.914062 L 5.675781 -5.945312 L 5.351562 -5.949219 C 5.042969 -5.949219 4.847656 -5.90625 4.757812 -5.8125 C 4.667969 -5.71875 4.527344 -5.433594 4.34375 -4.960938 C 4.164062 -4.507812 4 -4.195312 3.855469 -4.023438 C 3.707031 -3.851562 3.480469 -3.691406 3.171875 -3.546875 C 3.675781 -3.414062 4.167969 -2.945312 4.65625 -2.140625 L 5.9375 0 L 4.648438 0 L 3.398438 -2.140625 C 3.140625 -2.570312 2.917969 -2.855469 2.726562 -2.992188 C 2.535156 -3.128906 2.308594 -3.195312 2.042969 -3.195312 L 2.042969 0 L 0.871094 0 Z "/>
</g>
<g id="glyph-0-6">
<rect x="0" y="0" width="0" height="0" mask="url(#mask-0)"/>
</g>
<g id="glyph-0-7">
<path d="M 0.554688 -4.707031 C 0.554688 -5.835938 0.667969 -6.742188 0.902344 -7.429688 C 1.132812 -8.117188 1.480469 -8.648438 1.9375 -9.023438 C 2.394531 -9.398438 2.972656 -9.582031 3.664062 -9.582031 C 4.175781 -9.582031 4.625 -9.480469 5.011719 -9.273438 C 5.398438 -9.066406 5.71875 -8.769531 5.96875 -8.382812 C 6.222656 -7.992188 6.417969 -7.519531 6.5625 -6.960938 C 6.707031 -6.40625 6.777344 -5.652344 6.777344 -4.707031 C 6.777344 -3.585938 6.664062 -2.683594 6.433594 -1.996094 C 6.203125 -1.308594 5.859375 -0.777344 5.398438 -0.398438 C 4.941406 -0.0234375 4.363281 0.164062 3.664062 0.164062 C 2.746094 0.164062 2.023438 -0.167969 1.496094 -0.828125 C 0.867188 -1.621094 0.554688 -2.914062 0.554688 -4.707031 Z M 1.757812 -4.707031 C 1.757812 -3.140625 1.941406 -2.097656 2.308594 -1.578125 C 2.675781 -1.058594 3.128906 -0.800781 3.664062 -0.800781 C 4.203125 -0.800781 4.65625 -1.0625 5.023438 -1.582031 C 5.390625 -2.101562 5.574219 -3.144531 5.574219 -4.707031 C 5.574219 -6.277344 5.390625 -7.320312 5.023438 -7.839844 C 4.65625 -8.355469 4.199219 -8.613281 3.652344 -8.613281 C 3.113281 -8.613281 2.683594 -8.386719 2.363281 -7.929688 C 1.960938 -7.347656 1.757812 -6.273438 1.757812 -4.707031 Z "/>
</g>
<g id="glyph-0-8">
<path d="M 1.210938 0 L 1.210938 -1.335938 L 2.546875 -1.335938 L 2.546875 0 Z "/>
</g>
<g id="glyph-0-9">
<path d="M 4.96875 0 L 3.796875 0 L 3.796875 -7.46875 C 3.515625 -7.199219 3.144531 -6.929688 2.683594 -6.660156 C 2.226562 -6.390625 1.816406 -6.1875 1.453125 -6.054688 L 1.453125 -7.1875 C 2.109375 -7.496094 2.679688 -7.867188 3.171875 -8.308594 C 3.660156 -8.746094 4.007812 -9.171875 4.210938 -9.582031 L 4.96875 -9.582031 Z "/>
</g>
<g id="glyph-0-10">
<path d="M 0.554688 -2.5 L 1.785156 -2.605469 C 1.875 -2.003906 2.085938 -1.554688 2.417969 -1.253906 C 2.75 -0.953125 3.152344 -0.800781 3.621094 -0.800781 C 4.183594 -0.800781 4.660156 -1.011719 5.050781 -1.4375 C 5.441406 -1.863281 5.636719 -2.429688 5.636719 -3.132812 C 5.636719 -3.800781 5.449219 -4.328125 5.074219 -4.714844 C 4.699219 -5.101562 4.207031 -5.292969 3.601562 -5.292969 C 3.222656 -5.292969 2.882812 -5.207031 2.578125 -5.035156 C 2.273438 -4.863281 2.035156 -4.640625 1.863281 -4.367188 L 0.761719 -4.511719 L 1.6875 -9.414062 L 6.433594 -9.414062 L 6.433594 -8.292969 L 2.625 -8.292969 L 2.109375 -5.730469 C 2.683594 -6.128906 3.285156 -6.328125 3.914062 -6.328125 C 4.746094 -6.328125 5.449219 -6.039062 6.023438 -5.460938 C 6.59375 -4.882812 6.882812 -4.144531 6.882812 -3.234375 C 6.882812 -2.371094 6.628906 -1.625 6.125 -0.996094 C 5.515625 -0.222656 4.679688 0.164062 3.621094 0.164062 C 2.753906 0.164062 2.042969 -0.0820312 1.492188 -0.566406 C 0.945312 -1.050781 0.632812 -1.695312 0.554688 -2.5 Z "/>
</g>
</g>
<image id="source-126" x="0" y="0" width="0" height="0"/>
<mask id="mask-0">
<use xlink:href="#source-126"/>
</mask>
</defs>
<g fill="rgb(100%, 100%, 100%)" fill-opacity="1">
<use xlink:href="#glyph-0-0" x="30" y="32.070312"/>
<use xlink:href="#glyph-0-1" x="38" y="32.070312"/>
<use xlink:href="#glyph-0-2" x="45" y="32.070312"/>
<use xlink:href="#glyph-0-3" x="56" y="32.070312"/>
<use xlink:href="#glyph-0-4" x="62" y="32.070312"/>
<use xlink:href="#glyph-0-5" x="69" y="32.070312"/>
<use xlink:href="#glyph-0-6" x="75" y="32.070312"/>
<use xlink:href="#glyph-0-7" x="79" y="32.070312"/>
<use xlink:href="#glyph-0-8" x="86" y="32.070312"/>
<use xlink:href="#glyph-0-9" x="90" y="32.070312"/>
<use xlink:href="#glyph-0-10" x="97" y="32.070312"/>
</g>
</svg>
