<?xml version="1.0" encoding="UTF-8"?>
<svg xmlns="http://www.w3.org/2000/svg" xmlns:xlink="http://www.w3.org/1999/xlink" width="1080" height="1920" viewBox="0 0 1080 1920">
<defs>
<g>
<g id="glyph-0-0">
<path d="M 5.507812 -10.136719 L 9.164062 -1.757812 C 9.378906 -1.257812 9.546875 -0.933594 9.667969 -0.777344 C 9.90625 -0.460938 10.214844 -0.296875 10.589844 -0.285156 L 10.589844 0 L 6.765625 0 L 6.765625 -0.285156 C 7.476562 -0.324219 7.828125 -0.488281 7.828125 -0.777344 C 7.828125 -0.980469 7.703125 -1.375 7.457031 -1.960938 L 6.914062 -3.238281 L 2.988281 -3.238281 C 2.894531 -2.992188 2.804688 -2.769531 2.71875 -2.5625 C 2.355469 -1.714844 2.175781 -1.160156 2.175781 -0.902344 C 2.175781 -0.507812 2.515625 -0.300781 3.195312 -0.285156 L 3.195312 0 L 0.226562 0 L 0.226562 -0.285156 C 0.5625 -0.347656 0.824219 -0.476562 1.003906 -0.671875 C 1.265625 -0.957031 1.652344 -1.703125 2.160156 -2.90625 L 5.207031 -10.136719 Z M 3.238281 -3.851562 L 6.703125 -3.851562 L 4.964844 -7.984375 Z "/>
</g>
<g id="glyph-0-1">
<path d="M 4.25 -4.367188 C 4.234375 -5.148438 4.171875 -5.691406 4.066406 -6 C 3.945312 -6.351562 3.648438 -6.527344 3.179688 -6.527344 C 2.480469 -6.527344 2.132812 -6.304688 2.132812 -5.867188 C 2.132812 -5.796875 2.136719 -5.695312 2.144531 -5.558594 C 2.15625 -5.421875 2.160156 -5.320312 2.160156 -5.25 C 2.160156 -5.066406 2.09375 -4.90625 1.957031 -4.773438 C 1.820312 -4.644531 1.65625 -4.578125 1.472656 -4.578125 C 1.042969 -4.578125 0.828125 -4.777344 0.828125 -5.179688 C 0.828125 -5.746094 1.132812 -6.183594 1.742188 -6.496094 C 2.230469 -6.746094 2.785156 -6.871094 3.40625 -6.871094 C 4.242188 -6.871094 4.8125 -6.648438 5.125 -6.203125 C 5.390625 -5.828125 5.523438 -5.199219 5.523438 -4.320312 L 5.523438 -1.15625 C 5.523438 -0.84375 5.632812 -0.6875 5.851562 -0.6875 C 6.019531 -0.6875 6.277344 -0.804688 6.628906 -1.03125 L 6.628906 -0.644531 C 6.144531 -0.117188 5.714844 0.148438 5.339844 0.148438 C 4.703125 0.148438 4.367188 -0.230469 4.320312 -0.988281 C 3.867188 -0.609375 3.507812 -0.34375 3.238281 -0.199219 C 2.816406 0.03125 2.4375 0.148438 2.101562 0.148438 C 1.667969 0.148438 1.300781 -0.0078125 1.003906 -0.320312 C 0.707031 -0.628906 0.554688 -1.003906 0.554688 -1.441406 C 0.554688 -2.121094 0.925781 -2.710938 1.664062 -3.207031 C 2.078125 -3.492188 2.742188 -3.800781 3.664062 -4.136719 C 3.820312 -4.195312 4.015625 -4.273438 4.25 -4.367188 Z M 4.25 -3.960938 C 4.164062 -3.929688 4.003906 -3.867188 3.765625 -3.78125 C 3.050781 -3.527344 2.570312 -3.28125 2.320312 -3.046875 C 2.023438 -2.769531 1.875 -2.40625 1.875 -1.960938 C 1.875 -1.628906 1.957031 -1.351562 2.117188 -1.121094 C 2.296875 -0.863281 2.546875 -0.734375 2.863281 -0.734375 C 3.09375 -0.734375 3.351562 -0.796875 3.632812 -0.925781 C 3.914062 -1.054688 4.121094 -1.210938 4.25 -1.390625 Z "/>
</g>
<g id="glyph-0-2">
<path d="M 0.03125 3.046875 C 0.429688 3.011719 0.703125 2.9375 0.851562 2.828125 C 1.035156 2.6875 1.128906 2.429688 1.128906 2.058594 L 1.128906 -4.90625 C 1.128906 -5.300781 1.109375 -5.546875 1.078125 -5.640625 C 1 -5.851562 0.800781 -5.953125 0.484375 -5.953125 L 0.03125 -5.953125 L 0.03125 -6.167969 L 2.402344 -6.871094 L 2.402344 -5.757812 C 2.972656 -6.5 3.695312 -6.871094 4.5625 -6.871094 C 5.394531 -6.871094 6.03125 -6.539062 6.480469 -5.875 C 6.863281 -5.304688 7.054688 -4.578125 7.054688 -3.707031 C 7.054688 -2.707031 6.777344 -1.832031 6.226562 -1.085938 C 5.621094 -0.265625 4.835938 0.148438 3.867188 0.148438 C 3.324219 0.148438 2.835938 -0.078125 2.402344 -0.527344 L 2.402344 2.058594 C 2.402344 2.449219 2.515625 2.714844 2.746094 2.855469 C 2.898438 2.949219 3.199219 3.011719 3.648438 3.046875 L 3.648438 3.25 L 0.03125 3.25 Z M 2.402344 -1.53125 C 2.402344 -1.183594 2.574219 -0.890625 2.921875 -0.652344 C 3.234375 -0.4375 3.570312 -0.328125 3.933594 -0.328125 C 4.558594 -0.328125 5.035156 -0.660156 5.367188 -1.320312 C 5.625 -1.835938 5.757812 -2.441406 5.757812 -3.132812 C 5.757812 -3.875 5.632812 -4.503906 5.382812 -5.015625 C 5.054688 -5.691406 4.5625 -6.027344 3.898438 -6.027344 C 3.476562 -6.027344 3.074219 -5.863281 2.6875 -5.539062 C 2.550781 -5.421875 2.46875 -5.324219 2.441406 -5.253906 C 2.414062 -5.183594 2.402344 -5.054688 2.402344 -4.863281 Z "/>
</g>
<g id="glyph-0-3">
<path d="M 0.148438 -0.210938 C 0.527344 -0.21875 0.78125 -0.265625 0.90625 -0.359375 C 1.0625 -0.472656 1.140625 -0.699219 1.140625 -1.046875 L 1.140625 -5.667969 C 1.140625 -6.019531 1.0625 -6.253906 0.90625 -6.363281 C 0.785156 -6.453125 0.53125 -6.5 0.148438 -6.511719 L 0.148438 -6.722656 L 3.390625 -6.722656 L 3.390625 -6.511719 C 3.003906 -6.5 2.75 -6.453125 2.628906 -6.363281 C 2.476562 -6.257812 2.402344 -6.023438 2.402344 -5.667969 L 2.402344 -3.691406 L 3.691406 -3.691406 C 5.5625 -3.691406 6.496094 -3.078125 6.496094 -1.84375 C 6.496094 -1.210938 6.226562 -0.730469 5.691406 -0.402344 C 5.246094 -0.132812 4.683594 0 4.007812 0 L 0.148438 0 Z M 6.855469 -0.210938 C 7.230469 -0.21875 7.484375 -0.265625 7.609375 -0.359375 C 7.765625 -0.476562 7.84375 -0.707031 7.84375 -1.046875 L 7.84375 -5.667969 C 7.84375 -6.019531 7.765625 -6.253906 7.609375 -6.363281 C 7.488281 -6.453125 7.234375 -6.5 6.855469 -6.511719 L 6.855469 -6.722656 L 10.019531 -6.722656 L 10.019531 -6.511719 C 9.671875 -6.5 9.4375 -6.445312 9.316406 -6.34375 C 9.175781 -6.226562 9.105469 -6 9.105469 -5.667969 L 9.105469 -1.046875 C 9.105469 -0.714844 9.175781 -0.492188 9.316406 -0.375 C 9.4375 -0.273438 9.671875 -0.21875 10.019531 -0.210938 L 10.019531 0 L 6.855469 0 Z M 2.402344 -3.265625 L 2.402344 -0.84375 C 2.402344 -0.636719 2.492188 -0.511719 2.671875 -0.460938 C 2.742188 -0.441406 2.921875 -0.433594 3.207031 -0.433594 C 4.476562 -0.433594 5.113281 -0.921875 5.113281 -1.90625 C 5.113281 -2.398438 4.886719 -2.761719 4.4375 -2.996094 C 4.089844 -3.175781 3.648438 -3.265625 3.105469 -3.265625 Z "/>
</g>
<g id="glyph-0-4">
<path d="M 7.300781 -6.511719 C 6.921875 -6.5 6.667969 -6.453125 6.539062 -6.363281 C 6.378906 -6.25 6.296875 -6.019531 6.296875 -5.667969 L 6.296875 -1.046875 C 6.296875 -0.695312 6.378906 -0.464844 6.539062 -0.351562 C 6.667969 -0.265625 6.921875 -0.21875 7.300781 -0.210938 L 7.300781 0 L 3.992188 0 L 3.992188 -0.210938 C 4.378906 -0.21875 4.640625 -0.265625 4.773438 -0.351562 C 4.960938 -0.46875 5.054688 -0.699219 5.054688 -1.046875 L 5.054688 -5.441406 C 5.054688 -5.808594 4.960938 -6.046875 4.773438 -6.152344 C 4.644531 -6.230469 4.378906 -6.269531 3.976562 -6.269531 C 3.621094 -6.269531 3.367188 -6.203125 3.210938 -6.0625 C 3.058594 -5.925781 2.964844 -5.6875 2.929688 -5.339844 C 2.898438 -5.082031 2.882812 -4.679688 2.878906 -4.136719 C 2.867188 -3.304688 2.847656 -2.726562 2.820312 -2.410156 C 2.761719 -1.761719 2.648438 -1.195312 2.476562 -0.71875 C 2.265625 -0.140625 1.878906 0.148438 1.320312 0.148438 C 1 0.148438 0.734375 0.0664062 0.511719 -0.09375 C 0.269531 -0.273438 0.148438 -0.519531 0.148438 -0.828125 C 0.148438 -1.277344 0.351562 -1.5 0.761719 -1.5 C 1.0625 -1.5 1.273438 -1.304688 1.390625 -0.914062 C 1.460938 -0.675781 1.554688 -0.554688 1.675781 -0.554688 C 2.132812 -0.554688 2.359375 -1.851562 2.359375 -4.4375 L 2.359375 -5.007812 C 2.359375 -5.574219 2.3125 -5.941406 2.226562 -6.101562 C 2.085938 -6.359375 1.75 -6.496094 1.214844 -6.511719 L 1.214844 -6.722656 L 7.300781 -6.722656 Z "/>
</g>
</g>
</defs>
<g fill="rgb(100%, 100%, 100%)" fill-opacity="1">
<use xlink:href="#glyph-0-0" x="30" y="31.25"/>
<use xlink:href="#glyph-0-1" x="41" y="31.25"/>
<use xlink:href="#glyph-0-2" x="48" y="31.25"/>
<use xlink:href="#glyph-0-3" x="56" y="31.25"/>
<use xlink:href="#glyph-0-4" x="66" y="31.25"/>
<use xlink:href="#glyph-0-1" x="74" y="31.25"/>
<use xlink:href="#glyph-0-2" x="81" y="31.25"/>
</g>
</svg>
