<?xml version="1.0" encoding="UTF-8"?>
<svg xmlns="http://www.w3.org/2000/svg" xmlns:xlink="http://www.w3.org/1999/xlink" width="1080" height="1920" viewBox="0 0 1080 1920">
<defs>
<g>
<g id="glyph-0-0">
<path d="M 2.015625 0 L 2.015625 -4.910156 L 0.183594 -4.910156 L 0.183594 -5.566406 L 4.59375 -5.566406 L 4.59375 -4.910156 L 2.753906 -4.910156 L 2.753906 0 Z "/>
</g>
<g id="glyph-0-1">
<path d="M 3.273438 -1.296875 L 3.980469 -1.210938 C 3.867188 -0.796875 3.660156 -0.476562 3.359375 -0.25 C 3.058594 -0.0234375 2.675781 0.0898438 2.207031 0.0898438 C 1.617188 0.0898438 1.148438 -0.0898438 0.804688 -0.453125 C 0.457031 -0.816406 0.285156 -1.328125 0.285156 -1.980469 C 0.285156 -2.660156 0.460938 -3.1875 0.808594 -3.5625 C 1.15625 -3.9375 1.613281 -4.125 2.167969 -4.125 C 2.707031 -4.125 3.148438 -3.941406 3.488281 -3.574219 C 3.832031 -3.207031 4.003906 -2.691406 4.003906 -2.023438 C 4.003906 -1.984375 4 -1.921875 4 -1.84375 L 0.992188 -1.84375 C 1.015625 -1.398438 1.140625 -1.058594 1.367188 -0.824219 C 1.59375 -0.589844 1.875 -0.472656 2.210938 -0.472656 C 2.460938 -0.472656 2.675781 -0.535156 2.851562 -0.667969 C 3.027344 -0.800781 3.167969 -1.011719 3.273438 -1.296875 Z M 1.027344 -2.402344 L 3.28125 -2.402344 C 3.25 -2.742188 3.164062 -2.996094 3.023438 -3.167969 C 2.804688 -3.429688 2.523438 -3.5625 2.175781 -3.5625 C 1.863281 -3.5625 1.597656 -3.457031 1.382812 -3.246094 C 1.167969 -3.035156 1.050781 -2.753906 1.027344 -2.402344 Z "/>
</g>
<g id="glyph-0-2">
<path d="M 0.511719 0 L 0.511719 -4.03125 L 1.125 -4.03125 L 1.125 -3.46875 C 1.25 -3.664062 1.417969 -3.824219 1.628906 -3.945312 C 1.839844 -4.066406 2.078125 -4.125 2.347656 -4.125 C 2.644531 -4.125 2.890625 -4.0625 3.082031 -3.9375 C 3.273438 -3.8125 3.40625 -3.640625 3.484375 -3.417969 C 3.804688 -3.890625 4.21875 -4.125 4.730469 -4.125 C 5.132812 -4.125 5.4375 -4.011719 5.65625 -3.792969 C 5.871094 -3.570312 5.976562 -3.230469 5.976562 -2.769531 L 5.976562 0 L 5.296875 0 L 5.296875 -2.539062 C 5.296875 -2.8125 5.277344 -3.011719 5.230469 -3.132812 C 5.1875 -3.25 5.105469 -3.347656 4.988281 -3.421875 C 4.871094 -3.496094 4.738281 -3.53125 4.578125 -3.53125 C 4.296875 -3.53125 4.0625 -3.4375 3.875 -3.25 C 3.6875 -3.0625 3.59375 -2.757812 3.59375 -2.34375 L 3.59375 0 L 2.910156 0 L 2.910156 -2.621094 C 2.910156 -2.925781 2.851562 -3.152344 2.742188 -3.304688 C 2.628906 -3.457031 2.449219 -3.53125 2.195312 -3.53125 C 2.003906 -3.53125 1.824219 -3.480469 1.660156 -3.378906 C 1.496094 -3.277344 1.378906 -3.128906 1.304688 -2.933594 C 1.230469 -2.738281 1.195312 -2.460938 1.195312 -2.09375 L 1.195312 0 Z "/>
</g>
<g id="glyph-0-3">
<path d="M 0.511719 1.546875 L 0.511719 -4.03125 L 1.136719 -4.03125 L 1.136719 -3.507812 C 1.28125 -3.714844 1.449219 -3.867188 1.632812 -3.96875 C 1.816406 -4.074219 2.042969 -4.125 2.304688 -4.125 C 2.648438 -4.125 2.953125 -4.035156 3.214844 -3.859375 C 3.480469 -3.679688 3.679688 -3.429688 3.8125 -3.109375 C 3.945312 -2.785156 4.015625 -2.433594 4.015625 -2.046875 C 4.015625 -1.632812 3.941406 -1.261719 3.792969 -0.933594 C 3.644531 -0.601562 3.429688 -0.347656 3.144531 -0.171875 C 2.863281 0.00390625 2.566406 0.0898438 2.253906 0.0898438 C 2.027344 0.0898438 1.824219 0.0429688 1.640625 -0.0546875 C 1.460938 -0.148438 1.3125 -0.269531 1.195312 -0.417969 L 1.195312 1.546875 Z M 1.132812 -1.992188 C 1.132812 -1.472656 1.238281 -1.089844 1.445312 -0.84375 C 1.65625 -0.59375 1.910156 -0.472656 2.210938 -0.472656 C 2.515625 -0.472656 2.773438 -0.597656 2.992188 -0.855469 C 3.207031 -1.113281 3.316406 -1.511719 3.316406 -2.050781 C 3.316406 -2.566406 3.210938 -2.949219 3 -3.207031 C 2.789062 -3.460938 2.535156 -3.589844 2.242188 -3.589844 C 1.949219 -3.589844 1.691406 -3.453125 1.46875 -3.179688 C 1.242188 -2.90625 1.132812 -2.511719 1.132812 -1.992188 Z "/>
</g>
<g id="glyph-0-4">
<rect x="0" y="0" width="0" height="0" mask="url(#mask-0)"/>
</g>
<g id="glyph-0-5">
<path d="M 2.898438 0 L 2.214844 0 L 2.214844 -4.355469 C 2.050781 -4.199219 1.832031 -4.042969 1.566406 -3.886719 C 1.300781 -3.730469 1.058594 -3.609375 0.847656 -3.53125 L 0.847656 -4.191406 C 1.230469 -4.371094 1.5625 -4.589844 1.847656 -4.84375 C 2.136719 -5.101562 2.339844 -5.347656 2.457031 -5.589844 L 2.898438 -5.589844 Z "/>
</g>
<g id="glyph-0-6">
<path d="M 5.90625 -3.328125 C 6.242188 -2.960938 6.53125 -2.679688 6.777344 -2.488281 C 7.023438 -2.296875 7.253906 -2.15625 7.472656 -2.0625 L 7.472656 -1.890625 C 7.222656 -1.769531 6.980469 -1.613281 6.746094 -1.425781 C 6.507812 -1.238281 6.226562 -0.960938 5.902344 -0.597656 L 5.609375 -0.597656 C 5.847656 -1.105469 6.097656 -1.496094 6.355469 -1.769531 L 0.300781 -1.769531 L 0.300781 -2.152344 L 6.355469 -2.152344 C 6.164062 -2.398438 6.03125 -2.582031 5.953125 -2.699219 C 5.878906 -2.820312 5.765625 -3.027344 5.617188 -3.328125 Z "/>
</g>
<g id="glyph-0-7">
<path d="M 0.578125 0 L 0.578125 -5.566406 L 1.6875 -5.566406 L 3.003906 -1.625 C 3.125 -1.257812 3.214844 -0.984375 3.269531 -0.800781 C 3.332031 -1.003906 3.433594 -1.300781 3.566406 -1.695312 L 4.898438 -5.566406 L 5.890625 -5.566406 L 5.890625 0 L 5.179688 0 L 5.179688 -4.660156 L 3.5625 0 L 2.898438 0 L 1.289062 -4.738281 L 1.289062 0 Z "/>
</g>
<g id="glyph-0-8">
<path d="M 3.273438 -1.296875 L 3.980469 -1.210938 C 3.867188 -0.796875 3.660156 -0.476562 3.359375 -0.25 C 3.058594 -0.0234375 2.675781 0.0898438 2.207031 0.0898438 C 1.617188 0.0898438 1.148438 -0.0898438 0.804688 -0.453125 C 0.457031 -0.816406 0.285156 -1.328125 0.285156 -1.980469 C 0.285156 -2.660156 0.460938 -3.1875 0.808594 -3.5625 C 1.15625 -3.9375 1.613281 -4.125 2.167969 -4.125 C 2.707031 -4.125 3.148438 -3.941406 3.488281 -3.574219 C 3.832031 -3.207031 4.003906 -2.691406 4.003906 -2.023438 C 4.003906 -1.984375 4 -1.921875 4 -1.84375 L 0.992188 -1.84375 C 1.015625 -1.398438 1.140625 -1.058594 1.367188 -0.824219 C 1.59375 -0.589844 1.875 -0.472656 2.210938 -0.472656 C 2.460938 -0.472656 2.675781 -0.535156 2.851562 -0.667969 C 3.027344 -0.800781 3.167969 -1.011719 3.273438 -1.296875 Z M 1.027344 -2.402344 L 3.28125 -2.402344 C 3.25 -2.742188 3.164062 -2.996094 3.023438 -3.167969 C 2.804688 -3.429688 2.523438 -3.5625 2.175781 -3.5625 C 1.863281 -3.5625 1.597656 -3.457031 1.382812 -3.246094 C 1.167969 -3.035156 1.050781 -2.753906 1.027344 -2.402344 Z "/>
</g>
<g id="glyph-0-9">
<path d="M 0.515625 -4.03125 L 1.199219 -4.03125 L 1.199219 -2.355469 L 3.09375 -2.355469 L 3.09375 -4.03125 L 3.777344 -4.03125 L 3.777344 0 L 3.09375 0 L 3.09375 -1.789062 L 1.199219 -1.789062 L 1.199219 0 L 0.515625 0 Z "/>
</g>
<g id="glyph-0-10">
<path d="M 0.507812 -4.03125 L 1.191406 -4.03125 L 1.191406 -2.289062 C 1.410156 -2.289062 1.5625 -2.332031 1.648438 -2.414062 C 1.738281 -2.5 1.867188 -2.742188 2.035156 -3.144531 C 2.167969 -3.464844 2.277344 -3.671875 2.363281 -3.773438 C 2.445312 -3.875 2.542969 -3.945312 2.652344 -3.980469 C 2.761719 -4.015625 2.933594 -4.03125 3.175781 -4.03125 L 3.3125 -4.03125 L 3.3125 -3.46875 L 3.121094 -3.472656 C 2.941406 -3.472656 2.828125 -3.445312 2.777344 -3.390625 C 2.722656 -3.335938 2.640625 -3.167969 2.53125 -2.894531 C 2.429688 -2.628906 2.335938 -2.449219 2.25 -2.347656 C 2.164062 -2.246094 2.027344 -2.152344 1.847656 -2.070312 C 2.140625 -1.992188 2.433594 -1.71875 2.714844 -1.25 L 3.464844 0 L 2.710938 0 L 1.980469 -1.25 C 1.832031 -1.5 1.703125 -1.664062 1.589844 -1.746094 C 1.480469 -1.824219 1.347656 -1.863281 1.191406 -1.863281 L 1.191406 0 L 0.507812 0 Z "/>
</g>
<g id="glyph-0-11">
<path d="M 4.351562 -4.03125 L 5.035156 -4.03125 L 5.035156 0 L 4.351562 0 Z M 0.527344 -4.03125 L 1.210938 -4.03125 L 1.210938 -2.457031 L 2.078125 -2.457031 C 2.640625 -2.457031 3.078125 -2.347656 3.382812 -2.128906 C 3.6875 -1.910156 3.839844 -1.609375 3.839844 -1.222656 C 3.839844 -0.886719 3.710938 -0.597656 3.457031 -0.359375 C 3.203125 -0.121094 2.796875 0 2.238281 0 L 0.527344 0 Z M 1.210938 -0.5625 L 1.929688 -0.5625 C 2.363281 -0.5625 2.671875 -0.613281 2.855469 -0.722656 C 3.039062 -0.828125 3.132812 -0.992188 3.132812 -1.21875 C 3.132812 -1.394531 3.066406 -1.550781 2.929688 -1.6875 C 2.792969 -1.824219 2.488281 -1.890625 2.019531 -1.890625 L 1.210938 -1.890625 Z "/>
</g>
<g id="glyph-0-12">
<path d="M 1.40625 -1.824219 L 1.40625 -2.359375 C 1.695312 -2.359375 1.890625 -2.371094 1.996094 -2.390625 C 2.101562 -2.410156 2.199219 -2.472656 2.292969 -2.574219 C 2.386719 -2.675781 2.433594 -2.800781 2.433594 -2.953125 C 2.433594 -3.140625 2.371094 -3.285156 2.25 -3.398438 C 2.128906 -3.507812 1.96875 -3.5625 1.773438 -3.5625 C 1.386719 -3.5625 1.117188 -3.335938 0.964844 -2.882812 L 0.316406 -2.988281 C 0.519531 -3.746094 1.007812 -4.125 1.78125 -4.125 C 2.210938 -4.125 2.546875 -4.007812 2.792969 -3.769531 C 3.039062 -3.535156 3.160156 -3.253906 3.160156 -2.929688 C 3.160156 -2.597656 3 -2.335938 2.679688 -2.140625 C 2.882812 -2.03125 3.035156 -1.894531 3.136719 -1.726562 C 3.238281 -1.558594 3.289062 -1.359375 3.289062 -1.128906 C 3.289062 -0.765625 3.15625 -0.472656 2.894531 -0.246094 C 2.628906 -0.0195312 2.261719 0.0898438 1.789062 0.0898438 C 0.871094 0.0898438 0.335938 -0.316406 0.191406 -1.136719 L 0.832031 -1.273438 C 0.890625 -1.015625 1.007812 -0.8125 1.1875 -0.671875 C 1.367188 -0.53125 1.570312 -0.460938 1.800781 -0.460938 C 2.03125 -0.460938 2.222656 -0.523438 2.375 -0.65625 C 2.527344 -0.785156 2.605469 -0.953125 2.605469 -1.15625 C 2.605469 -1.3125 2.558594 -1.449219 2.460938 -1.566406 C 2.363281 -1.683594 2.261719 -1.753906 2.152344 -1.78125 C 2.042969 -1.8125 1.847656 -1.828125 1.5625 -1.828125 C 1.539062 -1.828125 1.484375 -1.824219 1.40625 -1.824219 Z "/>
</g>
<g id="glyph-0-13">
<path d="M 0.847656 -4.03125 L 4.023438 -4.03125 L 4.023438 0 L 3.34375 0 L 3.34375 -3.46875 L 1.53125 -3.46875 L 1.53125 -1.457031 C 1.53125 -0.988281 1.515625 -0.679688 1.484375 -0.53125 C 1.453125 -0.382812 1.371094 -0.25 1.234375 -0.140625 C 1.097656 -0.0273438 0.898438 0.0273438 0.640625 0.0273438 C 0.480469 0.0273438 0.296875 0.015625 0.0898438 -0.00390625 L 0.0898438 -0.574219 L 0.390625 -0.574219 C 0.53125 -0.574219 0.632812 -0.589844 0.695312 -0.617188 C 0.753906 -0.644531 0.796875 -0.691406 0.816406 -0.753906 C 0.835938 -0.820312 0.847656 -1.023438 0.847656 -1.375 Z "/>
</g>
<g id="glyph-0-14">
<path d="M 3.144531 -0.496094 C 2.890625 -0.28125 2.648438 -0.128906 2.414062 -0.0429688 C 2.179688 0.046875 1.929688 0.0898438 1.660156 0.0898438 C 1.214844 0.0898438 0.875 -0.015625 0.636719 -0.234375 C 0.398438 -0.449219 0.28125 -0.726562 0.28125 -1.0625 C 0.28125 -1.261719 0.324219 -1.441406 0.414062 -1.605469 C 0.503906 -1.769531 0.625 -1.898438 0.769531 -1.996094 C 0.914062 -2.097656 1.078125 -2.171875 1.261719 -2.222656 C 1.394531 -2.257812 1.597656 -2.292969 1.867188 -2.324219 C 2.417969 -2.390625 2.828125 -2.46875 3.085938 -2.558594 C 3.089844 -2.652344 3.089844 -2.710938 3.089844 -2.738281 C 3.089844 -3.015625 3.027344 -3.210938 2.898438 -3.328125 C 2.722656 -3.480469 2.464844 -3.558594 2.117188 -3.558594 C 1.796875 -3.558594 1.558594 -3.503906 1.40625 -3.390625 C 1.253906 -3.277344 1.140625 -3.078125 1.066406 -2.792969 L 0.398438 -2.882812 C 0.460938 -3.167969 0.558594 -3.398438 0.699219 -3.574219 C 0.839844 -3.75 1.039062 -3.886719 1.300781 -3.980469 C 1.566406 -4.078125 1.871094 -4.125 2.21875 -4.125 C 2.5625 -4.125 2.84375 -4.082031 3.058594 -4.003906 C 3.273438 -3.921875 3.429688 -3.820312 3.53125 -3.695312 C 3.632812 -3.574219 3.703125 -3.417969 3.746094 -3.230469 C 3.769531 -3.113281 3.777344 -2.90625 3.777344 -2.601562 L 3.777344 -1.691406 C 3.777344 -1.054688 3.792969 -0.652344 3.820312 -0.484375 C 3.851562 -0.316406 3.910156 -0.15625 3.996094 0 L 3.28125 0 C 3.210938 -0.140625 3.164062 -0.308594 3.144531 -0.496094 Z M 3.085938 -2.023438 C 2.839844 -1.921875 2.46875 -1.835938 1.972656 -1.765625 C 1.691406 -1.726562 1.492188 -1.679688 1.375 -1.628906 C 1.257812 -1.578125 1.167969 -1.503906 1.105469 -1.40625 C 1.042969 -1.308594 1.011719 -1.203125 1.011719 -1.082031 C 1.011719 -0.898438 1.078125 -0.75 1.21875 -0.625 C 1.355469 -0.503906 1.558594 -0.445312 1.824219 -0.445312 C 2.085938 -0.445312 2.320312 -0.5 2.523438 -0.617188 C 2.730469 -0.730469 2.882812 -0.890625 2.976562 -1.089844 C 3.050781 -1.246094 3.085938 -1.472656 3.085938 -1.773438 Z "/>
</g>
<g id="glyph-0-15">
<path d="M 0.53125 -4.03125 L 1.59375 -4.03125 L 2.65625 -0.804688 L 3.832031 -4.03125 L 4.816406 -4.03125 L 4.816406 0 L 4.132812 0 L 4.132812 -3.246094 L 2.9375 0 L 2.328125 0 L 1.199219 -3.402344 L 1.199219 0 L 0.53125 0 Z "/>
</g>
<g id="glyph-0-16">
<path d="M 2.949219 -4.03125 L 2.949219 -2.289062 C 3.167969 -2.289062 3.320312 -2.332031 3.410156 -2.414062 C 3.5 -2.5 3.628906 -2.742188 3.796875 -3.144531 C 3.957031 -3.527344 4.101562 -3.769531 4.226562 -3.878906 C 4.351562 -3.980469 4.546875 -4.03125 4.820312 -4.03125 L 5.070312 -4.03125 L 5.070312 -3.46875 L 4.882812 -3.472656 C 4.699219 -3.472656 4.585938 -3.445312 4.535156 -3.390625 C 4.480469 -3.335938 4.398438 -3.167969 4.292969 -2.894531 C 4.191406 -2.628906 4.097656 -2.449219 4.011719 -2.347656 C 3.925781 -2.246094 3.789062 -2.152344 3.609375 -2.070312 C 3.90625 -1.992188 4.191406 -1.71875 4.472656 -1.25 L 5.226562 0 L 4.472656 0 L 3.742188 -1.25 C 3.589844 -1.503906 3.460938 -1.667969 3.347656 -1.746094 C 3.238281 -1.824219 3.105469 -1.863281 2.949219 -1.863281 L 2.949219 0 L 2.25 0 L 2.25 -1.863281 C 2.097656 -1.863281 1.96875 -1.824219 1.855469 -1.75 C 1.746094 -1.671875 1.613281 -1.503906 1.464844 -1.25 L 0.734375 0 L -0.0195312 0 L 0.730469 -1.25 C 1.011719 -1.71875 1.300781 -1.992188 1.597656 -2.070312 C 1.394531 -2.164062 1.253906 -2.265625 1.171875 -2.375 C 1.09375 -2.484375 0.972656 -2.75 0.808594 -3.164062 C 0.753906 -3.304688 0.695312 -3.386719 0.628906 -3.421875 C 0.5625 -3.453125 0.46875 -3.472656 0.339844 -3.472656 C 0.304688 -3.472656 0.238281 -3.46875 0.136719 -3.46875 L 0.136719 -4.03125 L 0.230469 -4.03125 C 0.496094 -4.03125 0.679688 -4.015625 0.789062 -3.984375 C 0.894531 -3.953125 0.992188 -3.886719 1.078125 -3.785156 C 1.160156 -3.683594 1.273438 -3.46875 1.410156 -3.144531 C 1.578125 -2.746094 1.703125 -2.503906 1.789062 -2.417969 C 1.878906 -2.332031 2.03125 -2.289062 2.25 -2.289062 L 2.25 -4.03125 Z "/>
</g>
<g id="glyph-0-17">
<path d="M 0.511719 -4.03125 L 1.195312 -4.03125 L 1.195312 -0.957031 L 3.089844 -4.03125 L 3.828125 -4.03125 L 3.828125 0 L 3.144531 0 L 3.144531 -3.058594 L 1.25 0 L 0.511719 0 Z M 2.886719 -5.558594 L 3.351562 -5.558594 C 3.316406 -5.242188 3.199219 -5 3.003906 -4.832031 C 2.8125 -4.660156 2.554688 -4.574219 2.234375 -4.574219 C 1.910156 -4.574219 1.648438 -4.660156 1.457031 -4.828125 C 1.261719 -4.996094 1.148438 -5.242188 1.109375 -5.558594 L 1.574219 -5.558594 C 1.609375 -5.386719 1.683594 -5.257812 1.785156 -5.175781 C 1.890625 -5.089844 2.03125 -5.046875 2.210938 -5.046875 C 2.414062 -5.046875 2.570312 -5.089844 2.675781 -5.171875 C 2.78125 -5.253906 2.851562 -5.382812 2.886719 -5.558594 Z "/>
</g>
</g>
<image id="source-9" x="0" y="0" width="0" height="0"/>
<mask id="mask-0">
<use xlink:href="#source-9"/>
</mask>
</defs>
<g fill="rgb(29.019608%, 67.058824%, 85.882353%)" fill-opacity="1">
<use xlink:href="#glyph-0-0" x="30" y="27.041016"/>
<use xlink:href="#glyph-0-1" x="34" y="27.041016"/>
<use xlink:href="#glyph-0-2" x="38" y="27.041016"/>
<use xlink:href="#glyph-0-3" x="44" y="27.041016"/>
<use xlink:href="#glyph-0-4" x="48" y="27.041016"/>
<use xlink:href="#glyph-0-5" x="50" y="27.041016"/>
<use xlink:href="#glyph-0-4" x="54" y="27.041016"/>
<use xlink:href="#glyph-0-6" x="56" y="27.041016"/>
<use xlink:href="#glyph-0-4" x="64" y="27.041016"/>
</g>
<g fill="rgb(29.019608%, 67.058824%, 85.882353%)" fill-opacity="1">
<use xlink:href="#glyph-0-7" x="66" y="27.041016"/>
<use xlink:href="#glyph-0-8" x="73" y="27.041016"/>
<use xlink:href="#glyph-0-9" x="77" y="27.041016"/>
<use xlink:href="#glyph-0-4" x="81" y="27.041016"/>
<use xlink:href="#glyph-0-10" x="83" y="27.041016"/>
<use xlink:href="#glyph-0-11" x="86" y="27.041016"/>
<use xlink:href="#glyph-0-12" x="92" y="27.041016"/>
<use xlink:href="#glyph-0-11" x="96" y="27.041016"/>
<use xlink:href="#glyph-0-13" x="102" y="27.041016"/>
<use xlink:href="#glyph-0-4" x="107" y="27.041016"/>
<use xlink:href="#glyph-0-14" x="109" y="27.041016"/>
<use xlink:href="#glyph-0-13" x="113" y="27.041016"/>
<use xlink:href="#glyph-0-15" x="118" y="27.041016"/>
<use xlink:href="#glyph-0-14" x="123" y="27.041016"/>
<use xlink:href="#glyph-0-4" x="127" y="27.041016"/>
<use xlink:href="#glyph-0-16" x="129" y="27.041016"/>
<use xlink:href="#glyph-0-8" x="134" y="27.041016"/>
<use xlink:href="#glyph-0-17" x="138" y="27.041016"/>
<use xlink:href="#glyph-0-15" x="142" y="27.041016"/>
</g>
</svg>
