<?xml version="1.0" encoding="UTF-8"?>
<svg xmlns="http://www.w3.org/2000/svg" xmlns:xlink="http://www.w3.org/1999/xlink" width="1080" height="1920" viewBox="0 0 1080 1920">
<defs>
<g>
<g id="glyph-0-0">
<path d="M -0.015625 0 L 2.886719 -7.554688 L 3.964844 -7.554688 L 7.054688 0 L 5.917969 0 L 5.035156 -2.289062 L 1.875 -2.289062 L 1.046875 0 Z M 2.164062 -3.101562 L 4.726562 -3.101562 L 3.9375 -5.195312 C 3.695312 -5.832031 3.519531 -6.351562 3.402344 -6.761719 C 3.304688 -6.277344 3.167969 -5.796875 2.996094 -5.320312 Z "/>
</g>
<g id="glyph-0-1">
<path d="M 2.722656 -0.828125 L 2.855469 -0.0117188 C 2.59375 0.0429688 2.359375 0.0703125 2.15625 0.0703125 C 1.816406 0.0703125 1.554688 0.0195312 1.371094 -0.0859375 C 1.183594 -0.195312 1.054688 -0.335938 0.980469 -0.507812 C 0.902344 -0.679688 0.867188 -1.046875 0.867188 -1.601562 L 0.867188 -4.753906 L 0.1875 -4.753906 L 0.1875 -5.472656 L 0.867188 -5.472656 L 0.867188 -6.828125 L 1.789062 -7.386719 L 1.789062 -5.472656 L 2.722656 -5.472656 L 2.722656 -4.753906 L 1.789062 -4.753906 L 1.789062 -1.550781 C 1.789062 -1.285156 1.804688 -1.117188 1.835938 -1.042969 C 1.871094 -0.964844 1.921875 -0.90625 1.996094 -0.859375 C 2.070312 -0.816406 2.175781 -0.792969 2.3125 -0.792969 C 2.417969 -0.792969 2.554688 -0.804688 2.722656 -0.828125 Z "/>
</g>
<g id="glyph-0-2">
<path d="M 4.441406 -1.761719 L 5.402344 -1.644531 C 5.25 -1.085938 4.96875 -0.648438 4.5625 -0.339844 C 4.152344 -0.03125 3.628906 0.125 2.996094 0.125 C 2.195312 0.125 1.558594 -0.121094 1.089844 -0.617188 C 0.621094 -1.109375 0.386719 -1.800781 0.386719 -2.691406 C 0.386719 -3.613281 0.625 -4.324219 1.097656 -4.835938 C 1.570312 -5.34375 2.1875 -5.597656 2.941406 -5.597656 C 3.675781 -5.597656 4.273438 -5.347656 4.738281 -4.851562 C 5.199219 -4.351562 5.433594 -3.652344 5.433594 -2.746094 C 5.433594 -2.691406 5.429688 -2.609375 5.425781 -2.5 L 1.34375 -2.5 C 1.378906 -1.898438 1.550781 -1.4375 1.855469 -1.117188 C 2.160156 -0.796875 2.542969 -0.640625 3 -0.640625 C 3.339844 -0.640625 3.628906 -0.726562 3.871094 -0.90625 C 4.113281 -1.085938 4.300781 -1.371094 4.441406 -1.761719 Z M 1.398438 -3.261719 L 4.453125 -3.261719 C 4.410156 -3.722656 4.296875 -4.066406 4.101562 -4.296875 C 3.808594 -4.65625 3.425781 -4.835938 2.953125 -4.835938 C 2.527344 -4.835938 2.167969 -4.691406 1.878906 -4.40625 C 1.589844 -4.121094 1.425781 -3.738281 1.398438 -3.261719 Z "/>
</g>
<g id="glyph-0-3">
<path d="M 0.695312 0 L 0.695312 -5.472656 L 1.53125 -5.472656 L 1.53125 -4.695312 C 1.933594 -5.296875 2.511719 -5.597656 3.273438 -5.597656 C 3.601562 -5.597656 3.90625 -5.539062 4.183594 -5.417969 C 4.460938 -5.300781 4.667969 -5.144531 4.804688 -4.953125 C 4.941406 -4.761719 5.039062 -4.53125 5.09375 -4.269531 C 5.128906 -4.097656 5.144531 -3.796875 5.144531 -3.367188 L 5.144531 0 L 4.214844 0 L 4.214844 -3.328125 C 4.214844 -3.707031 4.179688 -3.988281 4.109375 -4.175781 C 4.035156 -4.363281 3.90625 -4.515625 3.722656 -4.625 C 3.539062 -4.738281 3.324219 -4.792969 3.078125 -4.792969 C 2.683594 -4.792969 2.339844 -4.667969 2.054688 -4.417969 C 1.765625 -4.167969 1.625 -3.691406 1.625 -2.988281 L 1.625 0 Z "/>
</g>
<g id="glyph-0-4">
<path d="M 0.699219 -6.488281 L 0.699219 -7.554688 L 1.628906 -7.554688 L 1.628906 -6.488281 Z M 0.699219 0 L 0.699219 -5.472656 L 1.628906 -5.472656 L 1.628906 0 Z "/>
</g>
<g id="glyph-0-5">
<path d="M 0.351562 -2.738281 C 0.351562 -3.75 0.632812 -4.5 1.195312 -4.988281 C 1.667969 -5.394531 2.242188 -5.597656 2.917969 -5.597656 C 3.671875 -5.597656 4.285156 -5.351562 4.761719 -4.859375 C 5.238281 -4.363281 5.480469 -3.683594 5.480469 -2.8125 C 5.480469 -2.109375 5.375 -1.554688 5.160156 -1.152344 C 4.949219 -0.75 4.644531 -0.433594 4.238281 -0.210938 C 3.835938 0.0117188 3.394531 0.125 2.917969 0.125 C 2.152344 0.125 1.53125 -0.121094 1.058594 -0.613281 C 0.585938 -1.105469 0.351562 -1.8125 0.351562 -2.738281 Z M 1.304688 -2.738281 C 1.304688 -2.035156 1.457031 -1.511719 1.761719 -1.164062 C 2.066406 -0.8125 2.453125 -0.640625 2.917969 -0.640625 C 3.378906 -0.640625 3.761719 -0.8125 4.066406 -1.164062 C 4.371094 -1.515625 4.523438 -2.050781 4.523438 -2.769531 C 4.523438 -3.445312 4.371094 -3.957031 4.0625 -4.304688 C 3.757812 -4.65625 3.375 -4.828125 2.917969 -4.828125 C 2.453125 -4.828125 2.070312 -4.65625 1.761719 -4.308594 C 1.457031 -3.960938 1.304688 -3.4375 1.304688 -2.738281 Z "/>
</g>
<g id="glyph-0-6">
<rect x="0" y="0" width="0" height="0" mask="url(#mask-0)"/>
</g>
<g id="glyph-0-7">
<path d="M 5.578125 -4.441406 L 0.585938 -4.441406 L 0.585938 -5.308594 L 5.578125 -5.308594 Z M 5.578125 -2.148438 L 0.585938 -2.148438 L 0.585938 -3.015625 L 5.578125 -3.015625 Z "/>
</g>
<g id="glyph-0-8">
<path d="M 4.269531 -2.003906 L 5.179688 -1.886719 C 5.082031 -1.257812 4.824219 -0.765625 4.414062 -0.410156 C 4.003906 -0.0546875 3.5 0.125 2.902344 0.125 C 2.152344 0.125 1.550781 -0.121094 1.09375 -0.609375 C 0.640625 -1.101562 0.414062 -1.800781 0.414062 -2.714844 C 0.414062 -3.308594 0.511719 -3.824219 0.707031 -4.269531 C 0.902344 -4.710938 1.199219 -5.042969 1.601562 -5.265625 C 2 -5.488281 2.4375 -5.597656 2.90625 -5.597656 C 3.5 -5.597656 3.988281 -5.445312 4.367188 -5.144531 C 4.742188 -4.84375 4.984375 -4.417969 5.09375 -3.867188 L 4.191406 -3.726562 C 4.105469 -4.09375 3.953125 -4.371094 3.734375 -4.554688 C 3.515625 -4.742188 3.253906 -4.835938 2.941406 -4.835938 C 2.476562 -4.835938 2.097656 -4.667969 1.804688 -4.332031 C 1.511719 -3.996094 1.367188 -3.46875 1.367188 -2.742188 C 1.367188 -2.007812 1.507812 -1.472656 1.789062 -1.140625 C 2.070312 -0.804688 2.4375 -0.640625 2.890625 -0.640625 C 3.253906 -0.640625 3.558594 -0.75 3.804688 -0.972656 C 4.046875 -1.195312 4.203125 -1.542969 4.269531 -2.003906 Z "/>
</g>
<g id="glyph-0-9">
<path d="M 5.480469 -2.8125 C 5.480469 -1.535156 5.066406 -0.667969 4.242188 -0.210938 C 3.839844 0.0117188 3.398438 0.125 2.917969 0.125 C 2.085938 0.125 1.441406 -0.148438 0.984375 -0.695312 C 0.5625 -1.203125 0.351562 -1.882812 0.351562 -2.738281 C 0.351562 -3.75 0.632812 -4.5 1.195312 -4.988281 C 1.667969 -5.394531 2.242188 -5.597656 2.917969 -5.597656 C 3.726562 -5.597656 4.359375 -5.332031 4.820312 -4.796875 C 5.257812 -4.292969 5.480469 -3.632812 5.480469 -2.8125 Z M 4.496094 -3.261719 C 4.4375 -3.707031 4.292969 -4.054688 4.066406 -4.308594 C 3.761719 -4.65625 3.378906 -4.828125 2.917969 -4.828125 C 2.453125 -4.828125 2.070312 -4.65625 1.761719 -4.308594 C 1.535156 -4.054688 1.394531 -3.707031 1.335938 -3.261719 Z M 4.519531 -2.5 L 1.308594 -2.5 C 1.335938 -1.96875 1.476562 -1.539062 1.726562 -1.207031 C 2.015625 -0.828125 2.414062 -0.640625 2.917969 -0.640625 C 3.421875 -0.640625 3.816406 -0.828125 4.101562 -1.210938 C 4.351562 -1.539062 4.488281 -1.96875 4.519531 -2.5 Z "/>
</g>
<g id="glyph-0-10">
<path d="M 1.90625 -2.472656 L 1.90625 -3.199219 C 2.296875 -3.203125 2.566406 -3.21875 2.707031 -3.246094 C 2.851562 -3.273438 2.984375 -3.355469 3.113281 -3.496094 C 3.242188 -3.632812 3.304688 -3.804688 3.304688 -4.011719 C 3.304688 -4.261719 3.21875 -4.460938 3.054688 -4.609375 C 2.886719 -4.757812 2.671875 -4.835938 2.40625 -4.835938 C 1.882812 -4.835938 1.519531 -4.527344 1.308594 -3.910156 L 0.429688 -4.054688 C 0.703125 -5.082031 1.367188 -5.597656 2.417969 -5.597656 C 3 -5.597656 3.460938 -5.4375 3.789062 -5.117188 C 4.121094 -4.796875 4.289062 -4.417969 4.289062 -3.972656 C 4.289062 -3.527344 4.070312 -3.171875 3.640625 -2.90625 C 3.914062 -2.757812 4.121094 -2.570312 4.257812 -2.34375 C 4.394531 -2.113281 4.464844 -1.84375 4.464844 -1.53125 C 4.464844 -1.039062 4.285156 -0.640625 3.925781 -0.335938 C 3.570312 -0.03125 3.070312 0.125 2.425781 0.125 C 1.179688 0.125 0.457031 -0.429688 0.257812 -1.542969 L 1.128906 -1.726562 C 1.207031 -1.375 1.367188 -1.105469 1.609375 -0.914062 C 1.851562 -0.71875 2.128906 -0.625 2.441406 -0.625 C 2.753906 -0.625 3.015625 -0.710938 3.222656 -0.890625 C 3.429688 -1.066406 3.535156 -1.292969 3.535156 -1.566406 C 3.535156 -1.78125 3.46875 -1.964844 3.339844 -2.125 C 3.210938 -2.28125 3.070312 -2.378906 2.921875 -2.417969 C 2.773438 -2.457031 2.507812 -2.480469 2.117188 -2.480469 C 2.085938 -2.480469 2.015625 -2.476562 1.90625 -2.472656 Z "/>
</g>
<g id="glyph-0-11">
<path d="M 1.425781 -5.472656 L 5.242188 -5.472656 L 5.242188 -0.761719 L 5.835938 -0.761719 L 5.835938 1.550781 L 5.070312 1.550781 L 5.070312 0 L 0.761719 0 L 0.761719 1.550781 L 0 1.550781 L 0 -0.761719 L 0.488281 -0.761719 C 1.140625 -1.648438 1.457031 -3.21875 1.425781 -5.472656 Z M 2.199219 -4.707031 C 2.132812 -2.929688 1.855469 -1.613281 1.375 -0.761719 L 4.320312 -0.761719 L 4.320312 -4.707031 Z "/>
</g>
<g id="glyph-0-12">
<path d="M 0.695312 2.097656 L 0.695312 -5.472656 L 1.542969 -5.472656 L 1.542969 -4.761719 C 1.742188 -5.039062 1.964844 -5.25 2.214844 -5.386719 C 2.464844 -5.527344 2.769531 -5.597656 3.128906 -5.597656 C 3.597656 -5.597656 4.007812 -5.476562 4.367188 -5.238281 C 4.722656 -4.996094 4.992188 -4.65625 5.175781 -4.21875 C 5.355469 -3.78125 5.449219 -3.300781 5.449219 -2.777344 C 5.449219 -2.21875 5.347656 -1.714844 5.144531 -1.265625 C 4.945312 -0.816406 4.652344 -0.472656 4.269531 -0.234375 C 3.886719 0.00390625 3.484375 0.125 3.0625 0.125 C 2.753906 0.125 2.476562 0.0585938 2.230469 -0.0703125 C 1.984375 -0.203125 1.78125 -0.367188 1.625 -0.566406 L 1.625 2.097656 Z M 1.535156 -2.707031 C 1.535156 -2 1.679688 -1.480469 1.964844 -1.144531 C 2.25 -0.808594 2.59375 -0.640625 3 -0.640625 C 3.414062 -0.640625 3.765625 -0.8125 4.058594 -1.164062 C 4.351562 -1.511719 4.5 -2.050781 4.5 -2.785156 C 4.5 -3.480469 4.355469 -4.003906 4.070312 -4.351562 C 3.78125 -4.699219 3.441406 -4.871094 3.039062 -4.871094 C 2.644531 -4.871094 2.296875 -4.6875 1.992188 -4.316406 C 1.6875 -3.945312 1.535156 -3.410156 1.535156 -2.707031 Z "/>
</g>
<g id="glyph-0-13">
<path d="M 4.707031 -7.738281 L 5.523438 -7.726562 C 5.488281 -7.359375 5.40625 -7.101562 5.28125 -6.957031 C 5.15625 -6.8125 4.992188 -6.722656 4.796875 -6.679688 C 4.597656 -6.636719 4.210938 -6.617188 3.632812 -6.617188 C 2.867188 -6.617188 2.34375 -6.542969 2.066406 -6.394531 C 1.789062 -6.246094 1.589844 -6.011719 1.464844 -5.6875 C 1.34375 -5.363281 1.277344 -4.945312 1.261719 -4.433594 C 1.496094 -4.78125 1.769531 -5.039062 2.082031 -5.214844 C 2.394531 -5.386719 2.746094 -5.472656 3.140625 -5.472656 C 3.859375 -5.472656 4.453125 -5.226562 4.921875 -4.734375 C 5.394531 -4.242188 5.628906 -3.574219 5.628906 -2.730469 C 5.628906 -2.09375 5.511719 -1.570312 5.273438 -1.160156 C 5.035156 -0.75 4.753906 -0.433594 4.429688 -0.210938 C 4.105469 0.0117188 3.664062 0.125 3.101562 0.125 C 2.453125 0.125 1.949219 -0.0234375 1.585938 -0.320312 C 1.226562 -0.617188 0.949219 -1 0.757812 -1.464844 C 0.566406 -1.929688 0.46875 -2.734375 0.46875 -3.886719 C 0.46875 -5.332031 0.714844 -6.308594 1.203125 -6.808594 C 1.691406 -7.308594 2.445312 -7.5625 3.464844 -7.5625 C 4.097656 -7.5625 4.453125 -7.570312 4.539062 -7.59375 C 4.625 -7.613281 4.683594 -7.660156 4.707031 -7.738281 Z M 4.660156 -2.757812 C 4.660156 -3.328125 4.523438 -3.796875 4.253906 -4.160156 C 3.984375 -4.523438 3.605469 -4.707031 3.113281 -4.707031 C 2.601562 -4.707031 2.207031 -4.511719 1.925781 -4.128906 C 1.648438 -3.742188 1.511719 -3.230469 1.511719 -2.585938 C 1.511719 -1.953125 1.664062 -1.464844 1.972656 -1.128906 C 2.28125 -0.792969 2.65625 -0.625 3.109375 -0.625 C 3.570312 -0.625 3.941406 -0.820312 4.230469 -1.207031 C 4.515625 -1.597656 4.660156 -2.113281 4.660156 -2.757812 Z "/>
</g>
<g id="glyph-0-14">
<path d="M 0.695312 -5.472656 L 1.625 -5.472656 L 1.625 -1.300781 L 4.195312 -5.472656 L 5.195312 -5.472656 L 5.195312 0 L 4.269531 0 L 4.269531 -4.148438 L 1.695312 0 L 0.695312 0 Z "/>
</g>
<g id="glyph-0-15">
<path d="M 0.335938 -2.269531 L 0.335938 -3.199219 L 3.183594 -3.199219 L 3.183594 -2.269531 Z "/>
</g>
<g id="glyph-0-16">
<path d="M 0.699219 -5.472656 L 1.628906 -5.472656 L 1.628906 -3.195312 L 4.199219 -3.195312 L 4.199219 -5.472656 L 5.128906 -5.472656 L 5.128906 0 L 4.199219 0 L 4.199219 -2.425781 L 1.628906 -2.425781 L 1.628906 0 L 0.699219 0 Z "/>
</g>
<g id="glyph-0-17">
<path d="M 0.691406 -5.472656 L 1.617188 -5.472656 L 1.617188 -3.109375 C 1.914062 -3.109375 2.121094 -3.164062 2.238281 -3.277344 C 2.359375 -3.390625 2.53125 -3.722656 2.761719 -4.269531 C 2.945312 -4.703125 3.09375 -4.984375 3.207031 -5.125 C 3.320312 -5.261719 3.449219 -5.351562 3.597656 -5.402344 C 3.746094 -5.449219 3.984375 -5.472656 4.308594 -5.472656 L 4.496094 -5.472656 L 4.496094 -4.707031 L 4.238281 -4.710938 C 3.992188 -4.710938 3.835938 -4.675781 3.769531 -4.601562 C 3.695312 -4.527344 3.585938 -4.300781 3.4375 -3.925781 C 3.296875 -3.570312 3.167969 -3.324219 3.050781 -3.183594 C 2.933594 -3.046875 2.753906 -2.921875 2.511719 -2.808594 C 2.910156 -2.703125 3.300781 -2.332031 3.683594 -1.695312 L 4.699219 0 L 3.679688 0 L 2.691406 -1.695312 C 2.488281 -2.035156 2.3125 -2.261719 2.160156 -2.367188 C 2.007812 -2.476562 1.828125 -2.53125 1.617188 -2.53125 L 1.617188 0 L 0.691406 0 Z "/>
</g>
<g id="glyph-0-18">
<path d="M 4.269531 -0.675781 C 3.925781 -0.382812 3.59375 -0.175781 3.277344 -0.0585938 C 2.957031 0.0625 2.617188 0.125 2.253906 0.125 C 1.652344 0.125 1.1875 -0.0234375 0.867188 -0.316406 C 0.542969 -0.609375 0.382812 -0.984375 0.382812 -1.441406 C 0.382812 -1.710938 0.441406 -1.957031 0.5625 -2.175781 C 0.6875 -2.398438 0.847656 -2.578125 1.042969 -2.710938 C 1.242188 -2.84375 1.464844 -2.945312 1.710938 -3.015625 C 1.894531 -3.0625 2.167969 -3.109375 2.535156 -3.15625 C 3.285156 -3.246094 3.835938 -3.351562 4.191406 -3.472656 C 4.195312 -3.601562 4.195312 -3.683594 4.195312 -3.714844 C 4.195312 -4.09375 4.109375 -4.359375 3.933594 -4.515625 C 3.695312 -4.726562 3.34375 -4.828125 2.875 -4.828125 C 2.4375 -4.828125 2.117188 -4.753906 1.910156 -4.601562 C 1.703125 -4.449219 1.546875 -4.175781 1.449219 -3.789062 L 0.542969 -3.910156 C 0.625 -4.300781 0.757812 -4.613281 0.949219 -4.851562 C 1.136719 -5.089844 1.410156 -5.273438 1.769531 -5.402344 C 2.125 -5.53125 2.539062 -5.597656 3.011719 -5.597656 C 3.476562 -5.597656 3.855469 -5.542969 4.148438 -5.433594 C 4.441406 -5.324219 4.65625 -5.183594 4.792969 -5.015625 C 4.929688 -4.851562 5.027344 -4.640625 5.082031 -4.386719 C 5.113281 -4.226562 5.128906 -3.941406 5.128906 -3.53125 L 5.128906 -2.292969 C 5.128906 -1.429688 5.148438 -0.886719 5.1875 -0.65625 C 5.226562 -0.429688 5.304688 -0.210938 5.421875 0 L 4.453125 0 C 4.355469 -0.191406 4.296875 -0.417969 4.269531 -0.675781 Z M 4.191406 -2.746094 C 3.855469 -2.609375 3.347656 -2.492188 2.675781 -2.398438 C 2.292969 -2.34375 2.023438 -2.28125 1.867188 -2.210938 C 1.707031 -2.140625 1.585938 -2.042969 1.5 -1.910156 C 1.414062 -1.777344 1.371094 -1.628906 1.371094 -1.46875 C 1.371094 -1.222656 1.464844 -1.015625 1.652344 -0.851562 C 1.839844 -0.6875 2.113281 -0.601562 2.472656 -0.601562 C 2.832031 -0.601562 3.148438 -0.679688 3.425781 -0.835938 C 3.707031 -0.992188 3.910156 -1.207031 4.039062 -1.480469 C 4.140625 -1.6875 4.191406 -2 4.191406 -2.40625 Z "/>
</g>
<g id="glyph-0-19">
<path d="M 0.695312 -5.472656 L 1.625 -5.472656 L 1.625 -1.300781 L 4.195312 -5.472656 L 5.195312 -5.472656 L 5.195312 0 L 4.269531 0 L 4.269531 -4.148438 L 1.695312 0 L 0.695312 0 Z M 3.917969 -7.546875 L 4.550781 -7.546875 C 4.5 -7.117188 4.34375 -6.785156 4.078125 -6.554688 C 3.816406 -6.324219 3.46875 -6.210938 3.03125 -6.210938 C 2.589844 -6.210938 2.238281 -6.324219 1.976562 -6.554688 C 1.714844 -6.78125 1.554688 -7.113281 1.503906 -7.546875 L 2.140625 -7.546875 C 2.1875 -7.3125 2.28125 -7.136719 2.425781 -7.023438 C 2.566406 -6.90625 2.757812 -6.851562 3 -6.851562 C 3.277344 -6.851562 3.488281 -6.90625 3.632812 -7.015625 C 3.773438 -7.128906 3.867188 -7.304688 3.917969 -7.546875 Z "/>
</g>
<g id="glyph-0-20">
<path d="M 0.195312 -5.472656 L 4.644531 -5.472656 L 4.644531 -4.707031 L 2.882812 -4.707031 L 2.882812 0 L 1.957031 0 L 1.957031 -4.707031 L 0.195312 -4.707031 Z "/>
</g>
</g>
<image id="source-11" x="0" y="0" width="0" height="0"/>
<mask id="mask-0">
<use xlink:href="#source-11"/>
</mask>
</defs>
<g fill="rgb(23.921569%, 81.176471%, 71.372549%)" fill-opacity="1">
<use xlink:href="#glyph-0-0" x="30" y="29.555664"/>
<use xlink:href="#glyph-0-1" x="37" y="29.555664"/>
<use xlink:href="#glyph-0-1" x="40" y="29.555664"/>
<use xlink:href="#glyph-0-2" x="43" y="29.555664"/>
<use xlink:href="#glyph-0-3" x="49" y="29.555664"/>
<use xlink:href="#glyph-0-1" x="55" y="29.555664"/>
<use xlink:href="#glyph-0-4" x="58" y="29.555664"/>
<use xlink:href="#glyph-0-5" x="60" y="29.555664"/>
<use xlink:href="#glyph-0-3" x="66" y="29.555664"/>
<use xlink:href="#glyph-0-6" x="72" y="29.555664"/>
<use xlink:href="#glyph-0-7" x="75" y="29.555664"/>
<use xlink:href="#glyph-0-6" x="81" y="29.555664"/>
</g>
<g fill="rgb(23.921569%, 81.176471%, 71.372549%)" fill-opacity="1">
<use xlink:href="#glyph-0-8" x="84" y="29.555664"/>
<use xlink:href="#glyph-0-9" x="89" y="29.555664"/>
<use xlink:href="#glyph-0-10" x="95" y="29.555664"/>
<use xlink:href="#glyph-0-11" x="100" y="29.555664"/>
<use xlink:href="#glyph-0-9" x="106" y="29.555664"/>
<use xlink:href="#glyph-0-12" x="112" y="29.555664"/>
<use xlink:href="#glyph-0-6" x="118" y="29.555664"/>
<use xlink:href="#glyph-0-13" x="121" y="29.555664"/>
<use xlink:href="#glyph-0-14" x="127" y="29.555664"/>
<use xlink:href="#glyph-0-12" x="133" y="29.555664"/>
<use xlink:href="#glyph-0-14" x="139" y="29.555664"/>
<use xlink:href="#glyph-0-15" x="145" y="29.555664"/>
<use xlink:href="#glyph-0-13" x="149" y="29.555664"/>
<use xlink:href="#glyph-0-14" x="155" y="29.555664"/>
<use xlink:href="#glyph-0-12" x="161" y="29.555664"/>
<use xlink:href="#glyph-0-14" x="167" y="29.555664"/>
<use xlink:href="#glyph-0-16" x="173" y="29.555664"/>
<use xlink:href="#glyph-0-6" x="179" y="29.555664"/>
<use xlink:href="#glyph-0-17" x="182" y="29.555664"/>
<use xlink:href="#glyph-0-18" x="187" y="29.555664"/>
<use xlink:href="#glyph-0-12" x="193" y="29.555664"/>
<use xlink:href="#glyph-0-18" x="199" y="29.555664"/>
<use xlink:href="#glyph-0-19" x="205" y="29.555664"/>
<use xlink:href="#glyph-0-20" x="211" y="29.555664"/>
</g>
</svg>
