<?xml version="1.0" encoding="UTF-8"?>
<svg xmlns="http://www.w3.org/2000/svg" xmlns:xlink="http://www.w3.org/1999/xlink" width="1080" height="1920" viewBox="0 0 1080 1920">
<defs>
<g>
<g id="glyph-0-0">
<path d="M 6.257812 -9.386719 C 6.175781 -8.363281 5.875 -7.691406 5.359375 -7.375 C 5.121094 -7.226562 4.761719 -7.144531 4.289062 -7.121094 L 3.679688 -7.097656 C 2.726562 -7.058594 2.027344 -6.808594 1.574219 -6.347656 C 1.371094 -6.140625 1.210938 -5.902344 1.09375 -5.636719 C 0.929688 -5.269531 0.816406 -4.710938 0.761719 -3.957031 L 0.789062 -3.933594 C 1.046875 -4.5 1.316406 -4.917969 1.589844 -5.1875 C 2.101562 -5.691406 2.707031 -5.945312 3.410156 -5.945312 C 4.277344 -5.945312 4.984375 -5.644531 5.527344 -5.046875 C 6.058594 -4.46875 6.320312 -3.742188 6.320312 -2.863281 C 6.320312 -1.96875 6.058594 -1.234375 5.535156 -0.652344 C 4.988281 -0.046875 4.269531 0.253906 3.386719 0.253906 C 2.367188 0.253906 1.589844 -0.152344 1.0625 -0.96875 C 0.609375 -1.664062 0.382812 -2.550781 0.382812 -3.625 C 0.382812 -5.5 0.851562 -6.933594 1.785156 -7.921875 C 2.128906 -8.289062 2.621094 -8.527344 3.261719 -8.644531 C 3.425781 -8.675781 3.992188 -8.722656 4.960938 -8.789062 C 5.296875 -8.8125 5.503906 -8.839844 5.585938 -8.878906 C 5.753906 -8.957031 5.847656 -9.128906 5.867188 -9.386719 Z M 3.347656 -0.148438 C 4.058594 -0.148438 4.414062 -1.0625 4.414062 -2.890625 C 4.414062 -4.671875 4.058594 -5.558594 3.347656 -5.558594 C 2.863281 -5.558594 2.546875 -5.175781 2.394531 -4.40625 C 2.324219 -4.050781 2.292969 -3.488281 2.292969 -2.722656 C 2.292969 -1.007812 2.644531 -0.148438 3.347656 -0.148438 Z "/>
</g>
<g id="glyph-0-1">
<path d="M 3.878906 -3.652344 L 3.878906 -4.785156 C 3.878906 -5.175781 3.800781 -5.457031 3.640625 -5.625 C 3.484375 -5.792969 3.210938 -5.878906 2.824219 -5.878906 C 2.648438 -5.878906 2.472656 -5.851562 2.296875 -5.792969 C 2.0625 -5.714844 1.945312 -5.609375 1.945312 -5.46875 C 1.945312 -5.378906 2.019531 -5.226562 2.160156 -5.011719 C 2.28125 -4.835938 2.34375 -4.683594 2.34375 -4.558594 C 2.34375 -4.332031 2.253906 -4.148438 2.078125 -4.003906 C 1.898438 -3.859375 1.695312 -3.789062 1.464844 -3.789062 C 1.203125 -3.789062 1 -3.875 0.847656 -4.042969 C 0.699219 -4.210938 0.625 -4.429688 0.625 -4.695312 C 0.625 -5.226562 0.914062 -5.640625 1.496094 -5.9375 C 1.960938 -6.175781 2.488281 -6.296875 3.078125 -6.296875 C 3.742188 -6.296875 4.3125 -6.171875 4.785156 -5.925781 C 5.386719 -5.617188 5.691406 -5.160156 5.691406 -4.558594 L 5.691406 -0.839844 C 5.691406 -0.679688 5.777344 -0.597656 5.957031 -0.597656 C 6.070312 -0.597656 6.199219 -0.648438 6.347656 -0.75 L 6.453125 -0.457031 C 5.929688 0.0078125 5.4375 0.242188 4.972656 0.242188 C 4.503906 0.242188 4.132812 -0.0390625 3.855469 -0.597656 C 3.5 -0.320312 3.191406 -0.121094 2.9375 0 C 2.585938 0.167969 2.222656 0.253906 1.855469 0.253906 C 1.429688 0.253906 1.070312 0.128906 0.78125 -0.117188 C 0.472656 -0.378906 0.320312 -0.714844 0.320312 -1.132812 C 0.320312 -1.984375 0.988281 -2.660156 2.332031 -3.15625 C 2.65625 -3.277344 3.171875 -3.445312 3.878906 -3.652344 Z M 3.878906 -3.230469 C 2.769531 -2.992188 2.214844 -2.4375 2.214844 -1.574219 C 2.214844 -1.34375 2.261719 -1.144531 2.363281 -0.976562 C 2.484375 -0.777344 2.652344 -0.675781 2.863281 -0.675781 C 3.246094 -0.675781 3.585938 -0.863281 3.878906 -1.238281 Z "/>
</g>
<g id="glyph-0-2">
<path d="M 2.785156 -0.558594 L 2.785156 1.855469 C 2.785156 2.285156 2.976562 2.507812 3.359375 2.519531 L 3.359375 2.800781 L 0.398438 2.800781 L 0.398438 2.519531 C 0.785156 2.507812 0.976562 2.285156 0.976562 1.855469 L 0.976562 -5.175781 C 0.976562 -5.605469 0.785156 -5.828125 0.398438 -5.839844 L 0.398438 -6.121094 L 2.785156 -6.121094 L 2.785156 -5.105469 C 3.101562 -5.90625 3.667969 -6.308594 4.480469 -6.308594 C 5.230469 -6.308594 5.828125 -5.933594 6.277344 -5.183594 C 6.652344 -4.542969 6.84375 -3.824219 6.84375 -3.027344 C 6.84375 -2.191406 6.636719 -1.457031 6.222656 -0.832031 C 5.75 -0.117188 5.117188 0.242188 4.324219 0.242188 C 3.796875 0.242188 3.285156 -0.0273438 2.785156 -0.558594 Z M 2.785156 -4.558594 L 2.785156 -1.257812 C 2.785156 -1.054688 2.925781 -0.859375 3.203125 -0.675781 C 3.375 -0.5625 3.570312 -0.507812 3.789062 -0.507812 C 4.296875 -0.507812 4.636719 -0.8125 4.804688 -1.425781 C 4.898438 -1.761719 4.949219 -2.269531 4.949219 -2.949219 C 4.949219 -3.8125 4.867188 -4.425781 4.707031 -4.785156 C 4.515625 -5.214844 4.207031 -5.429688 3.777344 -5.429688 C 3.328125 -5.429688 3 -5.140625 2.785156 -4.558594 Z "/>
</g>
</g>
</defs>
<g fill="rgb(51.372549%, 75.686275%, 40.392157%)" fill-opacity="1">
<use xlink:href="#glyph-0-0" x="30" y="30"/>
<use xlink:href="#glyph-0-1" x="37" y="30"/>
<use xlink:href="#glyph-0-2" x="44" y="30"/>
<use xlink:href="#glyph-0-1" x="51" y="30"/>
</g>
</svg>
