<?xml version="1.0" encoding="UTF-8"?>
<svg xmlns="http://www.w3.org/2000/svg" xmlns:xlink="http://www.w3.org/1999/xlink" width="1080" height="1920" viewBox="0 0 1080 1920">
<defs>
<g>
<g id="glyph-0-0">
<path d="M 0.960938 1.761719 C 1.296875 1.53125 1.550781 1.328125 1.71875 1.15625 C 2.019531 0.855469 2.171875 0.570312 2.171875 0.304688 C 2.171875 0.226562 2.152344 0.167969 2.117188 0.121094 C 2.078125 0.078125 2.019531 0.0546875 1.949219 0.0546875 C 1.910156 0.0546875 1.867188 0.0585938 1.8125 0.0664062 C 1.757812 0.078125 1.71875 0.0820312 1.699219 0.0820312 C 1.476562 0.0820312 1.285156 0.00390625 1.125 -0.152344 C 0.964844 -0.308594 0.882812 -0.515625 0.882812 -0.78125 C 0.882812 -1.058594 0.96875 -1.285156 1.136719 -1.460938 C 1.304688 -1.632812 1.523438 -1.71875 1.796875 -1.71875 C 2.128906 -1.71875 2.402344 -1.601562 2.613281 -1.371094 C 2.824219 -1.136719 2.929688 -0.824219 2.929688 -0.433594 C 2.929688 0.164062 2.691406 0.707031 2.214844 1.195312 C 1.953125 1.453125 1.578125 1.726562 1.089844 2.007812 Z "/>
</g>
</g>
</defs>
<g fill="rgb(51.372549%, 75.686275%, 40.392157%)" fill-opacity="1">
<use xlink:href="#glyph-0-0" x="30" y="28.333008"/>
</g>
</svg>
