<?xml version="1.0" encoding="UTF-8"?>
<svg xmlns="http://www.w3.org/2000/svg" xmlns:xlink="http://www.w3.org/1999/xlink" width="1080" height="1920" viewBox="0 0 1080 1920">
<defs>
<g>
<g id="glyph-0-0">
<path d="M 6.121094 -11.261719 L 10.179688 -1.953125 C 10.417969 -1.398438 10.605469 -1.035156 10.742188 -0.863281 C 11.007812 -0.511719 11.351562 -0.328125 11.769531 -0.316406 L 11.769531 0 L 7.519531 0 L 7.519531 -0.316406 C 8.304688 -0.359375 8.699219 -0.542969 8.699219 -0.863281 C 8.699219 -1.089844 8.5625 -1.53125 8.285156 -2.179688 L 7.683594 -3.597656 L 3.320312 -3.597656 C 3.21875 -3.324219 3.117188 -3.078125 3.019531 -2.847656 C 2.617188 -1.902344 2.417969 -1.289062 2.417969 -1 C 2.417969 -0.5625 2.792969 -0.332031 3.546875 -0.316406 L 3.546875 0 L 0.253906 0 L 0.253906 -0.316406 C 0.628906 -0.386719 0.914062 -0.53125 1.113281 -0.75 C 1.40625 -1.0625 1.835938 -1.890625 2.402344 -3.230469 L 5.785156 -11.261719 Z M 3.597656 -4.28125 L 7.445312 -4.28125 L 5.519531 -8.871094 Z "/>
</g>
<g id="glyph-0-1">
<path d="M 3.050781 -10.914062 C 3.339844 -10.914062 3.484375 -10.785156 3.484375 -10.53125 C 3.484375 -10.324219 3.351562 -10.191406 3.085938 -10.132812 C 2.875 -10.089844 2.765625 -10 2.765625 -9.863281 C 2.765625 -9.457031 3.277344 -9.253906 4.296875 -9.253906 C 5.324219 -9.253906 5.835938 -9.457031 5.835938 -9.863281 C 5.835938 -9.988281 5.730469 -10.078125 5.519531 -10.132812 C 5.253906 -10.199219 5.117188 -10.328125 5.117188 -10.53125 C 5.117188 -10.785156 5.257812 -10.914062 5.535156 -10.914062 C 6 -10.914062 6.234375 -10.582031 6.234375 -9.921875 C 6.234375 -9.4375 6.023438 -9.050781 5.605469 -8.757812 C 5.238281 -8.496094 4.800781 -8.367188 4.296875 -8.367188 C 3.796875 -8.367188 3.359375 -8.496094 2.988281 -8.757812 C 2.574219 -9.050781 2.367188 -9.4375 2.367188 -9.921875 C 2.367188 -10.171875 2.417969 -10.386719 2.523438 -10.570312 C 2.648438 -10.800781 2.824219 -10.914062 3.050781 -10.914062 Z M 0.164062 -0.234375 C 0.585938 -0.242188 0.867188 -0.296875 1.007812 -0.398438 C 1.183594 -0.523438 1.269531 -0.777344 1.269531 -1.164062 L 1.269531 -6.300781 C 1.269531 -6.691406 1.183594 -6.949219 1.007812 -7.070312 C 0.875 -7.167969 0.589844 -7.222656 0.164062 -7.234375 L 0.164062 -7.472656 L 3.769531 -7.472656 L 3.769531 -7.234375 C 3.339844 -7.222656 3.058594 -7.167969 2.921875 -7.070312 C 2.753906 -6.953125 2.667969 -6.695312 2.667969 -6.300781 L 2.667969 -1.921875 L 2.703125 -1.921875 L 5.898438 -6.4375 C 5.890625 -6.859375 5.726562 -7.105469 5.410156 -7.179688 C 5.265625 -7.210938 5.0625 -7.230469 4.800781 -7.234375 L 4.800781 -7.472656 L 8.398438 -7.472656 L 8.398438 -7.234375 C 7.976562 -7.222656 7.695312 -7.167969 7.558594 -7.070312 C 7.386719 -6.945312 7.300781 -6.691406 7.300781 -6.300781 L 7.300781 -1.164062 C 7.300781 -0.769531 7.390625 -0.507812 7.570312 -0.382812 C 7.703125 -0.289062 7.980469 -0.242188 8.398438 -0.234375 L 8.398438 0 L 4.800781 0 L 4.800781 -0.234375 C 5.21875 -0.242188 5.5 -0.296875 5.640625 -0.398438 C 5.8125 -0.527344 5.898438 -0.785156 5.898438 -1.164062 L 5.898438 -5.550781 L 5.867188 -5.550781 L 2.667969 -1.035156 C 2.679688 -0.601562 2.84375 -0.351562 3.15625 -0.285156 C 3.28125 -0.257812 3.484375 -0.242188 3.769531 -0.234375 L 3.769531 0 L 0.164062 0 Z "/>
</g>
<g id="glyph-0-2">
<path d="M 0.0820312 -0.234375 C 0.878906 -0.234375 1.351562 -0.945312 1.496094 -2.367188 C 1.609375 -3.464844 1.667969 -4.726562 1.667969 -6.152344 C 1.667969 -6.636719 1.570312 -6.945312 1.375 -7.082031 C 1.238281 -7.171875 0.917969 -7.222656 0.414062 -7.234375 L 0.414062 -7.472656 L 7.265625 -7.472656 L 7.265625 -7.234375 C 6.832031 -7.222656 6.546875 -7.167969 6.414062 -7.070312 C 6.238281 -6.945312 6.152344 -6.683594 6.152344 -6.28125 L 6.152344 -1.050781 C 6.152344 -0.699219 6.234375 -0.464844 6.398438 -0.359375 C 6.511719 -0.28125 6.75 -0.242188 7.113281 -0.234375 L 7.113281 2.5 L 6.714844 2.5 C 6.488281 1.5 6.238281 0.816406 5.964844 0.449219 C 5.75 0.148438 5.425781 0 4.996094 0 L 2.179688 0 C 1.757812 0 1.4375 0.148438 1.222656 0.449219 C 0.960938 0.804688 0.714844 1.488281 0.480469 2.5 L 0.0820312 2.5 Z M 1.636719 -0.398438 L 3.75 -0.398438 C 4.429688 -0.398438 4.769531 -0.753906 4.769531 -1.464844 L 4.769531 -6.21875 C 4.769531 -6.582031 4.664062 -6.824219 4.453125 -6.941406 C 4.300781 -7.023438 4.019531 -7.0625 3.613281 -7.0625 C 3.152344 -7.0625 2.835938 -7 2.667969 -6.875 C 2.460938 -6.730469 2.355469 -6.4375 2.351562 -5.996094 L 2.335938 -4.550781 C 2.320312 -3.21875 2.207031 -2.152344 2.003906 -1.351562 C 1.9375 -1.089844 1.816406 -0.773438 1.636719 -0.398438 Z "/>
</g>
<g id="glyph-0-3">
<path d="M 0.164062 -0.234375 C 0.585938 -0.242188 0.867188 -0.296875 1.007812 -0.398438 C 1.183594 -0.523438 1.269531 -0.777344 1.269531 -1.164062 L 1.269531 -6.300781 C 1.269531 -6.691406 1.183594 -6.949219 1.007812 -7.070312 C 0.875 -7.167969 0.589844 -7.222656 0.164062 -7.234375 L 0.164062 -7.472656 L 3.769531 -7.472656 L 3.769531 -7.234375 C 3.339844 -7.222656 3.058594 -7.167969 2.921875 -7.070312 C 2.753906 -6.953125 2.667969 -6.695312 2.667969 -6.300781 L 2.667969 -4.101562 L 4.101562 -4.101562 C 6.179688 -4.101562 7.21875 -3.417969 7.21875 -2.050781 C 7.21875 -1.34375 6.921875 -0.8125 6.324219 -0.449219 C 5.828125 -0.148438 5.207031 0 4.453125 0 L 0.164062 0 Z M 7.617188 -0.234375 C 8.035156 -0.242188 8.316406 -0.296875 8.457031 -0.398438 C 8.628906 -0.527344 8.714844 -0.785156 8.714844 -1.164062 L 8.714844 -6.300781 C 8.714844 -6.691406 8.628906 -6.949219 8.457031 -7.070312 C 8.320312 -7.167969 8.039062 -7.222656 7.617188 -7.234375 L 7.617188 -7.472656 L 11.132812 -7.472656 L 11.132812 -7.234375 C 10.746094 -7.222656 10.488281 -7.160156 10.351562 -7.046875 C 10.195312 -6.917969 10.117188 -6.667969 10.117188 -6.300781 L 10.117188 -1.164062 C 10.117188 -0.796875 10.195312 -0.546875 10.351562 -0.414062 C 10.488281 -0.300781 10.746094 -0.242188 11.132812 -0.234375 L 11.132812 0 L 7.617188 0 Z M 2.667969 -3.628906 L 2.667969 -0.9375 C 2.667969 -0.707031 2.769531 -0.566406 2.96875 -0.511719 C 3.046875 -0.492188 3.246094 -0.480469 3.566406 -0.480469 C 4.976562 -0.480469 5.679688 -1.027344 5.679688 -2.117188 C 5.679688 -2.664062 5.429688 -3.066406 4.933594 -3.328125 C 4.546875 -3.527344 4.054688 -3.628906 3.449219 -3.628906 Z "/>
</g>
<g id="glyph-0-4">
<path d="M 0.164062 -0.234375 C 0.585938 -0.242188 0.867188 -0.296875 1.007812 -0.398438 C 1.183594 -0.523438 1.269531 -0.777344 1.269531 -1.164062 L 1.269531 -6.300781 C 1.269531 -6.691406 1.183594 -6.949219 1.007812 -7.070312 C 0.875 -7.167969 0.589844 -7.222656 0.164062 -7.234375 L 0.164062 -7.472656 L 3.6875 -7.472656 L 3.6875 -7.234375 C 3.171875 -7.222656 2.863281 -7.109375 2.757812 -6.894531 C 2.699219 -6.769531 2.667969 -6.570312 2.667969 -6.300781 L 2.667969 -4.132812 L 5.664062 -4.132812 L 5.664062 -6.300781 C 5.664062 -6.679688 5.589844 -6.929688 5.445312 -7.054688 C 5.316406 -7.164062 5.046875 -7.222656 4.648438 -7.234375 L 4.648438 -7.472656 L 8.171875 -7.472656 L 8.171875 -7.234375 C 7.742188 -7.222656 7.460938 -7.167969 7.324219 -7.070312 C 7.152344 -6.945312 7.0625 -6.691406 7.0625 -6.300781 L 7.0625 -1.164062 C 7.0625 -0.769531 7.15625 -0.507812 7.339844 -0.382812 C 7.476562 -0.289062 7.753906 -0.242188 8.171875 -0.234375 L 8.171875 0 L 4.648438 0 L 4.648438 -0.234375 C 5.164062 -0.246094 5.472656 -0.359375 5.574219 -0.578125 C 5.632812 -0.703125 5.664062 -0.898438 5.664062 -1.164062 L 5.664062 -3.546875 L 2.667969 -3.546875 L 2.667969 -1.164062 C 2.667969 -0.789062 2.738281 -0.542969 2.882812 -0.421875 C 3.023438 -0.304688 3.289062 -0.242188 3.6875 -0.234375 L 3.6875 0 L 0.164062 0 Z "/>
</g>
<g id="glyph-0-5">
<rect x="0" y="0" width="0" height="0" mask="url(#mask-0)"/>
</g>
<g id="glyph-0-6">
<path d="M 0.164062 -0.234375 C 0.585938 -0.242188 0.867188 -0.296875 1.007812 -0.398438 C 1.183594 -0.523438 1.269531 -0.777344 1.269531 -1.164062 L 1.269531 -6.300781 C 1.269531 -6.691406 1.183594 -6.949219 1.007812 -7.070312 C 0.875 -7.167969 0.589844 -7.222656 0.164062 -7.234375 L 0.164062 -7.472656 L 3.769531 -7.472656 L 3.769531 -7.234375 C 3.339844 -7.222656 3.058594 -7.167969 2.921875 -7.070312 C 2.753906 -6.953125 2.667969 -6.695312 2.667969 -6.300781 L 2.667969 -1.921875 L 2.703125 -1.921875 L 5.898438 -6.4375 C 5.890625 -6.859375 5.726562 -7.105469 5.410156 -7.179688 C 5.265625 -7.210938 5.0625 -7.230469 4.800781 -7.234375 L 4.800781 -7.472656 L 8.398438 -7.472656 L 8.398438 -7.234375 C 7.976562 -7.222656 7.695312 -7.167969 7.558594 -7.070312 C 7.386719 -6.945312 7.300781 -6.691406 7.300781 -6.300781 L 7.300781 -1.164062 C 7.300781 -0.769531 7.390625 -0.507812 7.570312 -0.382812 C 7.703125 -0.289062 7.980469 -0.242188 8.398438 -0.234375 L 8.398438 0 L 4.800781 0 L 4.800781 -0.234375 C 5.21875 -0.242188 5.5 -0.296875 5.640625 -0.398438 C 5.8125 -0.527344 5.898438 -0.785156 5.898438 -1.164062 L 5.898438 -5.550781 L 5.867188 -5.550781 L 2.667969 -1.035156 C 2.679688 -0.601562 2.84375 -0.351562 3.15625 -0.285156 C 3.28125 -0.257812 3.484375 -0.242188 3.769531 -0.234375 L 3.769531 0 L 0.164062 0 Z "/>
</g>
<g id="glyph-0-7">
<path d="M 0.164062 -7.472656 L 3.703125 -7.472656 L 3.703125 -7.234375 C 3.3125 -7.222656 3.046875 -7.164062 2.90625 -7.054688 C 2.75 -6.925781 2.667969 -6.671875 2.667969 -6.300781 L 2.667969 -4.769531 C 2.667969 -4.277344 2.8125 -3.933594 3.101562 -3.742188 C 3.335938 -3.582031 3.710938 -3.5 4.230469 -3.5 C 4.757812 -3.5 5.234375 -3.59375 5.664062 -3.785156 L 5.664062 -6.300781 C 5.664062 -6.675781 5.585938 -6.925781 5.429688 -7.054688 C 5.289062 -7.164062 5.019531 -7.222656 4.628906 -7.234375 L 4.628906 -7.472656 L 8.171875 -7.472656 L 8.171875 -7.234375 C 7.742188 -7.222656 7.457031 -7.167969 7.316406 -7.070312 C 7.136719 -6.945312 7.046875 -6.691406 7.046875 -6.300781 L 7.046875 -1.164062 C 7.046875 -0.773438 7.136719 -0.515625 7.316406 -0.390625 C 7.457031 -0.292969 7.742188 -0.242188 8.171875 -0.234375 L 8.171875 0 L 4.484375 0 L 4.484375 -0.234375 C 4.914062 -0.242188 5.203125 -0.292969 5.355469 -0.390625 C 5.5625 -0.519531 5.664062 -0.777344 5.664062 -1.164062 L 5.664062 -3.433594 C 5.011719 -3.167969 4.3125 -3.035156 3.566406 -3.035156 C 3 -3.035156 2.507812 -3.144531 2.082031 -3.359375 C 1.550781 -3.632812 1.285156 -4.023438 1.285156 -4.53125 L 1.285156 -6.300781 C 1.285156 -6.691406 1.195312 -6.949219 1.015625 -7.070312 C 0.875 -7.167969 0.589844 -7.222656 0.164062 -7.234375 Z "/>
</g>
<g id="glyph-0-8">
<path d="M 1.515625 -4.597656 C 1.574219 -3.800781 1.710938 -3.15625 1.921875 -2.667969 C 2.414062 -1.523438 3.175781 -0.953125 4.199219 -0.953125 C 4.753906 -0.953125 5.292969 -1.167969 5.820312 -1.601562 C 6.148438 -1.875 6.460938 -2.25 6.746094 -2.734375 L 7.015625 -2.636719 C 6.722656 -1.925781 6.398438 -1.378906 6.046875 -1 C 5.320312 -0.226562 4.480469 0.164062 3.53125 0.164062 C 2.542969 0.164062 1.753906 -0.234375 1.164062 -1.027344 C 0.632812 -1.742188 0.367188 -2.609375 0.367188 -3.628906 C 0.367188 -4.730469 0.652344 -5.65625 1.222656 -6.40625 C 1.851562 -7.222656 2.699219 -7.632812 3.769531 -7.632812 C 5.023438 -7.632812 5.898438 -7.078125 6.398438 -5.964844 C 6.558594 -5.601562 6.660156 -5.144531 6.699219 -4.597656 Z M 4.996094 -5.136719 C 4.882812 -6.410156 4.347656 -7.046875 3.386719 -7.046875 C 2.398438 -7.046875 1.792969 -6.410156 1.570312 -5.136719 Z "/>
</g>
<g id="glyph-0-9">
<path d="M 2.71875 0.195312 C 2.457031 0.195312 2.238281 0.105469 2.058594 -0.078125 C 1.878906 -0.257812 1.789062 -0.476562 1.789062 -0.734375 C 1.789062 -0.988281 1.882812 -1.203125 2.0625 -1.382812 C 2.246094 -1.5625 2.464844 -1.652344 2.71875 -1.652344 C 2.972656 -1.652344 3.191406 -1.5625 3.371094 -1.382812 C 3.550781 -1.203125 3.636719 -0.988281 3.636719 -0.734375 C 3.636719 -0.476562 3.550781 -0.257812 3.375 -0.078125 C 3.199219 0.105469 2.980469 0.195312 2.71875 0.195312 Z "/>
</g>
</g>
<image id="source-170" x="0" y="0" width="0" height="0"/>
<mask id="mask-0">
<use xlink:href="#source-170"/>
</mask>
</defs>
<g fill="rgb(100%, 100%, 100%)" fill-opacity="1">
<use xlink:href="#glyph-0-0" x="30" y="32.5"/>
<use xlink:href="#glyph-0-1" x="42" y="32.5"/>
<use xlink:href="#glyph-0-2" x="51" y="32.5"/>
<use xlink:href="#glyph-0-3" x="58" y="32.5"/>
<use xlink:href="#glyph-0-4" x="69" y="32.5"/>
<use xlink:href="#glyph-0-5" x="77" y="32.5"/>
<use xlink:href="#glyph-0-6" x="81" y="32.5"/>
<use xlink:href="#glyph-0-7" x="90" y="32.5"/>
<use xlink:href="#glyph-0-6" x="98" y="32.5"/>
<use xlink:href="#glyph-0-4" x="107" y="32.5"/>
<use xlink:href="#glyph-0-2" x="115" y="32.5"/>
<use xlink:href="#glyph-0-8" x="122" y="32.5"/>
<use xlink:href="#glyph-0-5" x="129" y="32.5"/>
<use xlink:href="#glyph-0-9" x="133" y="32.5"/>
<use xlink:href="#glyph-0-9" x="137" y="32.5"/>
<use xlink:href="#glyph-0-9" x="141" y="32.5"/>
</g>
</svg>
