<?xml version="1.0" encoding="UTF-8"?>
<svg xmlns="http://www.w3.org/2000/svg" xmlns:xlink="http://www.w3.org/1999/xlink" width="1080" height="1920" viewBox="0 0 1080 1920">
<defs>
<g>
<g id="glyph-0-0">
<path d="M 6.910156 -4.574219 L 5.21875 -9.503906 L 3.417969 -4.574219 Z M 4.429688 -11.15625 L 6.136719 -11.15625 L 10.1875 0 L 8.53125 0 L 7.398438 -3.34375 L 2.984375 -3.34375 L 1.777344 0 L 0.226562 0 Z "/>
</g>
<g id="glyph-0-1">
<path d="M 1.527344 -11.15625 L 3.054688 -11.15625 L 3.054688 0 L 1.527344 0 Z "/>
</g>
<g id="glyph-0-2">
<rect x="0" y="0" width="0" height="0" mask="url(#mask-0)"/>
</g>
<g id="glyph-0-3">
<path d="M 1.027344 -8.136719 L 2.421875 -8.136719 L 2.421875 -4.199219 L 6.53125 -8.136719 L 8.363281 -8.136719 L 4.542969 -4.542969 L 8.421875 0 L 6.625 0 L 3.449219 -3.691406 L 2.421875 -2.832031 L 2.421875 0 L 1.027344 0 Z "/>
</g>
<g id="glyph-0-4">
<path d="M 1.011719 -5.695312 C 1.027344 -6.191406 1.117188 -6.613281 1.292969 -6.953125 C 1.464844 -7.296875 1.695312 -7.574219 1.988281 -7.785156 C 2.28125 -7.996094 2.632812 -8.152344 3.035156 -8.246094 C 3.4375 -8.339844 3.875 -8.386719 4.351562 -8.386719 C 4.746094 -8.386719 5.128906 -8.34375 5.503906 -8.265625 C 5.875 -8.183594 6.207031 -8.050781 6.496094 -7.871094 C 6.785156 -7.691406 7.015625 -7.460938 7.1875 -7.175781 C 7.363281 -6.886719 7.453125 -6.539062 7.453125 -6.128906 L 7.453125 -1.398438 C 7.453125 -1.265625 7.488281 -1.152344 7.558594 -1.058594 C 7.628906 -0.964844 7.742188 -0.917969 7.898438 -0.917969 C 7.96875 -0.917969 8.042969 -0.925781 8.121094 -0.9375 C 8.195312 -0.949219 8.273438 -0.964844 8.355469 -0.980469 L 8.355469 -0.015625 C 8.238281 0.015625 8.125 0.0429688 8.007812 0.0703125 C 7.894531 0.09375 7.761719 0.105469 7.601562 0.105469 C 7.359375 0.105469 7.152344 0.0859375 6.976562 0.046875 C 6.800781 0.00390625 6.65625 -0.0625 6.535156 -0.15625 C 6.417969 -0.25 6.324219 -0.371094 6.257812 -0.519531 C 6.191406 -0.667969 6.148438 -0.851562 6.128906 -1.070312 C 5.957031 -0.882812 5.773438 -0.710938 5.582031 -0.550781 C 5.390625 -0.390625 5.175781 -0.25 4.9375 -0.132812 C 4.699219 -0.015625 4.433594 0.078125 4.140625 0.148438 C 3.847656 0.214844 3.515625 0.25 3.144531 0.25 C 2.832031 0.25 2.527344 0.199219 2.230469 0.0976562 C 1.933594 -0.00390625 1.667969 -0.152344 1.433594 -0.347656 C 1.195312 -0.546875 1.007812 -0.792969 0.867188 -1.082031 C 0.722656 -1.375 0.652344 -1.710938 0.652344 -2.097656 C 0.652344 -2.515625 0.722656 -2.878906 0.867188 -3.1875 C 1.007812 -3.492188 1.191406 -3.75 1.421875 -3.953125 C 1.648438 -4.160156 1.910156 -4.316406 2.203125 -4.429688 C 2.496094 -4.539062 2.796875 -4.613281 3.097656 -4.648438 L 5.386719 -4.929688 C 5.601562 -4.953125 5.773438 -5.039062 5.898438 -5.183594 C 6.023438 -5.328125 6.085938 -5.558594 6.085938 -5.878906 C 6.085938 -6.371094 5.921875 -6.722656 5.601562 -6.9375 C 5.28125 -7.152344 4.816406 -7.261719 4.214844 -7.261719 C 3.597656 -7.261719 3.136719 -7.132812 2.832031 -6.871094 C 2.527344 -6.609375 2.355469 -6.21875 2.316406 -5.695312 Z M 6.054688 -4.140625 C 5.941406 -4.058594 5.804688 -3.992188 5.640625 -3.9375 C 5.476562 -3.886719 5.292969 -3.839844 5.097656 -3.804688 C 4.898438 -3.769531 4.6875 -3.738281 4.464844 -3.710938 C 4.242188 -3.683594 4.019531 -3.652344 3.796875 -3.625 C 3.542969 -3.589844 3.3125 -3.535156 3.097656 -3.472656 C 2.886719 -3.40625 2.703125 -3.320312 2.542969 -3.214844 C 2.386719 -3.105469 2.265625 -2.980469 2.179688 -2.828125 C 2.09375 -2.679688 2.050781 -2.503906 2.050781 -2.300781 C 2.050781 -2.066406 2.085938 -1.863281 2.160156 -1.6875 C 2.234375 -1.507812 2.335938 -1.359375 2.464844 -1.238281 C 2.59375 -1.117188 2.75 -1.027344 2.933594 -0.964844 C 3.113281 -0.902344 3.3125 -0.875 3.53125 -0.875 C 3.667969 -0.875 3.824219 -0.890625 4.003906 -0.921875 C 4.179688 -0.957031 4.363281 -1.003906 4.550781 -1.070312 C 4.738281 -1.136719 4.921875 -1.222656 5.101562 -1.324219 C 5.28125 -1.429688 5.441406 -1.554688 5.582031 -1.703125 C 5.722656 -1.847656 5.839844 -2.015625 5.925781 -2.203125 C 6.011719 -2.390625 6.054688 -2.601562 6.054688 -2.832031 Z "/>
</g>
<g id="glyph-0-5">
<path d="M 1.027344 -8.136719 L 2.421875 -8.136719 L 2.421875 -4.855469 L 6.222656 -4.855469 L 6.222656 -8.136719 L 7.625 -8.136719 L 7.625 0 L 6.222656 0 L 6.222656 -3.636719 L 2.421875 -3.636719 L 2.421875 0 L 1.027344 0 Z "/>
</g>
<g id="glyph-0-6">
<path d="M 7.808594 0 L 1.519531 0 L 1.519531 1.988281 L 0.210938 1.988281 L 0.210938 -1.214844 L 1.285156 -1.214844 C 1.507812 -1.761719 1.683594 -2.320312 1.816406 -2.890625 C 1.949219 -3.460938 2.046875 -4.035156 2.121094 -4.613281 C 2.191406 -5.195312 2.234375 -5.777344 2.257812 -6.363281 C 2.277344 -6.953125 2.285156 -7.542969 2.285156 -8.136719 L 7.96875 -8.136719 L 7.96875 -1.214844 L 9.113281 -1.214844 L 9.113281 1.988281 L 7.808594 1.988281 Z M 6.570312 -1.214844 L 6.570312 -6.917969 L 3.625 -6.917969 C 3.589844 -6.457031 3.550781 -5.984375 3.511719 -5.5 C 3.472656 -5.011719 3.425781 -4.527344 3.359375 -4.035156 C 3.296875 -3.546875 3.214844 -3.066406 3.109375 -2.589844 C 3.007812 -2.113281 2.871094 -1.65625 2.703125 -1.214844 Z "/>
</g>
<g id="glyph-0-7">
<path d="M 3.21875 -11.292969 C 3.285156 -10.96875 3.421875 -10.714844 3.628906 -10.523438 C 3.835938 -10.332031 4.144531 -10.238281 4.550781 -10.238281 C 4.960938 -10.238281 5.269531 -10.332031 5.476562 -10.515625 C 5.683594 -10.699219 5.816406 -10.960938 5.878906 -11.292969 L 7.179688 -11.292969 C 7.171875 -10.988281 7.105469 -10.714844 6.980469 -10.46875 C 6.855469 -10.222656 6.675781 -10.015625 6.445312 -9.84375 C 6.214844 -9.671875 5.9375 -9.539062 5.617188 -9.445312 C 5.296875 -9.351562 4.941406 -9.304688 4.550781 -9.304688 C 4.160156 -9.304688 3.804688 -9.351562 3.488281 -9.441406 C 3.167969 -9.53125 2.894531 -9.664062 2.667969 -9.835938 C 2.4375 -10.007812 2.257812 -10.21875 2.128906 -10.460938 C 2 -10.707031 1.933594 -10.984375 1.929688 -11.292969 Z M 1.027344 -8.136719 L 2.421875 -8.136719 L 2.421875 -1.898438 L 2.453125 -1.898438 L 6.449219 -8.136719 L 8.050781 -8.136719 L 8.050781 0 L 6.644531 0 L 6.644531 -6.234375 L 6.617188 -6.234375 L 2.628906 0 L 1.027344 0 Z "/>
</g>
<g id="glyph-0-8">
<path d="M 6.78125 -4.808594 L 7.488281 -4.808594 L 10.15625 -8.136719 L 11.839844 -8.136719 L 8.644531 -4.277344 L 11.964844 0 L 10.238281 0 L 7.488281 -3.699219 L 6.78125 -3.699219 L 6.78125 0 L 5.386719 0 L 5.386719 -3.699219 L 4.671875 -3.699219 L 1.898438 0 L 0.175781 0 L 3.523438 -4.277344 L 0.34375 -8.136719 L 2.035156 -8.136719 L 4.671875 -4.808594 L 5.386719 -4.808594 L 5.386719 -8.136719 L 6.78125 -8.136719 Z "/>
</g>
<g id="glyph-0-9">
<path d="M 6.707031 -4.078125 C 6.707031 -4.527344 6.65625 -4.945312 6.554688 -5.320312 C 6.453125 -5.699219 6.300781 -6.023438 6.097656 -6.296875 C 5.894531 -6.570312 5.648438 -6.785156 5.351562 -6.9375 C 5.054688 -7.09375 4.710938 -7.171875 4.320312 -7.171875 C 3.929688 -7.171875 3.589844 -7.09375 3.296875 -6.9375 C 3.003906 -6.785156 2.753906 -6.570312 2.550781 -6.296875 C 2.347656 -6.023438 2.199219 -5.699219 2.097656 -5.320312 C 1.996094 -4.941406 1.945312 -4.53125 1.945312 -4.078125 C 1.945312 -3.621094 1.996094 -3.203125 2.097656 -2.820312 C 2.199219 -2.4375 2.347656 -2.113281 2.550781 -1.839844 C 2.753906 -1.566406 3.003906 -1.351562 3.296875 -1.195312 C 3.589844 -1.042969 3.933594 -0.964844 4.320312 -0.964844 C 4.710938 -0.964844 5.054688 -1.042969 5.351562 -1.195312 C 5.648438 -1.351562 5.898438 -1.566406 6.097656 -1.839844 C 6.300781 -2.113281 6.453125 -2.4375 6.554688 -2.820312 C 6.65625 -3.203125 6.707031 -3.625 6.707031 -4.078125 Z M 8.105469 -4.078125 C 8.105469 -3.410156 8.019531 -2.808594 7.847656 -2.273438 C 7.675781 -1.738281 7.425781 -1.285156 7.101562 -0.910156 C 6.777344 -0.535156 6.382812 -0.25 5.914062 -0.0507812 C 5.445312 0.148438 4.914062 0.25 4.320312 0.25 C 3.730469 0.25 3.199219 0.152344 2.734375 -0.0507812 C 2.269531 -0.25 1.875 -0.535156 1.550781 -0.910156 C 1.226562 -1.285156 0.976562 -1.742188 0.804688 -2.273438 C 0.632812 -2.808594 0.546875 -3.410156 0.546875 -4.078125 C 0.546875 -4.738281 0.632812 -5.332031 0.804688 -5.863281 C 0.976562 -6.394531 1.226562 -6.847656 1.550781 -7.222656 C 1.875 -7.597656 2.269531 -7.886719 2.734375 -8.085938 C 3.199219 -8.285156 3.730469 -8.386719 4.320312 -8.386719 C 4.914062 -8.386719 5.445312 -8.285156 5.914062 -8.085938 C 6.382812 -7.886719 6.777344 -7.597656 7.101562 -7.222656 C 7.425781 -6.847656 7.675781 -6.394531 7.847656 -5.863281 C 8.019531 -5.332031 8.105469 -4.738281 8.105469 -4.078125 Z "/>
</g>
<g id="glyph-0-10">
<path d="M 6.222656 -6.917969 L 2.421875 -6.917969 L 2.421875 0 L 1.027344 0 L 1.027344 -8.136719 L 7.625 -8.136719 L 7.625 0 L 6.222656 0 Z "/>
</g>
<g id="glyph-0-11">
<path d="M 7.34375 -11.265625 C 7.335938 -11.1875 7.320312 -11.097656 7.304688 -10.988281 C 7.285156 -10.878906 7.25 -10.761719 7.199219 -10.640625 C 7.148438 -10.519531 7.082031 -10.398438 6.992188 -10.273438 C 6.902344 -10.148438 6.785156 -10.035156 6.636719 -9.925781 C 6.558594 -9.871094 6.484375 -9.824219 6.417969 -9.78125 C 6.351562 -9.742188 6.269531 -9.707031 6.167969 -9.675781 C 6.066406 -9.644531 5.9375 -9.621094 5.78125 -9.601562 C 5.625 -9.582031 5.414062 -9.566406 5.148438 -9.5625 L 4.574219 -9.546875 C 4.179688 -9.539062 3.820312 -9.457031 3.503906 -9.308594 C 3.1875 -9.160156 2.910156 -8.953125 2.667969 -8.683594 C 2.429688 -8.417969 2.230469 -8.097656 2.074219 -7.726562 C 1.917969 -7.351562 1.800781 -6.933594 1.722656 -6.472656 C 1.828125 -6.675781 1.960938 -6.871094 2.121094 -7.066406 C 2.277344 -7.261719 2.472656 -7.4375 2.703125 -7.589844 C 2.9375 -7.746094 3.210938 -7.871094 3.523438 -7.964844 C 3.839844 -8.058594 4.203125 -8.105469 4.617188 -8.105469 C 5.089844 -8.105469 5.535156 -8.019531 5.957031 -7.855469 C 6.382812 -7.6875 6.75 -7.4375 7.066406 -7.101562 C 7.382812 -6.765625 7.636719 -6.351562 7.824219 -5.855469 C 8.011719 -5.359375 8.105469 -4.78125 8.105469 -4.125 C 8.105469 -3.917969 8.089844 -3.664062 8.058594 -3.367188 C 8.027344 -3.070312 7.96875 -2.761719 7.875 -2.4375 C 7.785156 -2.113281 7.65625 -1.792969 7.484375 -1.46875 C 7.316406 -1.148438 7.089844 -0.859375 6.808594 -0.609375 C 6.527344 -0.355469 6.1875 -0.148438 5.785156 0.0117188 C 5.382812 0.171875 4.898438 0.25 4.335938 0.25 C 4.105469 0.25 3.855469 0.230469 3.597656 0.195312 C 3.335938 0.15625 3.074219 0.0859375 2.8125 -0.015625 C 2.554688 -0.117188 2.300781 -0.257812 2.054688 -0.441406 C 1.808594 -0.625 1.585938 -0.855469 1.382812 -1.140625 C 1.28125 -1.28125 1.179688 -1.445312 1.082031 -1.628906 C 0.984375 -1.8125 0.894531 -2.039062 0.8125 -2.300781 C 0.730469 -2.566406 0.667969 -2.875 0.617188 -3.234375 C 0.570312 -3.59375 0.546875 -4.019531 0.546875 -4.511719 C 0.546875 -4.835938 0.5625 -5.203125 0.59375 -5.613281 C 0.625 -6.023438 0.675781 -6.441406 0.753906 -6.867188 C 0.828125 -7.292969 0.929688 -7.703125 1.054688 -8.101562 C 1.183594 -8.5 1.34375 -8.847656 1.542969 -9.144531 C 1.753906 -9.46875 1.976562 -9.730469 2.210938 -9.933594 C 2.445312 -10.136719 2.691406 -10.296875 2.953125 -10.414062 C 3.21875 -10.53125 3.5 -10.613281 3.804688 -10.664062 C 4.109375 -10.714844 4.4375 -10.746094 4.792969 -10.761719 L 5.285156 -10.777344 C 5.449219 -10.78125 5.585938 -10.792969 5.699219 -10.804688 C 5.8125 -10.816406 5.910156 -10.839844 5.984375 -10.871094 C 6.0625 -10.898438 6.121094 -10.945312 6.167969 -11.007812 C 6.214844 -11.066406 6.25 -11.152344 6.28125 -11.265625 Z M 1.945312 -3.917969 C 1.945312 -3.765625 1.953125 -3.585938 1.972656 -3.378906 C 1.988281 -3.171875 2.027344 -2.957031 2.082031 -2.730469 C 2.136719 -2.503906 2.21875 -2.28125 2.324219 -2.058594 C 2.429688 -1.835938 2.570312 -1.636719 2.746094 -1.460938 C 2.921875 -1.285156 3.136719 -1.144531 3.394531 -1.035156 C 3.652344 -0.925781 3.960938 -0.875 4.320312 -0.875 C 4.722656 -0.875 5.058594 -0.9375 5.332031 -1.066406 C 5.605469 -1.195312 5.832031 -1.363281 6.007812 -1.570312 C 6.183594 -1.773438 6.320312 -2 6.414062 -2.25 C 6.507812 -2.496094 6.578125 -2.738281 6.621094 -2.972656 C 6.664062 -3.207031 6.6875 -3.425781 6.695312 -3.621094 C 6.703125 -3.816406 6.707031 -3.960938 6.707031 -4.0625 C 6.707031 -4.433594 6.664062 -4.796875 6.582031 -5.148438 C 6.5 -5.503906 6.363281 -5.816406 6.179688 -6.089844 C 5.996094 -6.363281 5.753906 -6.585938 5.457031 -6.753906 C 5.160156 -6.921875 4.796875 -7.003906 4.367188 -7.003906 C 3.945312 -7.003906 3.585938 -6.921875 3.28125 -6.757812 C 2.976562 -6.59375 2.726562 -6.367188 2.53125 -6.085938 C 2.332031 -5.804688 2.183594 -5.480469 2.089844 -5.109375 C 1.992188 -4.734375 1.945312 -4.339844 1.945312 -3.917969 Z "/>
</g>
<g id="glyph-0-12">
<path d="M 7.953125 -2.597656 C 7.898438 -2.242188 7.773438 -1.894531 7.589844 -1.558594 C 7.402344 -1.21875 7.15625 -0.914062 6.851562 -0.644531 C 6.546875 -0.375 6.1875 -0.160156 5.777344 0.00390625 C 5.363281 0.167969 4.90625 0.25 4.40625 0.25 C 3.859375 0.25 3.351562 0.160156 2.890625 -0.0195312 C 2.425781 -0.199219 2.027344 -0.46875 1.691406 -0.832031 C 1.355469 -1.195312 1.089844 -1.648438 0.894531 -2.195312 C 0.703125 -2.742188 0.609375 -3.386719 0.609375 -4.125 C 0.609375 -4.621094 0.660156 -5.070312 0.769531 -5.472656 C 0.878906 -5.875 1.027344 -6.234375 1.210938 -6.550781 C 1.394531 -6.867188 1.609375 -7.140625 1.851562 -7.371094 C 2.097656 -7.601562 2.351562 -7.792969 2.625 -7.941406 C 2.894531 -8.089844 3.171875 -8.203125 3.457031 -8.273438 C 3.738281 -8.347656 4.011719 -8.386719 4.277344 -8.386719 C 4.832031 -8.386719 5.34375 -8.300781 5.804688 -8.136719 C 6.265625 -7.96875 6.660156 -7.714844 6.992188 -7.371094 C 7.324219 -7.03125 7.582031 -6.601562 7.765625 -6.085938 C 7.949219 -5.574219 8.042969 -4.96875 8.042969 -4.277344 L 8.042969 -3.578125 L 2.097656 -3.578125 C 2.101562 -3.183594 2.15625 -2.824219 2.261719 -2.503906 C 2.371094 -2.179688 2.523438 -1.90625 2.71875 -1.679688 C 2.917969 -1.449219 3.15625 -1.273438 3.4375 -1.152344 C 3.71875 -1.027344 4.035156 -0.964844 4.390625 -0.964844 C 4.75 -0.964844 5.054688 -1.015625 5.300781 -1.117188 C 5.550781 -1.21875 5.757812 -1.347656 5.925781 -1.503906 C 6.09375 -1.660156 6.226562 -1.835938 6.332031 -2.027344 C 6.433594 -2.21875 6.523438 -2.410156 6.59375 -2.597656 Z M 6.636719 -4.695312 C 6.628906 -5.089844 6.570312 -5.441406 6.460938 -5.75 C 6.351562 -6.058594 6.199219 -6.316406 6.003906 -6.527344 C 5.808594 -6.738281 5.574219 -6.898438 5.300781 -7.007812 C 5.027344 -7.117188 4.722656 -7.171875 4.390625 -7.171875 C 4.070312 -7.171875 3.777344 -7.109375 3.507812 -6.984375 C 3.242188 -6.859375 3.003906 -6.6875 2.804688 -6.46875 C 2.601562 -6.246094 2.4375 -5.988281 2.316406 -5.683594 C 2.195312 -5.382812 2.121094 -5.054688 2.097656 -4.695312 Z "/>
</g>
<g id="glyph-0-13">
<path d="M 0.949219 -8.136719 L 2.347656 -8.136719 L 2.347656 -7.019531 L 2.378906 -7.019531 C 2.46875 -7.207031 2.582031 -7.382812 2.722656 -7.550781 C 2.863281 -7.71875 3.03125 -7.863281 3.222656 -7.988281 C 3.417969 -8.109375 3.644531 -8.207031 3.898438 -8.277344 C 4.15625 -8.347656 4.449219 -8.386719 4.777344 -8.386719 C 5.214844 -8.386719 5.628906 -8.300781 6.03125 -8.136719 C 6.429688 -7.96875 6.785156 -7.71875 7.09375 -7.382812 C 7.402344 -7.046875 7.648438 -6.628906 7.832031 -6.125 C 8.011719 -5.621094 8.105469 -5.035156 8.105469 -4.367188 C 8.105469 -3.53125 8.019531 -2.820312 7.851562 -2.238281 C 7.679688 -1.652344 7.441406 -1.175781 7.128906 -0.804688 C 6.816406 -0.433594 6.441406 -0.167969 6 0 C 5.558594 0.167969 5.070312 0.25 4.527344 0.25 C 4.257812 0.25 4.007812 0.214844 3.773438 0.144531 C 3.542969 0.0742188 3.332031 -0.0195312 3.148438 -0.132812 C 2.964844 -0.246094 2.804688 -0.375 2.671875 -0.511719 C 2.542969 -0.652344 2.441406 -0.789062 2.378906 -0.917969 L 2.347656 -0.917969 L 2.347656 3.207031 L 0.949219 3.207031 Z M 2.316406 -4.027344 C 2.316406 -3.585938 2.359375 -3.179688 2.445312 -2.804688 C 2.53125 -2.433594 2.664062 -2.113281 2.84375 -1.839844 C 3.023438 -1.566406 3.25 -1.351562 3.519531 -1.195312 C 3.792969 -1.042969 4.113281 -0.964844 4.480469 -0.964844 C 4.867188 -0.964844 5.199219 -1.042969 5.480469 -1.195312 C 5.761719 -1.351562 5.992188 -1.566406 6.175781 -1.839844 C 6.359375 -2.113281 6.492188 -2.433594 6.578125 -2.804688 C 6.664062 -3.179688 6.707031 -3.585938 6.707031 -4.027344 C 6.707031 -4.488281 6.664062 -4.910156 6.578125 -5.292969 C 6.492188 -5.679688 6.359375 -6.011719 6.175781 -6.289062 C 5.992188 -6.566406 5.761719 -6.785156 5.480469 -6.9375 C 5.199219 -7.09375 4.867188 -7.171875 4.480469 -7.171875 C 4.113281 -7.171875 3.792969 -7.09375 3.519531 -6.9375 C 3.25 -6.785156 3.023438 -6.566406 2.84375 -6.289062 C 2.664062 -6.011719 2.53125 -5.679688 2.445312 -5.292969 C 2.359375 -4.910156 2.316406 -4.488281 2.316406 -4.027344 Z "/>
</g>
<g id="glyph-0-14">
<path d="M 3.191406 -6.917969 L 0.386719 -6.917969 L 0.386719 -8.136719 L 7.390625 -8.136719 L 7.390625 -6.917969 L 4.585938 -6.917969 L 4.585938 0 L 3.191406 0 Z "/>
</g>
<g id="glyph-0-15">
<path d="M 7.421875 -2.863281 C 7.402344 -2.664062 7.363281 -2.449219 7.304688 -2.21875 C 7.246094 -1.984375 7.160156 -1.753906 7.046875 -1.523438 C 6.9375 -1.292969 6.792969 -1.070312 6.621094 -0.859375 C 6.445312 -0.644531 6.230469 -0.457031 5.980469 -0.292969 C 5.730469 -0.128906 5.4375 0.00390625 5.097656 0.101562 C 4.757812 0.199219 4.371094 0.25 3.933594 0.25 C 3.695312 0.25 3.445312 0.222656 3.183594 0.164062 C 2.917969 0.105469 2.664062 0.0078125 2.410156 -0.128906 C 2.160156 -0.265625 1.921875 -0.441406 1.699219 -0.65625 C 1.472656 -0.871094 1.273438 -1.140625 1.105469 -1.457031 C 0.9375 -1.777344 0.800781 -2.148438 0.699219 -2.570312 C 0.597656 -2.992188 0.546875 -3.480469 0.546875 -4.027344 C 0.546875 -4.699219 0.644531 -5.304688 0.835938 -5.84375 C 1.027344 -6.382812 1.285156 -6.839844 1.605469 -7.214844 C 1.925781 -7.589844 2.300781 -7.878906 2.730469 -8.082031 C 3.160156 -8.285156 3.609375 -8.386719 4.078125 -8.386719 C 4.503906 -8.386719 4.878906 -8.339844 5.207031 -8.25 C 5.535156 -8.15625 5.816406 -8.035156 6.0625 -7.882812 C 6.304688 -7.730469 6.507812 -7.554688 6.675781 -7.355469 C 6.84375 -7.15625 6.980469 -6.945312 7.082031 -6.726562 C 7.1875 -6.503906 7.265625 -6.28125 7.316406 -6.054688 C 7.371094 -5.824219 7.40625 -5.609375 7.421875 -5.402344 L 6.113281 -5.402344 C 6.042969 -5.953125 5.851562 -6.386719 5.539062 -6.699219 C 5.230469 -7.011719 4.792969 -7.171875 4.230469 -7.171875 C 3.847656 -7.171875 3.511719 -7.089844 3.222656 -6.933594 C 2.9375 -6.777344 2.699219 -6.558594 2.511719 -6.277344 C 2.320312 -5.996094 2.179688 -5.65625 2.085938 -5.261719 C 1.992188 -4.863281 1.945312 -4.425781 1.945312 -3.949219 C 1.945312 -3.414062 1.996094 -2.949219 2.097656 -2.5625 C 2.199219 -2.175781 2.34375 -1.855469 2.53125 -1.605469 C 2.71875 -1.355469 2.945312 -1.171875 3.214844 -1.050781 C 3.488281 -0.933594 3.796875 -0.875 4.140625 -0.875 C 4.382812 -0.875 4.613281 -0.917969 4.832031 -1.007812 C 5.050781 -1.09375 5.242188 -1.222656 5.414062 -1.394531 C 5.585938 -1.5625 5.734375 -1.773438 5.855469 -2.019531 C 5.976562 -2.269531 6.0625 -2.550781 6.113281 -2.863281 Z "/>
</g>
<g id="glyph-0-16">
<path d="M 1.027344 -8.136719 L 2.421875 -8.136719 L 2.421875 -1.898438 L 2.453125 -1.898438 L 6.449219 -8.136719 L 8.050781 -8.136719 L 8.050781 0 L 6.644531 0 L 6.644531 -6.234375 L 6.617188 -6.234375 L 2.628906 0 L 1.027344 0 Z "/>
</g>
<g id="glyph-0-17">
<path d="M 1.328125 -11.15625 L 6.351562 -11.15625 C 7.34375 -11.15625 8.140625 -10.878906 8.75 -10.320312 C 9.359375 -9.757812 9.660156 -8.972656 9.660156 -7.960938 C 9.660156 -7.089844 9.390625 -6.332031 8.847656 -5.683594 C 8.304688 -5.039062 7.472656 -4.71875 6.351562 -4.71875 L 2.839844 -4.71875 L 2.839844 0 L 1.328125 0 Z M 8.136719 -7.953125 C 8.136719 -8.773438 7.832031 -9.328125 7.222656 -9.625 C 6.890625 -9.78125 6.429688 -9.859375 5.847656 -9.859375 L 2.839844 -9.859375 L 2.839844 -5.992188 L 5.847656 -5.992188 C 6.527344 -5.992188 7.078125 -6.136719 7.5 -6.425781 C 7.921875 -6.714844 8.136719 -7.222656 8.136719 -7.953125 Z "/>
</g>
<g id="glyph-0-18">
<path d="M 6.371094 -6.046875 C 7.082031 -6.046875 7.640625 -6.1875 8.054688 -6.472656 C 8.46875 -6.753906 8.675781 -7.265625 8.675781 -8.003906 C 8.675781 -8.800781 8.386719 -9.34375 7.808594 -9.632812 C 7.5 -9.785156 7.085938 -9.859375 6.570312 -9.859375 L 2.878906 -9.859375 L 2.878906 -6.046875 Z M 1.367188 -11.15625 L 6.53125 -11.15625 C 7.382812 -11.15625 8.085938 -11.035156 8.636719 -10.785156 C 9.683594 -10.308594 10.207031 -9.429688 10.207031 -8.148438 C 10.207031 -7.480469 10.070312 -6.933594 9.792969 -6.507812 C 9.519531 -6.082031 9.132812 -5.742188 8.636719 -5.484375 C 9.070312 -5.308594 9.398438 -5.074219 9.621094 -4.785156 C 9.839844 -4.496094 9.960938 -4.027344 9.988281 -3.378906 L 10.042969 -1.882812 C 10.058594 -1.457031 10.09375 -1.140625 10.148438 -0.933594 C 10.238281 -0.578125 10.402344 -0.351562 10.632812 -0.25 L 10.632812 0 L 8.78125 0 C 8.730469 -0.0976562 8.6875 -0.21875 8.660156 -0.371094 C 8.628906 -0.523438 8.601562 -0.816406 8.582031 -1.253906 L 8.492188 -3.113281 C 8.457031 -3.84375 8.183594 -4.332031 7.679688 -4.582031 C 7.390625 -4.71875 6.9375 -4.785156 6.320312 -4.785156 L 2.878906 -4.785156 L 2.878906 0 L 1.367188 0 Z "/>
</g>
<g id="glyph-0-19">
<path d="M 6 -11.460938 C 7.96875 -11.460938 9.429688 -10.828125 10.375 -9.5625 C 11.113281 -8.574219 11.484375 -7.3125 11.484375 -5.773438 C 11.484375 -4.105469 11.0625 -2.722656 10.214844 -1.617188 C 9.222656 -0.320312 7.808594 0.328125 5.96875 0.328125 C 4.253906 0.328125 2.902344 -0.242188 1.921875 -1.375 C 1.046875 -2.46875 0.609375 -3.851562 0.609375 -5.523438 C 0.609375 -7.03125 0.980469 -8.320312 1.730469 -9.394531 C 2.695312 -10.773438 4.117188 -11.460938 6 -11.460938 Z M 6.152344 -1.027344 C 7.484375 -1.027344 8.449219 -1.503906 9.042969 -2.457031 C 9.636719 -3.410156 9.933594 -4.507812 9.933594 -5.75 C 9.933594 -7.0625 9.59375 -8.117188 8.90625 -8.917969 C 8.21875 -9.71875 7.28125 -10.117188 6.089844 -10.117188 C 4.9375 -10.117188 3.996094 -9.722656 3.265625 -8.929688 C 2.535156 -8.136719 2.171875 -6.96875 2.171875 -5.421875 C 2.171875 -4.1875 2.484375 -3.144531 3.109375 -2.296875 C 3.734375 -1.449219 4.75 -1.027344 6.152344 -1.027344 Z "/>
</g>
<g id="glyph-0-20">
<path d="M 1.148438 -11.15625 L 3.3125 -11.15625 L 6.515625 -1.722656 L 9.699219 -11.15625 L 11.839844 -11.15625 L 11.839844 0 L 10.40625 0 L 10.40625 -6.585938 C 10.40625 -6.8125 10.410156 -7.191406 10.421875 -7.71875 C 10.429688 -8.246094 10.4375 -8.808594 10.4375 -9.410156 L 7.253906 0 L 5.757812 0 L 2.550781 -9.410156 L 2.550781 -9.070312 C 2.550781 -8.796875 2.558594 -8.378906 2.570312 -7.820312 C 2.582031 -7.261719 2.589844 -6.847656 2.589844 -6.585938 L 2.589844 0 L 1.148438 0 Z "/>
</g>
<g id="glyph-0-21">
<path d="M 9.304688 -11.15625 L 9.304688 -9.828125 L 5.542969 -9.828125 L 5.542969 0 L 4.011719 0 L 4.011719 -9.828125 L 0.25 -9.828125 L 0.25 -11.15625 Z "/>
</g>
<g id="glyph-0-22">
<path d="M 2.566406 -11.15625 L 2.316406 -6.691406 L 1.4375 -6.691406 L 1.183594 -11.15625 Z "/>
</g>
<g id="glyph-0-23">
<path d="M 0.175781 -8.136719 L 1.710938 -8.136719 L 3.875 -1.511719 L 3.902344 -1.511719 L 6.070312 -8.136719 L 7.601562 -8.136719 L 4.496094 0.328125 C 4.339844 0.753906 4.195312 1.121094 4.0625 1.4375 C 3.929688 1.75 3.804688 2.015625 3.675781 2.238281 C 3.550781 2.457031 3.421875 2.636719 3.292969 2.773438 C 3.164062 2.910156 3.023438 3.015625 2.867188 3.09375 C 2.710938 3.171875 2.539062 3.226562 2.351562 3.253906 C 2.160156 3.28125 1.941406 3.296875 1.695312 3.296875 C 1.492188 3.296875 1.332031 3.289062 1.21875 3.269531 C 1.105469 3.253906 1.003906 3.230469 0.917969 3.207031 L 0.917969 1.945312 C 1.011719 1.976562 1.128906 2.003906 1.277344 2.035156 C 1.421875 2.066406 1.578125 2.082031 1.738281 2.082031 C 1.996094 2.082031 2.207031 2.019531 2.367188 1.894531 C 2.527344 1.769531 2.648438 1.59375 2.734375 1.367188 L 3.191406 0.21875 Z "/>
</g>
<g id="glyph-0-24">
<path d="M 6.363281 -4.792969 L 6.363281 -8.164062 L 7.695312 -8.164062 L 7.695312 -0.996094 L 8.394531 -0.996094 L 8.394531 2.082031 L 7.0625 2.082031 L 7.0625 0 L 6.363281 0 L 6.363281 -3.714844 L 2.429688 -3.714844 L 2.429688 0 L 1.101562 0 L 1.101562 -8.164062 L 2.429688 -8.164062 L 2.429688 -4.792969 Z "/>
</g>
<g id="glyph-0-25">
<path d="M 4.320312 -8.402344 C 5.671875 -8.402344 6.667969 -7.917969 7.308594 -6.949219 C 7.808594 -6.195312 8.058594 -5.21875 8.058594 -4.027344 C 8.058594 -2.832031 7.808594 -1.855469 7.308594 -1.101562 C 6.667969 -0.128906 5.675781 0.355469 4.320312 0.355469 C 2.964844 0.355469 1.96875 -0.125 1.328125 -1.09375 C 0.828125 -1.851562 0.578125 -2.832031 0.578125 -4.027344 C 0.578125 -5.210938 0.832031 -6.183594 1.335938 -6.941406 C 1.984375 -7.914062 2.980469 -8.402344 4.320312 -8.402344 Z M 2.507812 -1.761719 C 2.953125 -1.0625 3.558594 -0.714844 4.320312 -0.714844 C 5.085938 -0.714844 5.691406 -1.0625 6.136719 -1.761719 C 6.441406 -2.273438 6.625 -2.859375 6.691406 -3.515625 L 1.953125 -3.515625 C 2.011719 -2.859375 2.199219 -2.273438 2.507812 -1.761719 Z M 6.128906 -6.273438 C 5.679688 -6.976562 5.078125 -7.328125 4.320312 -7.328125 C 3.445312 -7.328125 2.800781 -6.941406 2.386719 -6.167969 C 2.15625 -5.722656 2.015625 -5.210938 1.960938 -4.632812 L 6.675781 -4.632812 C 6.605469 -5.234375 6.421875 -5.78125 6.128906 -6.273438 Z "/>
</g>
<g id="glyph-0-26">
<path d="M 3.128906 -4.703125 L 3.835938 -4.703125 C 4.023438 -4.703125 4.21875 -4.722656 4.421875 -4.769531 C 4.625 -4.816406 4.808594 -4.886719 4.976562 -4.988281 C 5.144531 -5.085938 5.28125 -5.214844 5.390625 -5.371094 C 5.5 -5.527344 5.550781 -5.71875 5.550781 -5.941406 C 5.550781 -6.101562 5.519531 -6.257812 5.449219 -6.40625 C 5.382812 -6.554688 5.28125 -6.6875 5.144531 -6.800781 C 5.011719 -6.914062 4.84375 -7.003906 4.640625 -7.070312 C 4.4375 -7.136719 4.203125 -7.171875 3.933594 -7.171875 C 3.792969 -7.171875 3.625 -7.148438 3.433594 -7.109375 C 3.242188 -7.070312 3.050781 -6.996094 2.867188 -6.886719 C 2.683594 -6.777344 2.519531 -6.621094 2.375 -6.421875 C 2.230469 -6.222656 2.136719 -5.960938 2.097656 -5.644531 L 0.789062 -5.644531 C 0.824219 -6.007812 0.898438 -6.328125 1.011719 -6.605469 C 1.121094 -6.878906 1.261719 -7.121094 1.429688 -7.320312 C 1.59375 -7.523438 1.785156 -7.695312 1.992188 -7.832031 C 2.203125 -7.96875 2.421875 -8.078125 2.648438 -8.15625 C 2.871094 -8.238281 3.097656 -8.296875 3.328125 -8.332031 C 3.554688 -8.367188 3.773438 -8.386719 3.980469 -8.386719 C 4.34375 -8.386719 4.703125 -8.339844 5.058594 -8.246094 C 5.414062 -8.152344 5.730469 -8.007812 6.011719 -7.820312 C 6.292969 -7.628906 6.519531 -7.390625 6.691406 -7.101562 C 6.863281 -6.8125 6.949219 -6.476562 6.949219 -6.089844 C 6.949219 -5.84375 6.914062 -5.625 6.84375 -5.433594 C 6.773438 -5.246094 6.679688 -5.078125 6.566406 -4.9375 C 6.453125 -4.796875 6.324219 -4.675781 6.183594 -4.578125 C 6.042969 -4.476562 5.902344 -4.394531 5.765625 -4.328125 L 5.765625 -4.292969 C 5.90625 -4.265625 6.0625 -4.214844 6.234375 -4.136719 C 6.40625 -4.058594 6.566406 -3.945312 6.714844 -3.800781 C 6.863281 -3.65625 6.984375 -3.472656 7.082031 -3.246094 C 7.179688 -3.019531 7.230469 -2.746094 7.230469 -2.421875 C 7.230469 -1.96875 7.132812 -1.574219 6.9375 -1.238281 C 6.742188 -0.902344 6.488281 -0.625 6.175781 -0.40625 C 5.863281 -0.1875 5.507812 -0.0234375 5.113281 0.0859375 C 4.71875 0.195312 4.320312 0.25 3.917969 0.25 C 3.402344 0.25 2.9375 0.183594 2.519531 0.0546875 C 2.101562 -0.078125 1.738281 -0.265625 1.4375 -0.507812 C 1.132812 -0.75 0.890625 -1.042969 0.710938 -1.382812 C 0.53125 -1.722656 0.421875 -2.097656 0.386719 -2.507812 L 1.792969 -2.507812 C 1.828125 -2.207031 1.914062 -1.960938 2.050781 -1.761719 C 2.1875 -1.566406 2.351562 -1.40625 2.542969 -1.292969 C 2.738281 -1.175781 2.949219 -1.089844 3.1875 -1.039062 C 3.421875 -0.988281 3.660156 -0.964844 3.902344 -0.964844 C 4.546875 -0.964844 5.03125 -1.09375 5.351562 -1.351562 C 5.671875 -1.609375 5.832031 -1.957031 5.832031 -2.394531 C 5.832031 -2.582031 5.804688 -2.746094 5.746094 -2.894531 C 5.6875 -3.039062 5.589844 -3.167969 5.453125 -3.269531 C 5.316406 -3.375 5.136719 -3.453125 4.910156 -3.503906 C 4.683594 -3.558594 4.40625 -3.585938 4.070312 -3.585938 C 4.003906 -3.585938 3.929688 -3.582031 3.847656 -3.582031 C 3.765625 -3.578125 3.679688 -3.574219 3.597656 -3.570312 C 3.511719 -3.566406 3.429688 -3.558594 3.351562 -3.550781 C 3.269531 -3.542969 3.195312 -3.535156 3.128906 -3.53125 Z "/>
</g>
<g id="glyph-0-27">
<path d="M 8.804688 -8.136719 L 10.199219 -8.136719 L 10.199219 0 L 8.804688 0 Z M 1.027344 -8.136719 L 2.421875 -8.136719 L 2.421875 -5.074219 L 4.867188 -5.074219 C 5.308594 -5.074219 5.707031 -5.015625 6.058594 -4.894531 C 6.410156 -4.777344 6.707031 -4.605469 6.949219 -4.386719 C 7.191406 -4.167969 7.378906 -3.898438 7.507812 -3.589844 C 7.636719 -3.277344 7.703125 -2.925781 7.703125 -2.535156 C 7.703125 -2.140625 7.636719 -1.789062 7.507812 -1.476562 C 7.378906 -1.164062 7.191406 -0.898438 6.949219 -0.679688 C 6.707031 -0.460938 6.410156 -0.292969 6.058594 -0.175781 C 5.707031 -0.0585938 5.308594 0 4.867188 0 L 1.027344 0 Z M 2.421875 -1.117188 L 4.585938 -1.117188 C 4.832031 -1.117188 5.058594 -1.140625 5.265625 -1.191406 C 5.476562 -1.242188 5.660156 -1.324219 5.8125 -1.4375 C 5.964844 -1.550781 6.082031 -1.699219 6.167969 -1.878906 C 6.253906 -2.058594 6.296875 -2.277344 6.296875 -2.535156 C 6.296875 -2.789062 6.253906 -3.003906 6.164062 -3.183594 C 6.074219 -3.359375 5.949219 -3.503906 5.792969 -3.621094 C 5.632812 -3.734375 5.441406 -3.816406 5.214844 -3.871094 C 4.988281 -3.921875 4.738281 -3.949219 4.464844 -3.949219 L 2.421875 -3.949219 Z "/>
</g>
</g>
<image id="source-64" x="0" y="0" width="0" height="0"/>
<mask id="mask-0">
<use xlink:href="#source-64"/>
</mask>
</defs>
<g fill="rgb(37.647059%, 64.705882%, 98.039216%)" fill-opacity="1">
<use xlink:href="#glyph-0-0" x="30" y="31.978516"/>
<use xlink:href="#glyph-0-1" x="40" y="31.978516"/>
<use xlink:href="#glyph-0-2" x="44" y="31.978516"/>
</g>
<g fill="rgb(37.647059%, 64.705882%, 98.039216%)" fill-opacity="1">
<use xlink:href="#glyph-0-3" x="48" y="31.978516"/>
<use xlink:href="#glyph-0-4" x="57" y="31.978516"/>
<use xlink:href="#glyph-0-5" x="66" y="31.978516"/>
<use xlink:href="#glyph-0-6" x="75" y="31.978516"/>
<use xlink:href="#glyph-0-4" x="84" y="31.978516"/>
<use xlink:href="#glyph-0-7" x="93" y="31.978516"/>
<use xlink:href="#glyph-0-2" x="102" y="31.978516"/>
<use xlink:href="#glyph-0-8" x="106" y="31.978516"/>
<use xlink:href="#glyph-0-9" x="118" y="31.978516"/>
<use xlink:href="#glyph-0-9" x="127" y="31.978516"/>
<use xlink:href="#glyph-0-10" x="136" y="31.978516"/>
<use xlink:href="#glyph-0-2" x="145" y="31.978516"/>
<use xlink:href="#glyph-0-11" x="149" y="31.978516"/>
<use xlink:href="#glyph-0-12" x="158" y="31.978516"/>
<use xlink:href="#glyph-0-13" x="167" y="31.978516"/>
<use xlink:href="#glyph-0-12" x="176" y="31.978516"/>
<use xlink:href="#glyph-0-14" x="185" y="31.978516"/>
<use xlink:href="#glyph-0-2" x="193" y="31.978516"/>
</g>
<g fill="rgb(37.647059%, 64.705882%, 98.039216%)" fill-opacity="1">
<use xlink:href="#glyph-0-15" x="30" y="54.146484"/>
<use xlink:href="#glyph-0-12" x="38" y="54.146484"/>
<use xlink:href="#glyph-0-5" x="47" y="54.146484"/>
<use xlink:href="#glyph-0-16" x="56" y="54.146484"/>
<use xlink:href="#glyph-0-5" x="65" y="54.146484"/>
<use xlink:href="#glyph-0-2" x="74" y="54.146484"/>
</g>
<g fill="rgb(37.647059%, 64.705882%, 98.039216%)" fill-opacity="1">
<use xlink:href="#glyph-0-17" x="78" y="54.146484"/>
<use xlink:href="#glyph-0-18" x="88" y="54.146484"/>
<use xlink:href="#glyph-0-19" x="99" y="54.146484"/>
<use xlink:href="#glyph-0-20" x="111" y="54.146484"/>
<use xlink:href="#glyph-0-17" x="124" y="54.146484"/>
<use xlink:href="#glyph-0-21" x="134" y="54.146484"/>
<use xlink:href="#glyph-0-22" x="144" y="54.146484"/>
</g>
<g fill="rgb(37.647059%, 64.705882%, 98.039216%)" fill-opacity="1">
<use xlink:href="#glyph-0-23" x="147" y="54.146484"/>
<use xlink:href="#glyph-0-24" x="155" y="54.146484"/>
<use xlink:href="#glyph-0-6" x="164" y="54.146484"/>
<use xlink:href="#glyph-0-4" x="173" y="54.146484"/>
<use xlink:href="#glyph-0-5" x="182" y="54.146484"/>
<use xlink:href="#glyph-0-2" x="191" y="54.146484"/>
<use xlink:href="#glyph-0-3" x="195" y="54.146484"/>
<use xlink:href="#glyph-0-25" x="204" y="54.146484"/>
<use xlink:href="#glyph-0-26" x="213" y="54.146484"/>
<use xlink:href="#glyph-0-2" x="221" y="54.146484"/>
<use xlink:href="#glyph-0-3" x="225" y="54.146484"/>
<use xlink:href="#glyph-0-4" x="234" y="54.146484"/>
<use xlink:href="#glyph-0-13" x="243" y="54.146484"/>
<use xlink:href="#glyph-0-4" x="252" y="54.146484"/>
<use xlink:href="#glyph-0-5" x="261" y="54.146484"/>
<use xlink:href="#glyph-0-6" x="270" y="54.146484"/>
<use xlink:href="#glyph-0-27" x="279" y="54.146484"/>
</g>
</svg>
