<?xml version="1.0" encoding="UTF-8"?>
<svg xmlns="http://www.w3.org/2000/svg" xmlns:xlink="http://www.w3.org/1999/xlink" width="1080" height="1920" viewBox="0 0 1080 1920">
<defs>
<g>
<g id="glyph-0-0">
<path d="M 20.964844 -15.964844 L 20.230469 -15.964844 C 20.21875 -16.042969 20.199219 -16.1875 20.164062 -16.40625 C 19.949219 -18 19.359375 -19.261719 18.390625 -20.183594 C 17.382812 -21.148438 16.085938 -21.628906 14.5 -21.628906 L 13.640625 -21.628906 L 13.640625 -3.53125 C 13.640625 -1.707031 14.550781 -0.765625 16.375 -0.699219 L 16.375 0 L 5.597656 0 L 5.597656 -0.699219 C 7.421875 -0.765625 8.332031 -1.707031 8.332031 -3.53125 L 8.332031 -21.628906 L 7.46875 -21.628906 C 5.886719 -21.628906 4.589844 -21.148438 3.582031 -20.183594 C 2.617188 -19.261719 2.023438 -18 1.804688 -16.40625 C 1.785156 -16.285156 1.757812 -16.140625 1.726562 -15.964844 L 0.992188 -15.964844 L 0.992188 -22.703125 L 20.964844 -22.703125 Z "/>
</g>
<g id="glyph-0-1">
<path d="M 8.332031 0.601562 C 6.074219 0.601562 4.242188 -0.253906 2.832031 -1.96875 C 1.496094 -3.574219 0.828125 -5.527344 0.828125 -7.828125 C 0.828125 -10.140625 1.496094 -12.023438 2.832031 -13.476562 C 4.210938 -14.984375 6.042969 -15.738281 8.332031 -15.738281 C 10.621094 -15.738281 12.449219 -14.984375 13.816406 -13.476562 C 15.140625 -12.023438 15.804688 -10.140625 15.804688 -7.828125 C 15.804688 -5.515625 15.148438 -3.558594 13.835938 -1.953125 C 12.433594 -0.25 10.601562 0.601562 8.332031 0.601562 Z M 8.332031 -0.4375 C 9.546875 -0.4375 10.300781 -1.046875 10.59375 -2.261719 C 10.929688 -3.652344 11.101562 -5.527344 11.101562 -7.894531 C 11.101562 -9.976562 11.023438 -11.382812 10.871094 -12.109375 C 10.503906 -13.921875 9.65625 -14.828125 8.332031 -14.828125 C 7.746094 -14.828125 7.238281 -14.625 6.804688 -14.226562 C 5.980469 -13.464844 5.566406 -11.355469 5.566406 -7.894531 C 5.566406 -4.476562 5.84375 -2.332031 6.394531 -1.464844 C 6.828125 -0.78125 7.476562 -0.4375 8.332031 -0.4375 Z "/>
</g>
<g id="glyph-0-2">
<path d="M 17.871094 0 L 9.960938 0 L 9.960938 -0.730469 L 10.59375 -0.828125 C 11.082031 -0.90625 11.328125 -1.074219 11.328125 -1.335938 C 11.328125 -1.691406 10.894531 -2.425781 10.027344 -3.53125 L 7.226562 -7.097656 L 7.0625 -7.097656 L 7.0625 -1.628906 C 7.0625 -1.03125 7.507812 -0.730469 8.398438 -0.730469 L 8.398438 0 L 0.925781 0 L 0.925781 -0.730469 C 1.707031 -0.730469 2.191406 -0.910156 2.375 -1.269531 C 2.484375 -1.488281 2.539062 -1.839844 2.539062 -2.328125 L 2.539062 -13.003906 C 2.539062 -13.851562 2.292969 -14.34375 1.804688 -14.484375 C 1.589844 -14.550781 1.296875 -14.589844 0.925781 -14.597656 L 0.925781 -15.332031 L 8.804688 -15.332031 L 8.804688 -14.597656 C 8.46875 -14.578125 8.035156 -14.523438 7.503906 -14.4375 C 7.210938 -14.308594 7.0625 -13.96875 7.0625 -13.425781 L 7.0625 -7.761719 L 9.863281 -10.464844 C 11.425781 -11.972656 12.207031 -13.097656 12.207031 -13.835938 C 12.207031 -14.289062 11.667969 -14.546875 10.59375 -14.597656 L 10.59375 -15.332031 L 16.925781 -15.332031 L 16.925781 -14.597656 C 16.265625 -14.597656 15.445312 -14.164062 14.46875 -13.296875 L 10.5625 -9.832031 L 16.226562 -2.164062 C 16.683594 -1.546875 16.976562 -1.171875 17.105469 -1.042969 C 17.3125 -0.835938 17.566406 -0.730469 17.871094 -0.730469 Z "/>
</g>
<g id="glyph-0-3">
<path d="M 13.835938 -3.335938 C 13.269531 -2.371094 12.78125 -1.683594 12.371094 -1.269531 C 11.144531 -0.0234375 9.53125 0.601562 7.535156 0.601562 C 5.375 0.601562 3.683594 -0.261719 2.457031 -1.984375 C 1.371094 -3.515625 0.828125 -5.410156 0.828125 -7.664062 C 0.828125 -9.683594 1.4375 -11.507812 2.652344 -13.132812 C 3.976562 -14.914062 5.613281 -15.804688 7.566406 -15.804688 C 8.792969 -15.804688 9.90625 -15.46875 10.90625 -14.792969 C 11.902344 -14.121094 12.65625 -13.222656 13.167969 -12.09375 C 13.535156 -11.28125 13.738281 -9.929688 13.769531 -8.039062 L 5.339844 -8.039062 L 5.339844 -7.859375 C 5.339844 -6.472656 5.632812 -5.175781 6.21875 -3.972656 C 6.945312 -2.472656 7.9375 -1.726562 9.195312 -1.726562 C 10.726562 -1.726562 12.058594 -2.429688 13.199219 -3.839844 Z M 9.832031 -9.359375 L 9.832031 -10.773438 C 9.832031 -12.21875 9.710938 -13.195312 9.472656 -13.703125 C 9.15625 -14.386719 8.609375 -14.730469 7.828125 -14.730469 C 6.320312 -14.730469 5.492188 -12.9375 5.339844 -9.359375 Z "/>
</g>
<g id="glyph-0-4">
<path d="M 0.925781 -0.730469 C 1.425781 -0.742188 1.785156 -0.804688 2 -0.910156 C 2.359375 -1.09375 2.539062 -1.558594 2.539062 -2.292969 L 2.539062 -13.035156 C 2.539062 -13.839844 2.3125 -14.316406 1.855469 -14.46875 C 1.628906 -14.546875 1.316406 -14.589844 0.925781 -14.597656 L 0.925781 -15.332031 L 8.367188 -15.332031 L 8.367188 -14.597656 L 8.136719 -14.597656 C 7.421875 -14.597656 7.0625 -14.21875 7.0625 -13.460938 L 7.0625 -8.527344 L 11.472656 -8.527344 L 11.472656 -13.460938 C 11.472656 -14.21875 11.117188 -14.597656 10.398438 -14.597656 L 10.171875 -14.597656 L 10.171875 -15.332031 L 17.59375 -15.332031 L 17.59375 -14.597656 C 16.964844 -14.578125 16.542969 -14.464844 16.324219 -14.265625 C 16.109375 -14.066406 16 -13.65625 16 -13.035156 L 16 -2.292969 C 16 -1.492188 16.226562 -1.015625 16.683594 -0.863281 C 16.898438 -0.785156 17.203125 -0.742188 17.59375 -0.730469 L 17.59375 0 L 10.171875 0 L 10.171875 -0.730469 L 10.5625 -0.730469 C 11.171875 -0.730469 11.472656 -1.113281 11.472656 -1.871094 L 11.472656 -7.226562 L 7.0625 -7.226562 L 7.0625 -1.871094 C 7.0625 -1.113281 7.378906 -0.730469 8.007812 -0.730469 L 8.367188 -0.730469 L 8.367188 0 L 0.925781 0 Z "/>
</g>
</g>
</defs>
<g fill="rgb(100%, 90.196078%, 42.745098%)" fill-opacity="1">
<use xlink:href="#glyph-0-0" x="30" y="45"/>
<use xlink:href="#glyph-0-1" x="52" y="45"/>
<use xlink:href="#glyph-0-2" x="69" y="45"/>
<use xlink:href="#glyph-0-3" x="88" y="45"/>
<use xlink:href="#glyph-0-4" x="103" y="45"/>
</g>
</svg>
