<?xml version="1.0" encoding="UTF-8"?>
<svg xmlns="http://www.w3.org/2000/svg" xmlns:xlink="http://www.w3.org/1999/xlink" width="1080" height="1920" viewBox="0 0 1080 1920">
<defs>
<g>
<g id="glyph-0-0">
<path d="M 1.03125 0 L 1.03125 -9.941406 L 3.011719 -9.941406 L 5.363281 -2.902344 C 5.582031 -2.246094 5.738281 -1.757812 5.839844 -1.429688 C 5.953125 -1.792969 6.128906 -2.324219 6.367188 -3.023438 L 8.75 -9.941406 L 10.519531 -9.941406 L 10.519531 0 L 9.25 0 L 9.25 -8.320312 L 6.363281 0 L 5.175781 0 L 2.300781 -8.464844 L 2.300781 0 Z "/>
</g>
<g id="glyph-0-1">
<path d="M 0.914062 -7.203125 L 2.136719 -7.203125 L 2.136719 -1.710938 L 5.519531 -7.203125 L 6.835938 -7.203125 L 6.835938 0 L 5.617188 0 L 5.617188 -5.460938 L 2.230469 0 L 0.914062 0 Z "/>
</g>
<g id="glyph-0-2">
<path d="M 5.617188 -2.636719 L 6.816406 -2.480469 C 6.683594 -1.652344 6.347656 -1.007812 5.808594 -0.539062 C 5.269531 -0.0703125 4.605469 0.164062 3.816406 0.164062 C 2.832031 0.164062 2.039062 -0.160156 1.441406 -0.804688 C 0.84375 -1.449219 0.542969 -2.371094 0.542969 -3.574219 C 0.542969 -4.351562 0.671875 -5.03125 0.929688 -5.617188 C 1.1875 -6.199219 1.578125 -6.636719 2.105469 -6.929688 C 2.632812 -7.21875 3.207031 -7.367188 3.824219 -7.367188 C 4.605469 -7.367188 5.246094 -7.167969 5.746094 -6.773438 C 6.242188 -6.375 6.558594 -5.816406 6.699219 -5.085938 L 5.515625 -4.902344 C 5.402344 -5.386719 5.199219 -5.75 4.914062 -5.996094 C 4.625 -6.238281 4.28125 -6.363281 3.871094 -6.363281 C 3.257812 -6.363281 2.757812 -6.140625 2.375 -5.699219 C 1.988281 -5.257812 1.796875 -4.5625 1.796875 -3.609375 C 1.796875 -2.640625 1.984375 -1.9375 2.351562 -1.5 C 2.722656 -1.0625 3.207031 -0.839844 3.804688 -0.839844 C 4.285156 -0.839844 4.683594 -0.988281 5.003906 -1.28125 C 5.324219 -1.574219 5.53125 -2.027344 5.617188 -2.636719 Z "/>
</g>
<g id="glyph-0-3">
<path d="M 5.617188 -0.886719 C 5.164062 -0.503906 4.726562 -0.234375 4.308594 -0.0742188 C 3.890625 0.0820312 3.441406 0.164062 2.964844 0.164062 C 2.171875 0.164062 1.5625 -0.03125 1.140625 -0.417969 C 0.714844 -0.804688 0.5 -1.296875 0.5 -1.898438 C 0.5 -2.25 0.582031 -2.574219 0.742188 -2.867188 C 0.902344 -3.15625 1.113281 -3.390625 1.375 -3.566406 C 1.632812 -3.742188 1.925781 -3.878906 2.25 -3.96875 C 2.492188 -4.03125 2.851562 -4.09375 3.335938 -4.152344 C 4.320312 -4.269531 5.046875 -4.410156 5.515625 -4.570312 C 5.519531 -4.738281 5.519531 -4.84375 5.519531 -4.890625 C 5.519531 -5.386719 5.40625 -5.738281 5.175781 -5.941406 C 4.863281 -6.21875 4.398438 -6.355469 3.785156 -6.355469 C 3.210938 -6.355469 2.785156 -6.253906 2.511719 -6.054688 C 2.238281 -5.851562 2.035156 -5.496094 1.90625 -4.984375 L 0.710938 -5.148438 C 0.820312 -5.660156 1 -6.070312 1.246094 -6.386719 C 1.496094 -6.699219 1.855469 -6.941406 2.328125 -7.109375 C 2.796875 -7.28125 3.339844 -7.367188 3.960938 -7.367188 C 4.574219 -7.367188 5.074219 -7.292969 5.460938 -7.148438 C 5.84375 -7.003906 6.125 -6.820312 6.308594 -6.601562 C 6.488281 -6.382812 6.613281 -6.105469 6.6875 -5.773438 C 6.726562 -5.5625 6.75 -5.1875 6.75 -4.644531 L 6.75 -3.019531 C 6.75 -1.882812 6.773438 -1.164062 6.824219 -0.863281 C 6.878906 -0.5625 6.980469 -0.277344 7.132812 0 L 5.859375 0 C 5.734375 -0.253906 5.652344 -0.550781 5.617188 -0.886719 Z M 5.515625 -3.613281 C 5.070312 -3.433594 4.40625 -3.28125 3.519531 -3.152344 C 3.019531 -3.082031 2.664062 -3 2.457031 -2.910156 C 2.246094 -2.820312 2.085938 -2.6875 1.972656 -2.511719 C 1.859375 -2.339844 1.804688 -2.144531 1.804688 -1.933594 C 1.804688 -1.609375 1.925781 -1.335938 2.171875 -1.117188 C 2.417969 -0.902344 2.78125 -0.792969 3.253906 -0.792969 C 3.726562 -0.792969 4.144531 -0.894531 4.511719 -1.101562 C 4.875 -1.308594 5.144531 -1.589844 5.316406 -1.945312 C 5.449219 -2.222656 5.515625 -2.628906 5.515625 -3.167969 Z "/>
</g>
<g id="glyph-0-4">
<path d="M 1.511719 -7.203125 L 7.183594 -7.203125 L 7.183594 0 L 5.96875 0 L 5.96875 -6.191406 L 2.734375 -6.191406 L 2.734375 -2.605469 C 2.734375 -1.769531 2.707031 -1.214844 2.652344 -0.949219 C 2.597656 -0.683594 2.449219 -0.449219 2.203125 -0.25 C 1.960938 -0.0507812 1.605469 0.046875 1.144531 0.046875 C 0.859375 0.046875 0.535156 0.03125 0.164062 -0.0078125 L 0.164062 -1.023438 L 0.699219 -1.023438 C 0.953125 -1.023438 1.132812 -1.050781 1.242188 -1.101562 C 1.351562 -1.152344 1.421875 -1.238281 1.457031 -1.351562 C 1.492188 -1.464844 1.511719 -1.832031 1.511719 -2.457031 Z "/>
</g>
<g id="glyph-0-5">
<path d="M 7.773438 -7.203125 L 8.992188 -7.203125 L 8.992188 0 L 7.773438 0 Z M 0.941406 -7.203125 L 2.164062 -7.203125 L 2.164062 -4.386719 L 3.710938 -4.386719 C 4.71875 -4.386719 5.496094 -4.191406 6.039062 -3.800781 C 6.585938 -3.410156 6.855469 -2.871094 6.855469 -2.183594 C 6.855469 -1.582031 6.628906 -1.066406 6.175781 -0.640625 C 5.722656 -0.214844 4.992188 0 3.996094 0 L 0.941406 0 Z M 2.164062 -1.003906 L 3.445312 -1.003906 C 4.21875 -1.003906 4.769531 -1.097656 5.101562 -1.289062 C 5.429688 -1.480469 5.59375 -1.773438 5.59375 -2.175781 C 5.59375 -2.488281 5.472656 -2.765625 5.230469 -3.011719 C 4.984375 -3.253906 4.445312 -3.378906 3.609375 -3.378906 L 2.164062 -3.378906 Z "/>
</g>
</g>
</defs>
<g fill="rgb(29.019608%, 67.058824%, 85.882353%)" fill-opacity="1">
<use xlink:href="#glyph-0-0" x="30" y="32.574219"/>
<use xlink:href="#glyph-0-1" x="42" y="32.574219"/>
<use xlink:href="#glyph-0-2" x="50" y="32.574219"/>
<use xlink:href="#glyph-0-3" x="57" y="32.574219"/>
<use xlink:href="#glyph-0-4" x="65" y="32.574219"/>
<use xlink:href="#glyph-0-5" x="73" y="32.574219"/>
</g>
</svg>
