<?xml version="1.0" encoding="UTF-8"?>
<svg xmlns="http://www.w3.org/2000/svg" xmlns:xlink="http://www.w3.org/1999/xlink" width="1080" height="1920" viewBox="0 0 1080 1920">
<defs>
<g>
<g id="glyph-0-0">
<path d="M 8.367188 0 L 1.628906 0 L 1.628906 2.132812 L 0.226562 2.132812 L 0.226562 -1.300781 L 1.375 -1.300781 C 1.613281 -1.886719 1.804688 -2.484375 1.945312 -3.097656 C 2.085938 -3.707031 2.195312 -4.324219 2.269531 -4.945312 C 2.347656 -5.566406 2.394531 -6.191406 2.417969 -6.820312 C 2.4375 -7.449219 2.449219 -8.082031 2.449219 -8.714844 L 8.535156 -8.714844 L 8.535156 -1.300781 L 9.765625 -1.300781 L 9.765625 2.132812 L 8.367188 2.132812 Z M 7.039062 -1.300781 L 7.039062 -7.414062 L 3.882812 -7.414062 C 3.84375 -6.921875 3.804688 -6.414062 3.765625 -5.890625 C 3.722656 -5.371094 3.667969 -4.847656 3.601562 -4.324219 C 3.535156 -3.800781 3.445312 -3.285156 3.332031 -2.773438 C 3.222656 -2.265625 3.078125 -1.773438 2.898438 -1.300781 Z "/>
</g>
<g id="glyph-0-1">
<path d="M 8.519531 -2.785156 C 8.460938 -2.402344 8.332031 -2.03125 8.128906 -1.667969 C 7.929688 -1.304688 7.667969 -0.980469 7.339844 -0.691406 C 7.015625 -0.402344 6.632812 -0.171875 6.1875 0.00390625 C 5.746094 0.179688 5.257812 0.269531 4.71875 0.269531 C 4.132812 0.269531 3.59375 0.171875 3.097656 -0.0195312 C 2.601562 -0.210938 2.171875 -0.503906 1.8125 -0.890625 C 1.449219 -1.277344 1.167969 -1.765625 0.960938 -2.351562 C 0.753906 -2.9375 0.652344 -3.625 0.652344 -4.417969 C 0.652344 -4.949219 0.710938 -5.433594 0.824219 -5.863281 C 0.941406 -6.292969 1.101562 -6.679688 1.296875 -7.019531 C 1.496094 -7.359375 1.726562 -7.652344 1.984375 -7.898438 C 2.246094 -8.144531 2.519531 -8.347656 2.8125 -8.507812 C 3.101562 -8.667969 3.398438 -8.789062 3.703125 -8.867188 C 4.007812 -8.945312 4.300781 -8.984375 4.582031 -8.984375 C 5.179688 -8.984375 5.722656 -8.894531 6.21875 -8.714844 C 6.710938 -8.535156 7.136719 -8.265625 7.492188 -7.898438 C 7.847656 -7.53125 8.125 -7.074219 8.320312 -6.523438 C 8.519531 -5.972656 8.617188 -5.324219 8.617188 -4.582031 L 8.617188 -3.832031 L 2.246094 -3.832031 C 2.25 -3.410156 2.3125 -3.027344 2.425781 -2.679688 C 2.539062 -2.335938 2.703125 -2.042969 2.914062 -1.796875 C 3.125 -1.554688 3.382812 -1.367188 3.683594 -1.234375 C 3.984375 -1.101562 4.324219 -1.035156 4.703125 -1.035156 C 5.089844 -1.035156 5.414062 -1.085938 5.679688 -1.195312 C 5.945312 -1.304688 6.167969 -1.441406 6.347656 -1.613281 C 6.527344 -1.78125 6.671875 -1.964844 6.78125 -2.171875 C 6.894531 -2.378906 6.988281 -2.582031 7.0625 -2.785156 Z M 7.113281 -5.03125 C 7.101562 -5.453125 7.039062 -5.828125 6.921875 -6.160156 C 6.804688 -6.492188 6.640625 -6.769531 6.433594 -6.996094 C 6.222656 -7.21875 5.972656 -7.390625 5.679688 -7.507812 C 5.386719 -7.625 5.0625 -7.683594 4.703125 -7.683594 C 4.363281 -7.683594 4.046875 -7.617188 3.761719 -7.484375 C 3.472656 -7.351562 3.21875 -7.164062 3.003906 -6.929688 C 2.785156 -6.695312 2.613281 -6.414062 2.480469 -6.089844 C 2.351562 -5.769531 2.273438 -5.414062 2.246094 -5.03125 Z "/>
</g>
<g id="glyph-0-2">
<path d="M 1.097656 -8.714844 L 6.511719 -8.714844 L 6.511719 -7.414062 L 2.597656 -7.414062 L 2.597656 0 L 1.097656 0 Z "/>
</g>
<g id="glyph-0-3">
<path d="M 1.097656 -8.714844 L 2.597656 -8.714844 L 2.597656 -5.199219 L 6.664062 -5.199219 L 6.664062 -8.714844 L 8.171875 -8.714844 L 8.171875 0 L 6.664062 0 L 6.664062 -3.898438 L 2.597656 -3.898438 L 2.597656 0 L 1.097656 0 Z "/>
</g>
<g id="glyph-0-4">
<rect x="0" y="0" width="0" height="0" mask="url(#mask-0)"/>
</g>
<g id="glyph-0-5">
<path d="M 3.3125 -4.914062 L 6.316406 -4.914062 C 6.257812 -5.792969 6.03125 -6.476562 5.640625 -6.957031 C 5.25 -7.441406 4.699219 -7.683594 3.996094 -7.683594 C 3.671875 -7.683594 3.386719 -7.632812 3.144531 -7.535156 C 2.902344 -7.4375 2.699219 -7.3125 2.535156 -7.152344 C 2.371094 -6.996094 2.238281 -6.8125 2.136719 -6.609375 C 2.035156 -6.402344 1.960938 -6.191406 1.914062 -5.980469 L 0.480469 -5.980469 C 0.550781 -6.503906 0.703125 -6.953125 0.9375 -7.328125 C 1.167969 -7.707031 1.449219 -8.015625 1.777344 -8.265625 C 2.105469 -8.511719 2.464844 -8.691406 2.855469 -8.808594 C 3.246094 -8.925781 3.636719 -8.984375 4.027344 -8.984375 C 4.652344 -8.984375 5.207031 -8.871094 5.6875 -8.648438 C 6.171875 -8.421875 6.578125 -8.105469 6.90625 -7.699219 C 7.234375 -7.292969 7.484375 -6.804688 7.652344 -6.242188 C 7.824219 -5.679688 7.910156 -5.058594 7.910156 -4.386719 C 7.910156 -3.699219 7.824219 -3.066406 7.652344 -2.5 C 7.484375 -1.929688 7.234375 -1.4375 6.90625 -1.03125 C 6.578125 -0.621094 6.171875 -0.300781 5.6875 -0.0742188 C 5.207031 0.15625 4.652344 0.269531 4.027344 0.269531 C 3.574219 0.269531 3.144531 0.207031 2.746094 0.0820312 C 2.347656 -0.0429688 1.992188 -0.234375 1.679688 -0.488281 C 1.367188 -0.742188 1.101562 -1.066406 0.878906 -1.460938 C 0.65625 -1.855469 0.492188 -2.316406 0.382812 -2.847656 L 1.914062 -2.847656 C 1.941406 -2.582031 2.011719 -2.339844 2.125 -2.117188 C 2.238281 -1.894531 2.386719 -1.703125 2.566406 -1.542969 C 2.75 -1.382812 2.960938 -1.257812 3.203125 -1.167969 C 3.445312 -1.078125 3.703125 -1.035156 3.980469 -1.035156 C 4.375 -1.035156 4.71875 -1.117188 5.011719 -1.28125 C 5.304688 -1.445312 5.546875 -1.660156 5.738281 -1.921875 C 5.925781 -2.179688 6.070312 -2.46875 6.164062 -2.789062 C 6.257812 -3.105469 6.308594 -3.414062 6.316406 -3.71875 L 3.3125 -3.71875 Z "/>
</g>
<g id="glyph-0-6">
<path d="M 1.097656 -8.714844 L 3.28125 -8.714844 L 5.582031 -1.570312 L 5.617188 -1.570312 L 7.949219 -8.714844 L 10 -8.714844 L 10 0 L 8.601562 0 L 8.601562 -7.015625 L 8.570312 -7.015625 L 6.265625 0 L 4.835938 0 L 2.53125 -7.015625 L 2.5 -7.015625 L 2.5 0 L 1.097656 0 Z "/>
</g>
<g id="glyph-0-7">
<path d="M 4.011719 -1.691406 L 5.632812 -1.691406 L 5.632812 0 L 4.011719 0 Z M 1.269531 -8.210938 C 1.269531 -9.382812 1.601562 -10.324219 2.261719 -11.039062 C 2.925781 -11.753906 3.832031 -12.109375 4.988281 -12.109375 C 6.058594 -12.109375 6.914062 -11.804688 7.554688 -11.195312 C 8.199219 -10.585938 8.519531 -9.804688 8.519531 -8.855469 C 8.519531 -8.28125 8.402344 -7.8125 8.167969 -7.453125 C 7.929688 -7.097656 7.453125 -6.570312 6.738281 -5.875 C 6.21875 -5.371094 5.878906 -4.945312 5.726562 -4.59375 C 5.570312 -4.242188 5.492188 -3.726562 5.492188 -3.042969 L 4.042969 -3.042969 C 4.042969 -3.820312 4.136719 -4.445312 4.320312 -4.917969 C 4.503906 -5.394531 4.910156 -5.9375 5.535156 -6.550781 L 6.183594 -7.195312 C 6.378906 -7.378906 6.539062 -7.570312 6.65625 -7.773438 C 6.875 -8.125 6.984375 -8.492188 6.984375 -8.871094 C 6.984375 -9.402344 6.824219 -9.863281 6.507812 -10.253906 C 6.191406 -10.644531 5.664062 -10.839844 4.933594 -10.839844 C 4.027344 -10.839844 3.398438 -10.503906 3.050781 -9.832031 C 2.855469 -9.457031 2.746094 -8.917969 2.71875 -8.210938 Z "/>
</g>
</g>
<image id="source-58" x="0" y="0" width="0" height="0"/>
<mask id="mask-0">
<use xlink:href="#source-58"/>
</mask>
</defs>
<g fill="rgb(100%, 81.960784%, 40%)" fill-opacity="1">
<use xlink:href="#glyph-0-0" x="30" y="32.833984"/>
<use xlink:href="#glyph-0-1" x="40" y="32.833984"/>
<use xlink:href="#glyph-0-2" x="49" y="32.833984"/>
<use xlink:href="#glyph-0-1" x="56" y="32.833984"/>
<use xlink:href="#glyph-0-3" x="65" y="32.833984"/>
<use xlink:href="#glyph-0-4" x="74" y="32.833984"/>
<use xlink:href="#glyph-0-5" x="79" y="32.833984"/>
<use xlink:href="#glyph-0-6" x="87" y="32.833984"/>
<use xlink:href="#glyph-0-3" x="98" y="32.833984"/>
<use xlink:href="#glyph-0-1" x="107" y="32.833984"/>
<use xlink:href="#glyph-0-7" x="116" y="32.833984"/>
</g>
</svg>
