<?xml version="1.0" encoding="UTF-8"?>
<svg xmlns="http://www.w3.org/2000/svg" xmlns:xlink="http://www.w3.org/1999/xlink" width="1080" height="1920" viewBox="0 0 1080 1920">
<defs>
<g>
<g id="glyph-0-0">
<path d="M 6.078125 -4.378906 L 5.84375 -4.378906 C 5.6875 -4.863281 5.507812 -5.226562 5.308594 -5.464844 C 4.910156 -5.9375 4.378906 -6.171875 3.722656 -6.171875 C 2.945312 -6.171875 2.355469 -5.863281 1.957031 -5.25 C 1.617188 -4.730469 1.449219 -4.0625 1.449219 -3.238281 C 1.449219 -2.410156 1.628906 -1.730469 1.992188 -1.207031 C 2.414062 -0.601562 3.019531 -0.300781 3.8125 -0.300781 C 4.265625 -0.300781 4.667969 -0.382812 5.023438 -0.546875 C 5.328125 -0.6875 5.660156 -0.929688 6.027344 -1.273438 L 6.195312 -1.078125 C 5.441406 -0.269531 4.578125 0.136719 3.597656 0.136719 C 2.621094 0.136719 1.832031 -0.171875 1.226562 -0.789062 C 0.625 -1.40625 0.324219 -2.203125 0.324219 -3.179688 C 0.324219 -4.160156 0.628906 -4.96875 1.238281 -5.609375 C 1.851562 -6.25 2.644531 -6.570312 3.617188 -6.570312 C 4.035156 -6.570312 4.464844 -6.488281 4.910156 -6.328125 C 5.117188 -6.253906 5.285156 -6.214844 5.417969 -6.214844 C 5.558594 -6.214844 5.683594 -6.328125 5.785156 -6.5625 L 5.992188 -6.5625 Z "/>
</g>
<g id="glyph-0-1">
<path d="M 2.800781 -1.105469 L 3.753906 -3.8125 C 3.773438 -3.867188 3.785156 -3.914062 3.785156 -3.960938 C 3.785156 -4.097656 3.628906 -4.183594 3.3125 -4.21875 L 3.3125 -4.359375 L 4.628906 -4.359375 L 4.628906 -4.21875 C 4.421875 -4.1875 4.253906 -4 4.121094 -3.65625 L 2.691406 0.0664062 C 2.457031 0.675781 2.257812 1.101562 2.097656 1.351562 C 1.777344 1.855469 1.414062 2.109375 1 2.109375 C 0.8125 2.109375 0.652344 2.0625 0.515625 1.96875 C 0.363281 1.867188 0.289062 1.722656 0.289062 1.539062 C 0.289062 1.265625 0.453125 1.128906 0.777344 1.128906 C 0.855469 1.128906 0.96875 1.15625 1.105469 1.207031 C 1.277344 1.269531 1.394531 1.300781 1.457031 1.300781 C 1.566406 1.300781 1.671875 1.246094 1.777344 1.132812 C 1.792969 1.113281 1.949219 0.808594 2.246094 0.214844 L 2.253906 0.195312 C 2.320312 0.0625 2.355469 -0.0625 2.355469 -0.175781 C 2.355469 -0.207031 2.351562 -0.230469 2.34375 -0.242188 L 0.6875 -3.792969 C 0.574219 -4.035156 0.394531 -4.179688 0.148438 -4.21875 L 0.148438 -4.359375 L 2.152344 -4.359375 L 2.152344 -4.21875 C 1.761719 -4.210938 1.566406 -4.121094 1.566406 -3.945312 C 1.566406 -3.863281 1.605469 -3.738281 1.679688 -3.570312 Z "/>
</g>
<g id="glyph-0-2">
<path d="M 0.0195312 1.976562 C 0.277344 1.953125 0.457031 1.90625 0.550781 1.832031 C 0.671875 1.742188 0.730469 1.574219 0.730469 1.335938 L 0.730469 -3.179688 C 0.730469 -3.4375 0.71875 -3.59375 0.699219 -3.65625 C 0.648438 -3.792969 0.519531 -3.859375 0.3125 -3.859375 L 0.0195312 -3.859375 L 0.0195312 -3.996094 L 1.558594 -4.453125 L 1.558594 -3.730469 C 1.929688 -4.210938 2.394531 -4.453125 2.957031 -4.453125 C 3.496094 -4.453125 3.910156 -4.238281 4.203125 -3.808594 C 4.449219 -3.4375 4.570312 -2.96875 4.570312 -2.402344 C 4.570312 -1.753906 4.394531 -1.1875 4.035156 -0.703125 C 3.644531 -0.171875 3.132812 0.09375 2.507812 0.09375 C 2.15625 0.09375 1.839844 -0.0507812 1.558594 -0.34375 L 1.558594 1.335938 C 1.558594 1.585938 1.632812 1.757812 1.78125 1.851562 C 1.878906 1.910156 2.074219 1.953125 2.363281 1.976562 L 2.363281 2.109375 L 0.0195312 2.109375 Z M 1.558594 -0.992188 C 1.558594 -0.765625 1.667969 -0.578125 1.894531 -0.421875 C 2.097656 -0.28125 2.316406 -0.214844 2.550781 -0.214844 C 2.953125 -0.214844 3.265625 -0.425781 3.480469 -0.855469 C 3.648438 -1.191406 3.730469 -1.582031 3.730469 -2.03125 C 3.730469 -2.511719 3.652344 -2.917969 3.488281 -3.253906 C 3.277344 -3.6875 2.957031 -3.90625 2.527344 -3.90625 C 2.253906 -3.90625 1.992188 -3.800781 1.742188 -3.589844 C 1.652344 -3.511719 1.601562 -3.453125 1.582031 -3.40625 C 1.566406 -3.359375 1.558594 -3.277344 1.558594 -3.152344 Z "/>
</g>
<g id="glyph-0-3">
<path d="M 4.570312 -2.355469 C 4.570312 -1.675781 4.382812 -1.109375 4.003906 -0.644531 C 3.597656 -0.152344 3.0625 0.09375 2.402344 0.09375 C 1.773438 0.09375 1.257812 -0.128906 0.863281 -0.574219 C 0.480469 -1 0.289062 -1.535156 0.289062 -2.167969 C 0.289062 -2.824219 0.476562 -3.363281 0.851562 -3.789062 C 1.238281 -4.230469 1.757812 -4.453125 2.402344 -4.453125 C 3.027344 -4.453125 3.542969 -4.261719 3.949219 -3.875 C 4.363281 -3.480469 4.570312 -2.972656 4.570312 -2.355469 Z M 3.675781 -1.847656 C 3.675781 -2.417969 3.582031 -2.910156 3.394531 -3.328125 C 3.148438 -3.886719 2.773438 -4.164062 2.273438 -4.164062 C 1.878906 -4.164062 1.585938 -3.984375 1.402344 -3.621094 C 1.257812 -3.34375 1.1875 -2.984375 1.1875 -2.550781 C 1.1875 -1.988281 1.277344 -1.488281 1.457031 -1.058594 C 1.699219 -0.484375 2.066406 -0.195312 2.558594 -0.195312 C 2.945312 -0.195312 3.238281 -0.382812 3.4375 -0.757812 C 3.59375 -1.058594 3.675781 -1.421875 3.675781 -1.847656 Z "/>
</g>
<g id="glyph-0-4">
<path d="M 1.84375 -3.945312 C 1.84375 -3.785156 1.789062 -3.65625 1.679688 -3.558594 C 1.570312 -3.457031 1.445312 -3.410156 1.304688 -3.410156 C 1.152344 -3.410156 1.027344 -3.460938 0.929688 -3.570312 C 0.832031 -3.679688 0.785156 -3.800781 0.785156 -3.941406 C 0.785156 -4.085938 0.832031 -4.210938 0.933594 -4.3125 C 1.035156 -4.414062 1.160156 -4.46875 1.304688 -4.46875 C 1.445312 -4.46875 1.570312 -4.417969 1.679688 -4.316406 C 1.789062 -4.21875 1.84375 -4.09375 1.84375 -3.945312 Z M 1.292969 0.0820312 C 1.160156 0.0820312 1.039062 0.0273438 0.9375 -0.0742188 C 0.835938 -0.179688 0.785156 -0.308594 0.785156 -0.457031 C 0.785156 -0.597656 0.832031 -0.722656 0.933594 -0.828125 C 1.035156 -0.933594 1.160156 -0.988281 1.308594 -0.988281 C 1.457031 -0.988281 1.589844 -0.9375 1.699219 -0.832031 C 1.808594 -0.730469 1.867188 -0.605469 1.867188 -0.460938 C 1.867188 -0.320312 1.8125 -0.195312 1.710938 -0.0859375 C 1.605469 0.0234375 1.464844 0.0820312 1.292969 0.0820312 Z "/>
</g>
<g id="glyph-0-5">
<rect x="0" y="0" width="0" height="0" mask="url(#mask-0)"/>
</g>
<g id="glyph-0-6">
<path d="M 1.652344 -6.09375 C 1.652344 -6.054688 1.648438 -5.992188 1.640625 -5.914062 C 1.632812 -5.832031 1.625 -5.765625 1.617188 -5.714844 L 1.390625 -3.769531 L 1.175781 -3.769531 L 0.929688 -5.703125 C 0.917969 -5.789062 0.910156 -5.875 0.902344 -5.953125 C 0.894531 -6.03125 0.890625 -6.105469 0.890625 -6.167969 C 0.890625 -6.289062 0.929688 -6.382812 1 -6.457031 C 1.070312 -6.53125 1.160156 -6.570312 1.265625 -6.570312 C 1.414062 -6.570312 1.511719 -6.527344 1.570312 -6.445312 C 1.625 -6.359375 1.652344 -6.246094 1.652344 -6.09375 Z M 2.585938 -3.769531 L 2.351562 -5.660156 C 2.328125 -5.851562 2.3125 -5.964844 2.308594 -6.003906 C 2.304688 -6.039062 2.300781 -6.070312 2.300781 -6.09375 C 2.300781 -6.265625 2.335938 -6.386719 2.40625 -6.460938 C 2.472656 -6.535156 2.566406 -6.570312 2.6875 -6.570312 C 2.839844 -6.570312 2.941406 -6.527344 2.992188 -6.441406 C 3.046875 -6.351562 3.070312 -6.238281 3.070312 -6.089844 C 3.070312 -6.0625 3.070312 -6.03125 3.066406 -6 C 3.0625 -5.96875 3.050781 -5.871094 3.035156 -5.703125 L 2.808594 -3.769531 Z "/>
</g>
<g id="glyph-0-7">
<path d="M 3.570312 -6.570312 L 5.9375 -1.140625 C 6.078125 -0.816406 6.1875 -0.605469 6.265625 -0.503906 C 6.421875 -0.296875 6.621094 -0.191406 6.863281 -0.183594 L 6.863281 0 L 4.386719 0 L 4.386719 -0.183594 C 4.84375 -0.210938 5.074219 -0.316406 5.074219 -0.503906 C 5.074219 -0.636719 4.996094 -0.890625 4.832031 -1.273438 L 4.480469 -2.097656 L 1.9375 -2.097656 C 1.878906 -1.941406 1.816406 -1.792969 1.761719 -1.660156 C 1.527344 -1.109375 1.410156 -0.75 1.410156 -0.582031 C 1.410156 -0.328125 1.628906 -0.195312 2.070312 -0.183594 L 2.070312 0 L 0.148438 0 L 0.148438 -0.183594 C 0.367188 -0.226562 0.535156 -0.308594 0.652344 -0.4375 C 0.820312 -0.621094 1.070312 -1.101562 1.402344 -1.882812 L 3.375 -6.570312 Z M 2.097656 -2.496094 L 4.34375 -2.496094 L 3.21875 -5.175781 Z "/>
</g>
<g id="glyph-0-8">
<path d="M 1.78125 -6.367188 C 1.949219 -6.367188 2.03125 -6.292969 2.03125 -6.144531 C 2.03125 -6.023438 1.953125 -5.945312 1.800781 -5.910156 C 1.675781 -5.886719 1.613281 -5.832031 1.613281 -5.753906 C 1.613281 -5.515625 1.910156 -5.398438 2.507812 -5.398438 C 3.105469 -5.398438 3.402344 -5.515625 3.402344 -5.753906 C 3.402344 -5.828125 3.34375 -5.878906 3.21875 -5.910156 C 3.0625 -5.949219 2.984375 -6.027344 2.984375 -6.144531 C 2.984375 -6.292969 3.066406 -6.367188 3.226562 -6.367188 C 3.5 -6.367188 3.636719 -6.171875 3.636719 -5.785156 C 3.636719 -5.503906 3.515625 -5.277344 3.269531 -5.109375 C 3.054688 -4.957031 2.800781 -4.878906 2.507812 -4.878906 C 2.214844 -4.878906 1.960938 -4.957031 1.742188 -5.109375 C 1.5 -5.28125 1.382812 -5.503906 1.382812 -5.785156 C 1.382812 -5.933594 1.410156 -6.058594 1.472656 -6.167969 C 1.542969 -6.300781 1.648438 -6.367188 1.78125 -6.367188 Z M 0.09375 -0.136719 C 0.339844 -0.140625 0.507812 -0.171875 0.589844 -0.234375 C 0.691406 -0.304688 0.742188 -0.453125 0.742188 -0.679688 L 0.742188 -3.675781 C 0.742188 -3.902344 0.691406 -4.050781 0.589844 -4.125 C 0.511719 -4.183594 0.34375 -4.214844 0.09375 -4.21875 L 0.09375 -4.359375 L 2.199219 -4.359375 L 2.199219 -4.21875 C 1.949219 -4.214844 1.785156 -4.183594 1.703125 -4.125 C 1.605469 -4.054688 1.558594 -3.90625 1.558594 -3.675781 L 1.558594 -1.121094 L 1.574219 -1.121094 L 3.441406 -3.753906 C 3.433594 -4 3.339844 -4.144531 3.15625 -4.1875 C 3.070312 -4.207031 2.953125 -4.21875 2.800781 -4.21875 L 2.800781 -4.359375 L 4.898438 -4.359375 L 4.898438 -4.21875 C 4.652344 -4.214844 4.488281 -4.183594 4.410156 -4.125 C 4.308594 -4.050781 4.257812 -3.902344 4.257812 -3.675781 L 4.257812 -0.679688 C 4.257812 -0.449219 4.3125 -0.296875 4.414062 -0.222656 C 4.492188 -0.167969 4.65625 -0.140625 4.898438 -0.136719 L 4.898438 0 L 2.800781 0 L 2.800781 -0.136719 C 3.042969 -0.140625 3.207031 -0.171875 3.289062 -0.234375 C 3.390625 -0.308594 3.441406 -0.457031 3.441406 -0.679688 L 3.441406 -3.238281 L 3.421875 -3.238281 L 1.558594 -0.601562 C 1.5625 -0.347656 1.660156 -0.203125 1.84375 -0.167969 C 1.914062 -0.152344 2.035156 -0.140625 2.199219 -0.136719 L 2.199219 0 L 0.09375 0 Z "/>
</g>
<g id="glyph-0-9">
<path d="M 0.046875 -0.136719 C 0.511719 -0.136719 0.789062 -0.550781 0.875 -1.382812 C 0.941406 -2.019531 0.972656 -2.757812 0.972656 -3.589844 C 0.972656 -3.871094 0.917969 -4.050781 0.800781 -4.128906 C 0.722656 -4.183594 0.535156 -4.214844 0.242188 -4.21875 L 0.242188 -4.359375 L 4.238281 -4.359375 L 4.238281 -4.21875 C 3.984375 -4.214844 3.820312 -4.183594 3.742188 -4.125 C 3.640625 -4.050781 3.589844 -3.898438 3.589844 -3.664062 L 3.589844 -0.613281 C 3.589844 -0.40625 3.636719 -0.273438 3.730469 -0.207031 C 3.796875 -0.164062 3.9375 -0.140625 4.148438 -0.136719 L 4.148438 1.457031 L 3.917969 1.457031 C 3.785156 0.875 3.636719 0.476562 3.480469 0.261719 C 3.351562 0.0859375 3.164062 0 2.914062 0 L 1.273438 0 C 1.027344 0 0.839844 0.0859375 0.710938 0.261719 C 0.558594 0.46875 0.417969 0.867188 0.28125 1.457031 L 0.046875 1.457031 Z M 0.953125 -0.234375 L 2.1875 -0.234375 C 2.582031 -0.234375 2.78125 -0.441406 2.78125 -0.855469 L 2.78125 -3.628906 C 2.78125 -3.839844 2.71875 -3.980469 2.597656 -4.050781 C 2.507812 -4.097656 2.34375 -4.121094 2.109375 -4.121094 C 1.839844 -4.121094 1.65625 -4.085938 1.558594 -4.011719 C 1.4375 -3.925781 1.375 -3.753906 1.371094 -3.5 L 1.363281 -2.652344 C 1.351562 -1.878906 1.289062 -1.257812 1.167969 -0.789062 C 1.128906 -0.636719 1.058594 -0.449219 0.953125 -0.234375 Z "/>
</g>
<g id="glyph-0-10">
<path d="M 0.09375 -0.136719 C 0.339844 -0.140625 0.507812 -0.171875 0.589844 -0.234375 C 0.691406 -0.304688 0.742188 -0.453125 0.742188 -0.679688 L 0.742188 -3.675781 C 0.742188 -3.902344 0.691406 -4.050781 0.589844 -4.125 C 0.511719 -4.183594 0.34375 -4.214844 0.09375 -4.21875 L 0.09375 -4.359375 L 2.199219 -4.359375 L 2.199219 -4.21875 C 1.949219 -4.214844 1.785156 -4.183594 1.703125 -4.125 C 1.605469 -4.054688 1.558594 -3.90625 1.558594 -3.675781 L 1.558594 -2.394531 L 2.394531 -2.394531 C 3.605469 -2.394531 4.210938 -1.992188 4.210938 -1.195312 C 4.210938 -0.785156 4.035156 -0.472656 3.6875 -0.261719 C 3.398438 -0.0859375 3.035156 0 2.597656 0 L 0.09375 0 Z M 4.445312 -0.136719 C 4.6875 -0.140625 4.851562 -0.171875 4.933594 -0.234375 C 5.035156 -0.308594 5.085938 -0.457031 5.085938 -0.679688 L 5.085938 -3.675781 C 5.085938 -3.902344 5.035156 -4.050781 4.933594 -4.125 C 4.855469 -4.183594 4.691406 -4.214844 4.445312 -4.21875 L 4.445312 -4.359375 L 6.496094 -4.359375 L 6.496094 -4.21875 C 6.269531 -4.214844 6.117188 -4.175781 6.039062 -4.109375 C 5.945312 -4.035156 5.902344 -3.890625 5.902344 -3.675781 L 5.902344 -0.679688 C 5.902344 -0.464844 5.945312 -0.316406 6.039062 -0.242188 C 6.117188 -0.175781 6.269531 -0.140625 6.496094 -0.136719 L 6.496094 0 L 4.445312 0 Z M 1.558594 -2.117188 L 1.558594 -0.546875 C 1.558594 -0.414062 1.617188 -0.332031 1.734375 -0.300781 C 1.777344 -0.285156 1.894531 -0.28125 2.078125 -0.28125 C 2.902344 -0.28125 3.3125 -0.597656 3.3125 -1.234375 C 3.3125 -1.554688 3.167969 -1.789062 2.875 -1.941406 C 2.652344 -2.058594 2.363281 -2.117188 2.011719 -2.117188 Z "/>
</g>
<g id="glyph-0-11">
<path d="M 0.09375 -0.136719 C 0.339844 -0.140625 0.507812 -0.171875 0.589844 -0.234375 C 0.691406 -0.304688 0.742188 -0.453125 0.742188 -0.679688 L 0.742188 -3.675781 C 0.742188 -3.902344 0.691406 -4.050781 0.589844 -4.125 C 0.511719 -4.183594 0.34375 -4.214844 0.09375 -4.21875 L 0.09375 -4.359375 L 2.152344 -4.359375 L 2.152344 -4.21875 C 1.851562 -4.214844 1.667969 -4.148438 1.609375 -4.019531 C 1.574219 -3.949219 1.558594 -3.832031 1.558594 -3.675781 L 1.558594 -2.410156 L 3.304688 -2.410156 L 3.304688 -3.675781 C 3.304688 -3.894531 3.261719 -4.042969 3.175781 -4.117188 C 3.101562 -4.179688 2.945312 -4.214844 2.710938 -4.21875 L 2.710938 -4.359375 L 4.765625 -4.359375 L 4.765625 -4.21875 C 4.515625 -4.214844 4.351562 -4.183594 4.273438 -4.125 C 4.171875 -4.050781 4.121094 -3.902344 4.121094 -3.675781 L 4.121094 -0.679688 C 4.121094 -0.449219 4.175781 -0.296875 4.28125 -0.222656 C 4.359375 -0.167969 4.523438 -0.140625 4.765625 -0.136719 L 4.765625 0 L 2.710938 0 L 2.710938 -0.136719 C 3.011719 -0.144531 3.191406 -0.210938 3.253906 -0.335938 C 3.289062 -0.410156 3.304688 -0.523438 3.304688 -0.679688 L 3.304688 -2.070312 L 1.558594 -2.070312 L 1.558594 -0.679688 C 1.558594 -0.460938 1.597656 -0.316406 1.679688 -0.246094 C 1.761719 -0.175781 1.917969 -0.140625 2.152344 -0.136719 L 2.152344 0 L 0.09375 0 Z "/>
</g>
<g id="glyph-0-12">
<path d="M 4.570312 -2.355469 C 4.570312 -1.691406 4.386719 -1.132812 4.015625 -0.679688 C 3.621094 -0.195312 3.097656 0.046875 2.449219 0.046875 C 1.757812 0.046875 1.226562 -0.226562 0.84375 -0.773438 C 0.507812 -1.253906 0.34375 -1.855469 0.34375 -2.578125 C 0.34375 -3.476562 0.507812 -4.242188 0.839844 -4.875 C 1.257812 -5.675781 1.875 -6.078125 2.691406 -6.078125 L 3.589844 -6.078125 C 3.800781 -6.078125 3.953125 -6.105469 4.042969 -6.15625 C 4.15625 -6.222656 4.234375 -6.351562 4.277344 -6.542969 L 4.460938 -6.542969 C 4.40625 -5.875 4.09375 -5.496094 3.527344 -5.410156 C 3.421875 -5.394531 3.207031 -5.386719 2.875 -5.386719 C 2.375 -5.386719 2.003906 -5.328125 1.769531 -5.210938 C 1.152344 -4.902344 0.796875 -4.261719 0.699219 -3.285156 L 0.730469 -3.285156 C 1.082031 -4.03125 1.65625 -4.40625 2.449219 -4.40625 C 3.058594 -4.40625 3.558594 -4.21875 3.960938 -3.839844 C 4.367188 -3.453125 4.570312 -2.960938 4.570312 -2.355469 Z M 3.675781 -1.847656 C 3.675781 -2.402344 3.585938 -2.886719 3.410156 -3.289062 C 3.171875 -3.835938 2.808594 -4.109375 2.320312 -4.109375 C 1.9375 -4.109375 1.652344 -3.9375 1.457031 -3.589844 C 1.300781 -3.3125 1.226562 -2.964844 1.226562 -2.550781 C 1.226562 -2.003906 1.320312 -1.519531 1.507812 -1.085938 C 1.761719 -0.523438 2.128906 -0.242188 2.605469 -0.242188 C 2.976562 -0.242188 3.257812 -0.425781 3.445312 -0.796875 C 3.597656 -1.089844 3.675781 -1.4375 3.675781 -1.847656 Z "/>
</g>
<g id="glyph-0-13">
<path d="M 2.753906 -2.828125 C 2.742188 -3.335938 2.703125 -3.6875 2.636719 -3.886719 C 2.554688 -4.117188 2.363281 -4.230469 2.058594 -4.230469 C 1.605469 -4.230469 1.382812 -4.085938 1.382812 -3.800781 C 1.382812 -3.757812 1.382812 -3.691406 1.390625 -3.601562 C 1.398438 -3.515625 1.402344 -3.449219 1.402344 -3.402344 C 1.402344 -3.28125 1.355469 -3.179688 1.265625 -3.09375 C 1.179688 -3.007812 1.074219 -2.96875 0.953125 -2.96875 C 0.675781 -2.96875 0.535156 -3.097656 0.535156 -3.355469 C 0.535156 -3.722656 0.734375 -4.007812 1.128906 -4.210938 C 1.445312 -4.371094 1.804688 -4.453125 2.207031 -4.453125 C 2.75 -4.453125 3.121094 -4.308594 3.324219 -4.019531 C 3.496094 -3.777344 3.578125 -3.371094 3.578125 -2.800781 L 3.578125 -0.75 C 3.578125 -0.546875 3.652344 -0.445312 3.792969 -0.445312 C 3.902344 -0.445312 4.070312 -0.519531 4.296875 -0.667969 L 4.296875 -0.417969 C 3.984375 -0.0742188 3.703125 0.09375 3.460938 0.09375 C 3.050781 0.09375 2.828125 -0.148438 2.800781 -0.640625 C 2.507812 -0.394531 2.273438 -0.222656 2.097656 -0.128906 C 1.824219 0.0195312 1.582031 0.09375 1.363281 0.09375 C 1.082031 0.09375 0.84375 -0.00390625 0.652344 -0.207031 C 0.457031 -0.40625 0.359375 -0.652344 0.359375 -0.933594 C 0.359375 -1.375 0.601562 -1.757812 1.078125 -2.078125 C 1.347656 -2.261719 1.777344 -2.464844 2.375 -2.683594 C 2.476562 -2.71875 2.601562 -2.769531 2.753906 -2.828125 Z M 2.753906 -2.566406 C 2.699219 -2.546875 2.59375 -2.507812 2.441406 -2.449219 C 1.976562 -2.285156 1.667969 -2.125 1.503906 -1.976562 C 1.3125 -1.796875 1.214844 -1.558594 1.214844 -1.273438 C 1.214844 -1.058594 1.265625 -0.875 1.371094 -0.726562 C 1.488281 -0.558594 1.652344 -0.476562 1.855469 -0.476562 C 2.003906 -0.476562 2.171875 -0.515625 2.355469 -0.601562 C 2.539062 -0.683594 2.671875 -0.785156 2.753906 -0.902344 Z "/>
</g>
<g id="glyph-0-14">
<path d="M 1.449219 -2.558594 L 3.304688 -2.558594 C 3.285156 -3.019531 3.179688 -3.390625 2.984375 -3.675781 C 2.757812 -4.011719 2.425781 -4.183594 1.992188 -4.183594 C 1.628906 -4.183594 1.308594 -4.035156 1.03125 -3.742188 C 0.898438 -3.601562 0.765625 -3.382812 0.640625 -3.082031 L 0.445312 -3.082031 L 0.6875 -4.445312 L 0.855469 -4.445312 C 0.894531 -4.308594 0.984375 -4.238281 1.121094 -4.238281 C 1.179688 -4.238281 1.265625 -4.261719 1.382812 -4.304688 C 1.636719 -4.402344 1.867188 -4.453125 2.070312 -4.453125 C 2.660156 -4.453125 3.144531 -4.222656 3.527344 -3.761719 C 3.886719 -3.328125 4.0625 -2.808594 4.0625 -2.207031 C 4.0625 -1.589844 3.914062 -1.066406 3.613281 -0.636719 C 3.273438 -0.148438 2.808594 0.09375 2.21875 0.09375 C 1.773438 0.09375 1.386719 -0.0585938 1.058594 -0.367188 C 0.828125 -0.582031 0.578125 -0.929688 0.3125 -1.410156 L 0.457031 -1.484375 C 0.886719 -0.859375 1.367188 -0.546875 1.894531 -0.546875 C 2.316406 -0.546875 2.652344 -0.71875 2.910156 -1.058594 C 3.128906 -1.351562 3.261719 -1.71875 3.304688 -2.167969 L 1.449219 -2.167969 Z "/>
</g>
<g id="glyph-0-15">
<path d="M 0.09375 -0.136719 C 0.339844 -0.140625 0.507812 -0.171875 0.589844 -0.234375 C 0.691406 -0.304688 0.742188 -0.453125 0.742188 -0.679688 L 0.742188 -3.675781 C 0.742188 -3.902344 0.691406 -4.050781 0.589844 -4.125 C 0.511719 -4.183594 0.34375 -4.214844 0.09375 -4.21875 L 0.09375 -4.359375 L 1.457031 -4.359375 L 3.003906 -1.167969 L 4.34375 -4.359375 L 5.804688 -4.359375 L 5.804688 -4.21875 C 5.554688 -4.214844 5.390625 -4.183594 5.308594 -4.125 C 5.203125 -4.050781 5.152344 -3.902344 5.152344 -3.675781 L 5.152344 -0.679688 C 5.152344 -0.453125 5.203125 -0.300781 5.308594 -0.226562 C 5.390625 -0.171875 5.554688 -0.140625 5.804688 -0.136719 L 5.804688 0 L 3.703125 0 L 3.703125 -0.136719 C 3.945312 -0.140625 4.105469 -0.171875 4.1875 -0.226562 C 4.292969 -0.300781 4.34375 -0.449219 4.34375 -0.679688 L 4.34375 -3.519531 L 4.324219 -3.519531 L 2.761719 0 L 2.664062 0 L 1.097656 -3.277344 L 1.085938 -3.277344 L 1.085938 -0.679688 C 1.085938 -0.453125 1.136719 -0.304688 1.238281 -0.234375 C 1.320312 -0.171875 1.484375 -0.140625 1.734375 -0.136719 L 1.734375 0 L 0.09375 0 Z "/>
</g>
<g id="glyph-0-16">
<path d="M 0.882812 -2.683594 C 0.917969 -2.21875 0.996094 -1.84375 1.121094 -1.558594 C 1.410156 -0.890625 1.851562 -0.554688 2.449219 -0.554688 C 2.773438 -0.554688 3.085938 -0.683594 3.394531 -0.933594 C 3.585938 -1.09375 3.769531 -1.3125 3.9375 -1.59375 L 4.09375 -1.539062 C 3.921875 -1.125 3.734375 -0.804688 3.527344 -0.582031 C 3.101562 -0.128906 2.613281 0.09375 2.058594 0.09375 C 1.484375 0.09375 1.023438 -0.136719 0.679688 -0.597656 C 0.367188 -1.015625 0.214844 -1.523438 0.214844 -2.117188 C 0.214844 -2.761719 0.378906 -3.300781 0.710938 -3.734375 C 1.078125 -4.214844 1.574219 -4.453125 2.199219 -4.453125 C 2.929688 -4.453125 3.441406 -4.128906 3.730469 -3.480469 C 3.824219 -3.269531 3.886719 -3 3.90625 -2.683594 Z M 2.914062 -2.996094 C 2.847656 -3.738281 2.535156 -4.109375 1.976562 -4.109375 C 1.398438 -4.109375 1.046875 -3.738281 0.917969 -2.996094 Z "/>
</g>
<g id="glyph-0-17">
<path d="M 2.820312 -0.425781 C 2.820312 -0.285156 2.769531 -0.164062 2.664062 -0.0625 C 2.558594 0.0390625 2.433594 0.0898438 2.292969 0.0898438 C 2.144531 0.0898438 2.019531 0.0390625 1.917969 -0.0585938 C 1.816406 -0.160156 1.765625 -0.28125 1.765625 -0.425781 C 1.765625 -0.574219 1.816406 -0.695312 1.921875 -0.796875 C 2.027344 -0.894531 2.148438 -0.945312 2.285156 -0.945312 C 2.429688 -0.945312 2.554688 -0.894531 2.660156 -0.792969 C 2.765625 -0.691406 2.820312 -0.570312 2.820312 -0.425781 Z M 2.332031 -6.566406 C 2.820312 -6.566406 3.226562 -6.429688 3.546875 -6.15625 C 3.871094 -5.886719 4.03125 -5.507812 4.03125 -5.023438 C 4.03125 -4.613281 3.789062 -4.101562 3.304688 -3.488281 C 2.777344 -2.824219 2.464844 -2.191406 2.375 -1.59375 L 2.203125 -1.59375 C 2.203125 -1.710938 2.21875 -1.878906 2.253906 -2.089844 C 2.289062 -2.304688 2.332031 -2.492188 2.382812 -2.652344 C 2.433594 -2.816406 2.5625 -3.128906 2.769531 -3.597656 C 2.871094 -3.835938 2.960938 -4.074219 3.03125 -4.3125 C 3.101562 -4.550781 3.136719 -4.769531 3.136719 -4.96875 C 3.136719 -5.308594 3.050781 -5.613281 2.875 -5.878906 C 2.703125 -6.144531 2.429688 -6.277344 2.054688 -6.277344 C 1.800781 -6.277344 1.582031 -6.207031 1.40625 -6.070312 C 1.230469 -5.933594 1.144531 -5.800781 1.144531 -5.679688 C 1.144531 -5.609375 1.210938 -5.5 1.339844 -5.351562 C 1.46875 -5.207031 1.535156 -5.070312 1.535156 -4.941406 C 1.535156 -4.835938 1.496094 -4.746094 1.417969 -4.667969 C 1.339844 -4.589844 1.246094 -4.546875 1.132812 -4.546875 C 1.007812 -4.546875 0.894531 -4.601562 0.792969 -4.710938 C 0.691406 -4.820312 0.640625 -4.980469 0.640625 -5.195312 C 0.640625 -5.519531 0.78125 -5.828125 1.0625 -6.125 C 1.34375 -6.417969 1.769531 -6.566406 2.332031 -6.566406 Z "/>
</g>
</g>
<image id="source-10" x="0" y="0" width="0" height="0"/>
<mask id="mask-0">
<use xlink:href="#source-10"/>
</mask>
</defs>
<g fill="rgb(100%, 100%, 100%)" fill-opacity="1">
<use xlink:href="#glyph-0-0" x="30" y="27.291992"/>
<use xlink:href="#glyph-0-1" x="36" y="27.291992"/>
<use xlink:href="#glyph-0-2" x="41" y="27.291992"/>
<use xlink:href="#glyph-0-3" x="46" y="27.291992"/>
<use xlink:href="#glyph-0-3" x="51" y="27.291992"/>
<use xlink:href="#glyph-0-4" x="56" y="27.291992"/>
<use xlink:href="#glyph-0-5" x="59" y="27.291992"/>
<use xlink:href="#glyph-0-6" x="61" y="27.291992"/>
<use xlink:href="#glyph-0-7" x="65" y="27.291992"/>
<use xlink:href="#glyph-0-8" x="72" y="27.291992"/>
<use xlink:href="#glyph-0-9" x="77" y="27.291992"/>
<use xlink:href="#glyph-0-10" x="81" y="27.291992"/>
<use xlink:href="#glyph-0-11" x="88" y="27.291992"/>
<use xlink:href="#glyph-0-5" x="93" y="27.291992"/>
<use xlink:href="#glyph-0-12" x="95" y="27.291992"/>
<use xlink:href="#glyph-0-3" x="100" y="27.291992"/>
<use xlink:href="#glyph-0-2" x="105" y="27.291992"/>
<use xlink:href="#glyph-0-12" x="110" y="27.291992"/>
<use xlink:href="#glyph-0-3" x="115" y="27.291992"/>
<use xlink:href="#glyph-0-2" x="120" y="27.291992"/>
<use xlink:href="#glyph-0-1" x="125" y="27.291992"/>
<use xlink:href="#glyph-0-11" x="130" y="27.291992"/>
<use xlink:href="#glyph-0-9" x="135" y="27.291992"/>
<use xlink:href="#glyph-0-13" x="139" y="27.291992"/>
<use xlink:href="#glyph-0-5" x="143" y="27.291992"/>
<use xlink:href="#glyph-0-14" x="145" y="27.291992"/>
<use xlink:href="#glyph-0-15" x="149" y="27.291992"/>
<use xlink:href="#glyph-0-11" x="155" y="27.291992"/>
<use xlink:href="#glyph-0-16" x="160" y="27.291992"/>
<use xlink:href="#glyph-0-5" x="164" y="27.291992"/>
<use xlink:href="#glyph-0-12" x="166" y="27.291992"/>
<use xlink:href="#glyph-0-13" x="171" y="27.291992"/>
<use xlink:href="#glyph-0-2" x="175" y="27.291992"/>
<use xlink:href="#glyph-0-17" x="180" y="27.291992"/>
<use xlink:href="#glyph-0-6" x="184" y="27.291992"/>
</g>
</svg>
